{"glyphs":{"0":{"ha":717,"x_min":25,"x_max":677,"o":"m 405 341 q 361 243 389 264 q 300 227 335 224 q 248 252 264 229 q 240 286 237 267 q 254 332 242 300 l 258 345 l 264 360 q 273 394 269 378 q 286 481 284 437 q 283 538 286 508 q 281 561 283 546 l 280 572 l 279 583 q 290 672 274 631 l 290 674 l 292 678 q 296 688 294 683 q 310 715 302 703 q 353 749 332 750 q 373 740 363 749 q 399 703 385 729 q 432 533 435 633 q 405 341 430 471 m 661 647 l 653 686 q 631 762 644 728 q 543 892 601 845 q 376 951 472 949 q 202 901 280 954 q 92 768 132 853 q 67 703 77 737 q 60 677 64 690 q 57 657 58 667 q 57 567 50 614 l 58 556 l 60 545 q 64 519 62 530 q 68 448 68 486 q 60 324 69 381 q 51 279 56 302 q 45 259 48 270 l 41 241 q 28 180 29 199 q 36 121 25 150 q 180 -2 67 38 q 372 -28 273 -35 q 380 -28 376 -28 q 390 -27 385 -28 q 419 -23 404 -26 q 498 -2 461 -16 q 648 125 610 39 q 665 275 661 152 q 667 610 677 553 l 661 647 z "},"1":{"ha":717,"x_min":49,"x_max":614,"o":"m 257 884 q 143 867 206 893 q 58 783 71 836 q 64 712 49 750 q 108 654 79 677 l 109 652 l 111 651 l 117 647 q 130 638 123 642 q 170 625 149 628 q 222 640 195 622 q 264 680 241 652 l 274 692 l 283 703 q 299 721 293 715 q 326 735 315 739 q 340 694 338 730 q 340 660 341 681 l 340 642 l 338 623 q 335 445 334 527 q 337 385 336 417 l 338 371 l 338 359 q 340 336 339 344 q 319 184 344 250 q 295 130 309 156 q 285 110 291 121 l 280 101 l 276 94 q 269 43 260 62 q 322 -4 280 16 q 415 -26 363 -23 q 515 -15 470 -30 q 593 41 567 3 q 612 104 611 66 q 604 216 614 133 q 560 623 562 603 q 562 770 557 696 q 567 827 564 795 l 568 840 l 570 852 q 572 874 571 866 q 572 945 576 922 q 545 992 567 974 q 441 1023 506 1025 q 345 987 375 1022 q 328 959 336 977 l 322 943 l 317 928 q 281 884 303 890 q 268 883 275 882 l 262 884 l 257 884 z "},"2":{"ha":717,"x_min":55,"x_max":701,"o":"m 88 633 q 171 604 119 602 q 250 637 220 606 q 271 676 264 653 q 275 696 274 686 l 277 718 q 283 754 280 744 q 302 781 288 772 q 369 782 328 799 q 433 729 411 765 q 448 617 460 685 q 402 507 437 557 q 332 443 374 466 q 294 426 315 434 l 274 419 l 254 413 q 176 381 202 396 q 105 313 134 357 l 104 312 l 104 311 q 101 307 102 309 q 95 296 98 302 q 77 257 85 277 q 58 134 55 196 l 58 128 l 58 121 l 59 107 q 64 77 61 90 q 94 22 73 40 q 159 13 116 3 q 181 19 166 15 l 193 22 l 206 25 q 267 37 238 33 q 354 36 311 41 q 389 30 370 34 l 406 26 l 423 22 q 582 20 507 3 q 677 72 654 36 q 696 159 701 108 q 663 232 692 209 q 617 243 648 245 q 578 237 609 241 q 553 233 564 235 q 523 230 538 231 l 519 229 l 515 229 q 504 228 509 229 q 479 226 491 227 q 418 223 445 223 q 336 240 340 222 q 366 275 333 251 q 382 286 372 279 l 392 293 l 403 300 q 450 334 430 319 q 573 433 539 401 q 648 538 629 486 q 644 748 684 631 q 505 933 603 871 q 326 974 425 984 q 260 960 292 970 q 238 953 248 957 q 231 950 234 951 l 227 949 l 225 947 l 222 947 l 220 945 q 212 941 216 943 q 193 931 202 937 q 142 897 165 916 q 61 768 75 842 l 61 766 l 60 761 q 58 748 59 755 q 57 713 56 730 q 88 633 60 662 z "},"3":{"ha":717,"x_min":52,"x_max":675,"o":"m 94 884 q 106 777 76 835 q 176 716 136 720 q 210 726 193 714 q 224 739 216 731 l 239 755 q 269 783 257 775 q 307 796 288 797 q 386 747 350 795 q 410 663 421 699 q 378 635 405 649 q 361 627 374 633 q 352 621 355 623 q 340 615 346 618 q 281 582 311 600 q 202 515 209 539 q 210 459 195 490 q 247 411 223 431 q 304 385 271 391 q 361 382 327 380 l 374 383 l 387 384 q 409 385 401 385 q 439 371 431 383 q 436 319 449 353 q 397 255 424 288 q 342 203 371 222 q 289 189 311 182 q 267 208 276 193 q 259 222 263 213 l 252 239 q 234 272 242 260 q 202 296 221 289 q 149 298 178 305 q 100 275 121 292 l 99 273 l 97 272 q 92 268 95 270 q 79 254 85 261 q 58 205 61 230 q 95 106 52 158 q 181 39 132 63 q 323 16 241 9 q 476 59 400 22 q 603 152 552 96 q 667 277 657 212 q 659 378 675 327 q 604 465 642 434 q 542 493 578 485 q 478 500 514 500 q 450 499 466 500 l 439 498 q 428 498 432 498 q 407 502 408 498 q 423 511 406 506 l 432 513 l 441 515 q 465 522 455 519 q 517 543 495 531 q 567 582 548 559 q 612 730 614 637 q 557 892 610 823 q 365 984 490 979 q 276 979 322 986 q 243 972 260 976 q 232 970 238 971 l 227 968 l 223 967 l 215 965 l 205 962 l 187 957 q 150 942 165 950 q 94 884 108 920 z "},"4":{"ha":717,"x_min":-9,"x_max":787,"o":"m 24 505 q 104 736 79 683 q 190 825 142 819 q 271 793 230 829 q 316 715 310 758 q 306 669 319 697 q 251 555 305 666 q 213 471 220 491 q 212 441 206 452 q 295 406 229 408 q 383 437 362 404 q 389 475 393 452 q 383 494 387 483 l 380 504 l 377 513 q 337 746 337 628 q 392 920 338 876 q 475 947 416 939 l 479 947 l 485 947 q 500 949 492 948 q 537 949 519 950 q 612 920 588 945 q 628 838 633 899 q 588 594 624 798 q 572 478 573 511 q 588 418 569 428 q 618 420 597 413 l 623 422 l 629 424 q 641 427 635 425 q 673 431 656 430 l 692 431 q 715 429 705 430 q 760 407 745 423 q 774 320 787 377 q 723 245 760 263 q 688 241 707 238 q 654 251 675 243 q 599 254 612 266 q 590 207 587 245 l 591 198 l 591 188 q 591 166 591 176 q 586 111 591 138 q 549 22 573 45 q 461 -12 515 -10 q 383 15 407 -14 q 372 80 370 33 q 390 211 374 111 q 397 262 397 252 q 388 292 397 282 q 345 297 375 303 q 317 290 335 295 l 302 285 l 288 281 q 121 266 205 257 q 1 317 31 276 q -7 332 -5 324 q -9 361 -9 344 q 24 505 -5 407 z "},"5":{"ha":717,"x_min":52,"x_max":682,"o":"m 69 680 q 56 504 66 657 q 63 438 53 449 q 94 429 73 427 q 140 440 107 430 l 155 444 l 170 448 q 201 456 186 453 q 276 460 241 463 l 278 460 l 280 460 q 286 459 283 460 q 304 457 295 458 q 353 445 330 452 q 441 373 422 421 q 421 245 465 315 q 326 173 379 176 q 261 203 302 172 q 227 226 241 219 q 178 238 204 237 q 122 229 149 239 q 74 195 90 218 q 62 111 52 162 q 100 31 71 64 q 198 -20 134 -5 q 334 -23 260 -34 q 596 123 505 2 q 667 296 654 199 q 631 488 682 404 q 549 577 600 540 q 429 625 491 619 q 368 624 401 628 q 340 619 356 622 l 328 616 l 316 614 q 252 617 262 602 q 263 688 246 626 q 298 771 283 760 q 342 780 314 783 q 371 774 353 779 l 379 772 l 388 770 l 406 766 q 536 742 500 745 q 618 756 592 736 q 655 847 654 783 q 623 941 657 911 q 568 951 606 955 l 556 949 l 550 949 l 543 948 q 511 945 524 946 q 416 939 465 941 q 377 938 399 939 l 359 937 l 342 937 q 263 932 303 936 q 152 915 167 924 q 103 839 121 896 q 69 680 91 801 z "},"6":{"ha":717,"x_min":20,"x_max":718,"o":"m 450 336 q 428 265 448 298 q 376 229 406 231 q 311 269 341 226 q 286 357 281 311 q 315 426 290 395 q 374 457 342 458 q 430 415 407 455 q 450 336 452 378 m 661 449 q 556 558 625 515 q 414 597 484 603 q 353 580 383 593 q 307 552 330 570 q 289 538 299 547 l 281 532 q 275 528 277 529 q 259 522 262 518 q 262 551 253 527 q 292 606 272 577 q 425 709 348 685 q 487 719 455 719 q 513 717 499 718 q 537 714 522 716 q 576 711 566 710 q 606 723 595 711 q 623 771 621 739 q 613 837 624 802 q 526 949 587 920 q 309 905 442 989 q 109 696 183 824 q 29 432 37 572 q 119 148 20 261 q 294 26 192 66 q 526 30 420 -22 q 678 215 638 85 q 661 449 718 343 z "},"7":{"ha":717,"x_min":24,"x_max":720,"o":"m 28 863 l 28 861 q 28 855 28 858 q 26 838 26 846 q 26 787 24 811 q 70 690 32 716 q 130 684 88 678 q 319 731 176 691 q 424 760 411 757 q 456 758 449 765 q 414 650 471 739 q 383 602 404 633 l 374 589 l 366 576 q 347 547 355 560 q 261 412 298 474 q 126 168 154 232 q 113 26 83 69 q 231 -19 145 -20 q 374 29 318 -18 q 422 127 410 59 l 425 144 l 427 153 l 429 163 q 437 206 433 187 q 467 319 449 262 q 541 501 496 406 q 574 566 557 534 q 586 588 580 577 q 591 597 589 593 q 595 604 593 600 q 622 649 607 625 l 635 669 l 646 689 q 686 755 675 735 q 708 867 720 819 q 673 932 699 903 q 654 950 664 942 q 648 955 651 953 l 646 956 l 644 958 q 547 975 606 983 q 518 970 536 974 l 503 968 l 486 966 q 409 958 444 959 q 289 965 349 955 q 241 975 267 969 l 219 981 l 199 985 q 132 997 154 997 q 78 978 102 997 q 42 923 54 958 q 34 892 37 909 l 31 878 l 29 865 l 28 863 z "},"8":{"ha":717,"x_min":-16,"x_max":715,"o":"m 401 151 q 353 160 378 144 q 315 195 331 173 q 288 332 278 249 q 343 435 299 416 q 405 427 370 447 q 456 372 437 407 q 465 237 486 313 q 401 151 445 163 m 290 696 q 315 747 297 724 q 356 772 336 772 q 405 726 385 771 q 415 633 425 680 q 395 585 409 607 q 360 556 379 558 q 304 600 330 554 q 290 696 277 648 m 644 452 q 606 471 629 463 q 587 478 597 475 l 577 481 l 568 484 q 526 507 526 494 q 541 526 526 515 l 549 530 l 557 534 q 574 545 568 541 q 645 667 626 582 q 633 826 663 753 q 463 962 592 928 q 374 975 421 972 q 345 975 359 976 q 335 975 339 975 l 332 975 l 329 975 l 327 975 l 324 975 q 317 974 321 975 q 296 971 307 972 q 237 957 265 966 q 109 865 152 928 q 89 829 97 848 q 84 817 86 823 q 83 812 83 814 l 82 811 l 81 810 q 85 671 62 744 q 162 559 109 599 q 192 541 176 549 q 206 534 199 537 l 212 531 l 218 528 q 243 512 244 518 q 208 502 242 505 q 191 500 197 500 q 174 498 182 499 q 136 487 152 494 q 37 402 78 465 q -7 278 -2 342 q 67 85 -16 176 q 240 -28 140 5 q 487 -26 361 -68 q 674 129 619 19 q 707 309 715 211 q 644 452 699 410 z "},"9":{"ha":717,"x_min":39,"x_max":684,"o":"m 457 543 q 430 527 450 534 q 351 524 392 515 q 279 578 300 536 q 279 675 257 621 q 298 711 287 694 q 307 722 302 717 q 312 727 311 726 q 439 677 395 784 q 459 595 454 640 q 457 543 464 553 m 675 627 l 673 645 q 667 683 670 665 q 645 765 658 728 q 534 913 609 864 q 342 957 453 968 q 270 943 306 954 q 247 936 258 940 q 239 933 243 935 l 237 932 l 235 932 q 227 928 231 930 q 218 924 222 926 q 197 913 207 920 q 145 876 169 898 q 66 755 92 827 q 48 604 39 681 l 49 599 l 50 591 q 52 574 51 583 q 65 528 57 550 q 134 424 88 465 q 262 366 186 378 q 317 363 289 362 q 340 365 329 363 q 356 366 348 366 q 404 378 380 370 q 424 385 413 381 l 432 388 l 440 391 q 479 397 474 405 q 465 351 488 387 q 408 286 442 315 q 286 222 357 243 q 238 212 262 216 q 222 210 230 211 q 216 210 219 210 l 214 210 l 213 210 q 174 210 194 208 q 160 210 168 210 l 153 211 l 147 212 q 113 203 123 213 q 94 118 86 178 q 138 26 102 56 q 229 0 170 -1 q 352 30 285 2 q 592 220 502 92 q 680 460 665 324 q 682 554 684 506 q 680 588 682 571 q 678 601 680 594 l 678 606 l 677 610 l 675 627 z "},"\u0000":{"ha":0,"x_min":0,"x_max":0,"o":""},"\u001d":{"ha":0,"x_min":0,"x_max":0,"o":""}," ":{"ha":345,"x_min":0,"x_max":0,"o":""}," ":{"ha":345,"x_min":0,"x_max":0,"o":""},"!":{"ha":368,"x_min":13,"x_max":373,"o":"m 178 178 q 220 137 205 163 q 231 96 230 119 q 130 -25 237 -7 q 71 -20 98 -30 q 18 26 28 -3 q 17 98 13 64 q 26 134 20 120 q 131 188 52 187 q 178 178 159 189 m 250 304 q 236 263 243 277 q 220 245 230 252 q 157 233 196 229 q 98 258 118 237 q 82 302 82 275 q 90 363 82 317 q 127 709 117 519 q 131 812 130 755 l 131 823 l 131 833 q 131 852 131 845 q 132 884 131 872 q 139 935 133 916 q 163 970 146 956 q 271 1002 204 1009 q 325 987 301 1000 q 361 951 350 973 q 367 888 373 931 q 342 773 363 857 q 295 537 327 713 l 289 504 l 283 471 q 271 408 275 433 q 250 304 258 340 z "},"\"":{"ha":184,"x_min":-102,"x_max":279,"o":"m 16 827 q -37 901 -1 852 q -80 964 -68 944 q -100 1016 -98 994 q -83 1061 -102 1042 q 9 1107 -42 1101 q 48 1103 32 1110 q 70 1078 65 1095 q 58 1022 77 1051 q 36 968 37 987 q 54 892 35 943 q 70 827 72 844 q 41 814 67 805 q 16 827 28 818 m 147 827 q 121 914 140 857 q 100 987 104 965 q 97 1044 92 1023 q 127 1080 103 1069 q 229 1096 180 1106 q 265 1079 252 1091 q 278 1048 279 1066 q 250 999 276 1021 q 211 955 218 973 q 203 878 201 932 q 198 810 205 825 q 167 807 189 791 q 147 827 156 815 z "},"#":{"ha":858,"x_min":-5,"x_max":880,"o":"m 473 395 q 464 395 469 393 l 461 396 l 457 397 q 446 399 452 398 q 423 401 435 401 l 414 401 l 406 400 q 378 401 387 398 q 373 466 362 408 q 412 547 385 526 q 469 568 438 568 q 511 549 496 566 q 502 471 517 542 q 473 395 486 399 m 866 690 q 836 710 856 704 q 819 714 829 712 l 810 715 l 801 715 q 755 715 779 718 q 720 707 741 713 q 680 704 684 698 q 686 731 674 711 q 701 755 690 739 l 707 763 l 712 771 q 724 790 718 781 q 793 918 779 875 q 799 942 799 933 q 798 948 799 945 l 797 950 l 796 951 q 766 971 789 966 q 747 974 758 973 l 739 975 l 731 975 q 725 975 728 975 q 717 975 721 975 q 694 971 705 974 q 644 947 664 964 q 625 918 632 937 q 601 838 623 910 q 553 728 575 750 l 549 724 l 544 719 q 531 708 538 713 q 494 692 513 696 l 493 692 l 491 692 l 487 692 q 474 692 480 691 q 449 702 456 693 q 445 732 440 711 q 464 787 448 743 q 500 924 506 902 l 500 925 l 500 927 q 498 933 499 930 q 488 952 494 943 q 439 986 470 979 q 387 984 414 991 q 342 958 360 977 q 309 873 317 935 q 309 833 307 852 q 310 817 309 825 l 311 810 l 312 803 q 304 753 316 773 l 304 751 l 302 750 q 300 746 301 748 q 292 736 296 741 q 262 713 278 721 q 193 718 234 702 l 178 724 q 163 729 170 728 q 134 728 147 733 q 88 665 102 714 q 96 589 74 614 q 174 574 114 569 l 197 576 q 218 576 209 577 q 252 561 240 574 q 259 482 275 534 q 208 416 243 430 q 175 414 193 409 q 159 420 168 416 l 142 429 q 108 443 121 439 q 67 441 87 448 q 20 405 41 431 q -3 349 1 378 q 3 304 -5 325 q 33 270 12 280 q 73 264 50 261 q 113 274 89 266 l 123 277 l 132 281 q 148 286 142 284 q 170 283 163 290 q 162 247 178 275 q 144 218 156 236 l 134 203 l 123 186 q 85 120 96 145 q 83 62 71 83 q 129 31 94 41 q 153 26 140 28 q 163 25 158 26 l 166 25 l 168 25 l 171 24 l 175 24 q 183 24 179 24 q 204 26 194 24 q 252 43 233 30 q 282 96 275 61 q 283 166 286 118 l 283 184 l 282 202 q 284 235 282 221 q 312 288 290 271 q 374 307 337 307 q 422 288 410 307 q 420 247 433 274 q 406 220 416 236 l 397 206 l 387 191 q 354 126 363 152 q 350 57 340 88 q 374 16 357 33 q 416 -5 393 -3 q 484 18 448 -8 q 536 78 519 43 q 550 135 549 104 q 549 162 551 147 q 545 187 548 172 q 541 231 540 219 q 557 265 542 253 q 584 279 567 274 q 596 282 590 281 l 600 283 l 602 283 l 604 283 q 636 281 618 286 l 644 280 l 652 278 q 673 277 662 277 q 729 288 712 277 q 758 333 750 302 q 760 356 760 344 q 761 365 761 360 l 761 369 l 761 372 l 760 387 q 758 401 760 395 q 744 422 754 416 q 716 423 734 427 l 707 422 l 696 420 q 669 418 683 418 q 614 429 625 418 q 622 499 597 450 q 686 561 647 549 q 734 557 703 566 q 760 551 749 552 q 792 554 775 549 l 794 555 l 796 555 q 802 557 799 556 q 817 564 809 559 q 852 591 838 574 q 876 642 871 614 q 866 690 880 671 z "},"$":{"ha":872,"x_min":11,"x_max":865,"o":"m 556 174 q 502 129 534 144 q 503 360 502 206 q 556 346 537 363 q 585 267 585 319 q 556 174 586 214 m 325 583 q 326 647 309 611 q 374 695 343 681 q 394 702 383 700 q 412 703 403 703 q 423 674 418 689 q 432 631 430 653 q 429 585 433 608 q 425 567 427 576 q 420 553 422 560 q 363 554 391 545 q 325 583 337 562 m 792 526 q 716 547 767 544 q 505 551 713 547 q 506 692 506 637 l 526 689 l 546 686 l 587 681 q 667 675 634 675 q 779 716 753 676 q 786 775 793 738 q 779 801 783 788 q 772 814 774 811 q 507 922 701 913 q 507 936 507 929 q 507 955 507 945 q 514 1003 509 979 q 519 1021 516 1012 l 522 1029 l 524 1038 q 528 1092 534 1072 q 506 1128 522 1112 q 470 1145 489 1144 q 427 1122 448 1145 q 412 1103 419 1114 q 408 1095 410 1099 l 406 1092 l 405 1089 q 391 986 381 1045 q 401 945 394 966 q 407 930 404 937 l 410 924 l 411 920 q 367 916 389 918 q 305 903 336 911 q 106 812 193 876 q 17 709 28 756 q 13 648 11 682 q 15 625 14 637 q 16 617 16 621 l 16 614 l 17 612 q 59 503 26 554 q 84 469 71 486 q 94 458 89 463 l 98 454 l 102 450 q 250 366 160 391 q 316 352 281 357 q 342 349 329 351 q 352 349 347 349 l 357 349 l 361 349 q 429 350 394 347 q 427 248 427 297 q 422 124 425 189 q 362 186 400 134 q 330 224 345 210 q 281 257 308 245 q 189 274 237 277 q 117 244 138 271 q 119 132 88 205 q 204 12 148 62 q 322 -50 254 -32 q 372 -59 347 -56 q 392 -60 382 -60 q 407 -61 399 -61 q 387 -117 389 -87 q 400 -169 385 -147 q 426 -192 410 -183 q 464 -200 445 -203 q 495 -185 481 -198 q 504 -175 500 -180 l 507 -172 l 508 -170 l 509 -169 q 518 -94 528 -138 q 508 -66 515 -80 q 504 -57 506 -61 l 503 -54 l 503 -54 l 502 -54 q 661 7 589 -37 l 664 8 l 667 10 q 677 16 672 14 q 703 35 690 25 q 769 96 739 63 q 864 312 859 195 l 864 315 l 864 317 q 865 326 865 321 q 865 347 865 336 q 859 406 863 378 q 792 526 842 489 z "},"%":{"ha":878,"x_min":26,"x_max":846,"o":"m 512 443 q 624 591 563 515 q 648 620 635 604 l 659 634 l 669 647 q 707 694 694 677 q 760 774 745 741 q 781 853 779 812 l 782 856 l 782 859 q 781 869 782 864 q 779 896 781 882 q 753 956 772 934 q 673 977 724 991 q 602 926 627 963 q 191 328 234 376 q 104 222 125 254 q 66 132 71 176 q 79 48 61 88 q 93 23 85 35 q 98 16 96 19 l 100 14 l 102 12 l 102 12 l 103 11 l 105 9 q 112 2 108 5 q 136 -15 123 -8 q 212 -20 176 -36 q 277 51 247 -6 q 308 112 288 68 l 316 130 l 326 148 q 345 188 336 170 q 512 443 382 260 m 215 737 q 198 702 209 709 q 174 696 188 695 q 155 705 161 697 q 152 718 151 710 q 157 734 153 722 l 159 739 l 161 744 q 164 756 163 751 q 169 787 168 772 q 168 808 170 798 q 168 817 168 811 l 167 821 l 166 825 q 170 857 165 842 l 171 857 l 172 859 q 173 863 172 861 q 178 872 176 867 q 195 884 186 884 q 203 881 199 884 q 212 868 208 877 q 225 806 227 842 q 215 737 224 784 m 337 838 l 333 855 q 323 890 329 875 q 279 950 308 928 q 197 977 245 977 q 113 954 151 978 q 58 892 79 932 q 47 863 52 879 q 43 851 45 857 q 41 842 43 846 q 41 800 38 823 l 43 795 l 43 790 q 45 779 44 784 q 47 746 47 763 q 43 689 47 715 q 39 668 41 679 q 36 659 37 664 l 34 651 q 27 623 28 631 q 31 595 26 609 q 102 539 47 557 q 196 527 147 524 q 199 527 198 527 q 205 528 202 528 q 219 530 212 528 q 258 539 239 533 q 331 597 312 558 q 339 667 337 610 q 340 820 345 794 l 337 838 m 715 208 q 699 172 709 180 q 675 166 688 165 q 655 176 661 168 q 652 188 651 180 q 657 204 653 193 l 659 209 l 661 214 q 665 227 663 221 q 669 258 669 242 q 669 279 670 268 q 668 287 669 281 l 667 291 l 667 295 q 671 327 665 312 l 671 328 l 672 329 q 673 333 673 331 q 679 342 676 338 q 696 355 687 355 q 703 351 699 355 q 713 338 708 347 q 726 277 727 313 q 715 208 725 254 m 838 308 l 833 326 q 823 360 829 345 q 780 420 808 399 q 698 448 745 447 q 613 425 652 448 q 559 363 579 402 q 547 334 552 349 q 544 321 545 328 q 542 313 543 317 q 542 271 538 293 l 543 266 l 544 260 q 545 249 545 254 q 548 216 547 233 q 543 159 548 186 q 539 138 542 149 q 536 130 538 134 l 534 121 q 528 93 529 102 q 532 66 527 79 q 602 9 547 28 q 696 -3 648 -6 q 700 -3 699 -3 q 705 -2 703 -2 q 720 0 712 -1 q 758 9 740 3 q 831 68 812 28 q 840 137 838 80 q 841 290 846 264 l 838 308 z "},"&":{"ha":863,"x_min":20,"x_max":875,"o":"m 309 139 l 308 140 q 302 141 305 140 q 287 149 294 144 q 254 184 264 162 q 255 248 242 212 q 267 274 259 261 q 272 283 269 279 l 274 287 l 276 290 l 282 298 q 368 203 329 241 q 406 166 392 179 q 310 139 353 128 l 309 139 m 323 553 q 292 654 300 605 q 300 715 285 705 q 306 721 302 717 l 309 724 l 313 728 q 333 743 323 738 q 402 730 363 757 q 408 703 406 726 q 405 649 409 677 q 345 532 392 568 l 336 526 q 323 553 329 539 m 864 119 q 826 178 852 154 q 759 219 804 197 q 817 345 802 278 l 819 352 l 821 359 q 824 376 823 368 q 827 412 827 395 q 807 488 828 458 q 718 535 777 530 q 629 509 659 541 q 612 435 610 489 l 612 424 l 612 411 q 610 383 612 396 q 595 315 607 349 l 591 304 q 561 322 575 313 q 438 410 490 366 l 453 420 l 467 430 q 494 448 484 441 q 537 481 522 467 q 582 556 576 517 q 552 774 602 689 q 425 873 510 845 q 272 883 352 897 q 163 832 196 869 q 122 632 101 762 q 190 441 138 530 q 167 431 180 437 l 156 426 l 145 421 q 108 404 122 411 q 52 350 72 383 q 21 233 21 301 q 42 120 20 173 q 187 -17 81 26 q 361 -45 270 -51 q 555 33 456 -40 q 661 -17 606 -1 l 665 -18 l 669 -20 l 678 -22 q 701 -28 690 -26 q 755 -37 730 -35 q 853 -4 825 -42 q 872 74 875 26 q 867 105 871 90 q 865 115 867 111 l 864 118 l 864 119 z "},"'":{"ha":100,"x_min":-100,"x_max":142,"o":"m 91 770 q 68 741 81 753 q 28 743 42 718 q 14 831 17 762 q -2 932 12 903 q -56 987 -13 956 q -96 1050 -92 1015 q -83 1092 -100 1074 q -40 1117 -68 1109 q 91 1105 22 1135 q 134 1059 123 1091 q 136 985 142 1032 q 116 886 132 955 q 91 770 98 810 z "},"(":{"ha":543,"x_min":116,"x_max":511,"o":"m 376 1045 q 459 1017 418 1048 q 507 939 502 983 q 495 879 511 909 q 454 821 486 863 q 428 787 438 802 q 401 745 413 766 q 356 629 372 692 q 333 413 330 528 q 376 219 336 285 q 391 198 381 210 l 398 189 l 406 178 q 433 119 423 153 l 435 115 l 437 110 q 440 96 439 103 q 448 58 445 77 q 441 -39 455 4 q 389 -112 425 -95 q 304 -84 351 -130 q 270 -44 287 -68 q 257 -25 263 -35 q 247 -9 252 -18 q 243 -3 245 -6 q 241 1 242 -1 q 124 398 142 181 q 127 578 116 506 q 160 710 138 646 q 180 764 168 735 l 191 788 l 201 811 q 280 972 252 930 q 376 1045 326 1042 z "},")":{"ha":519,"x_min":64,"x_max":458,"o":"m 198 1057 q 294 984 248 1054 q 374 823 321 941 l 384 800 l 394 775 q 414 722 406 747 q 447 590 437 657 q 450 410 458 517 q 333 12 433 193 q 331 8 332 11 q 327 2 329 5 q 317 -14 322 -6 q 304 -33 311 -23 q 270 -73 287 -56 q 186 -100 223 -118 q 132 -28 150 -83 q 127 70 119 16 q 134 108 129 88 q 138 121 136 115 l 140 127 l 141 131 q 169 190 151 164 l 176 200 l 184 210 q 198 231 193 222 q 241 425 238 296 q 218 640 244 539 q 173 757 202 704 q 146 798 161 777 q 121 833 136 813 q 79 890 88 875 q 67 951 64 920 q 115 1028 72 995 q 198 1057 157 1059 z "},"*":{"ha":584,"x_min":-22,"x_max":575,"o":"m 290 368 q 385 253 356 302 q 391 241 389 248 q 398 229 395 235 q 427 202 406 211 q 461 201 447 194 q 469 205 465 203 q 511 228 502 218 q 518 235 513 230 q 525 243 523 240 q 536 260 535 253 q 536 272 538 266 q 524 293 532 283 q 505 304 515 303 q 483 308 500 304 q 472 310 481 309 q 461 313 465 312 q 451 316 452 315 q 349 414 407 340 q 494 453 437 447 q 508 454 500 454 q 522 454 515 454 q 557 469 541 454 q 572 500 573 484 q 573 510 572 505 q 570 557 575 545 q 566 567 568 560 q 562 576 564 573 q 551 593 557 589 q 541 597 546 597 q 516 596 528 600 q 498 583 503 592 q 486 565 495 578 q 479 556 484 564 q 472 547 474 551 q 465 539 466 540 q 372 498 433 516 q 410 547 400 540 q 447 578 436 567 q 468 624 465 600 q 429 685 473 660 q 418 691 423 688 q 406 696 412 693 q 314 704 340 722 q 306 698 309 701 q 300 688 302 694 q 293 666 293 671 q 292 651 292 659 q 293 635 293 644 q 288 569 294 604 q 286 553 287 561 q 275 518 280 535 q 228 600 232 583 q 212 649 219 633 q 176 690 197 676 q 98 676 142 709 q 87 667 92 672 q 77 657 81 663 q 30 569 24 603 q 33 559 31 564 q 40 548 35 553 q 59 532 54 534 q 73 525 66 528 q 90 519 81 523 q 154 486 122 506 q 170 477 161 481 q 188 461 179 469 q 114 455 128 453 q 62 461 79 462 q 9 446 32 460 q -10 370 -22 424 q -7 357 -9 363 q -2 342 -5 350 q 58 263 24 272 q 69 262 63 262 q 81 264 75 262 q 104 274 100 270 q 117 285 111 279 q 129 296 122 290 q 185 341 154 320 q 200 351 193 347 q 212 357 206 354 q 173 290 192 316 q 165 279 169 285 q 157 270 161 275 q 144 236 144 257 q 156 207 145 216 q 162 201 159 203 q 197 173 185 178 q 205 170 199 172 q 214 167 211 168 q 233 164 227 162 q 242 168 238 165 q 256 186 252 176 q 259 205 262 197 q 254 226 258 211 q 252 236 254 228 q 251 246 251 243 q 250 256 250 254 q 290 368 254 299 z "},"+":{"ha":776,"x_min":-1,"x_max":777,"o":"m 476 351 q 470 316 473 334 l 464 283 l 458 250 q 446 186 450 212 q 425 83 433 119 q 411 42 418 56 q 395 24 405 31 q 332 12 371 7 q 273 37 293 16 q 257 81 257 54 q 265 142 257 96 q 292 344 281 237 q 205 336 252 340 l 194 334 l 184 334 q 165 332 172 332 q 132 328 145 329 q 82 330 101 326 q 44 349 60 335 q -1 454 1 387 q 9 509 -1 484 q 40 549 20 535 q 103 562 59 563 q 220 550 133 562 q 304 542 249 547 q 306 591 306 566 l 306 631 q 307 663 306 651 q 314 713 308 695 q 338 749 321 734 q 446 781 379 788 q 500 766 476 779 q 536 730 525 752 q 542 667 548 710 q 517 552 538 636 q 511 526 514 541 l 527 526 q 591 521 564 523 q 696 512 659 516 q 739 503 724 509 q 758 490 750 498 q 777 428 777 467 q 758 366 777 389 q 717 346 744 349 q 656 347 703 344 q 476 351 571 351 z "},",":{"ha":335,"x_min":22,"x_max":261,"o":"m 261 71 q 223 -73 259 -38 q 94 -87 186 -107 q 75 -68 76 -83 q 89 -50 74 -54 q 159 30 168 -47 l 138 7 q 57 5 107 -11 q 24 47 33 17 q 28 122 22 87 q 41 160 33 144 q 157 215 72 214 q 207 204 186 216 q 249 162 235 190 q 261 71 256 150 z "},"-":{"ha":572,"x_min":29,"x_max":533,"o":"m 480 459 q 508 452 498 456 q 521 441 516 448 q 533 393 533 424 q 521 316 533 334 q 494 300 511 302 q 454 300 485 298 q 229 299 352 308 q 162 292 199 297 l 155 291 l 149 290 q 137 288 141 289 q 115 286 124 287 q 83 288 95 284 q 58 303 69 292 q 29 386 30 332 q 36 429 29 410 q 56 462 43 450 q 96 472 68 473 q 172 463 116 471 q 334 459 212 456 q 480 459 456 463 z "},"­":{"ha":572,"x_min":29,"x_max":533,"o":"m 480 459 q 508 452 498 456 q 521 441 516 448 q 533 393 533 424 q 521 316 533 334 q 494 300 511 302 q 454 300 485 298 q 229 299 352 308 q 162 292 199 297 l 155 291 l 149 290 q 137 288 141 289 q 115 286 124 287 q 83 288 95 284 q 58 303 69 292 q 29 386 30 332 q 36 429 29 410 q 56 462 43 450 q 96 472 68 473 q 172 463 116 471 q 334 459 212 456 q 480 459 456 463 z "},".":{"ha":248,"x_min":8,"x_max":239,"o":"m 189 254 q 229 209 216 239 q 239 163 239 189 q 125 27 239 47 q 64 33 92 22 q 11 85 20 52 q 15 165 8 127 q 27 206 19 190 q 140 266 57 265 q 189 254 169 267 z "},"/":{"ha":568,"x_min":-14,"x_max":600,"o":"m 385 456 q 476 618 426 534 q 495 650 485 632 l 505 665 l 513 680 q 545 731 534 713 q 586 818 574 783 q 596 899 600 859 l 595 901 l 595 905 q 593 915 595 909 q 587 941 591 928 q 554 998 576 977 q 471 1006 520 1028 q 408 947 428 987 q 83 298 119 351 q 12 181 28 216 q -14 87 -14 130 q 11 5 -13 42 q 28 -18 18 -7 q 35 -24 31 -21 l 37 -26 l 39 -28 l 39 -28 l 39 -29 l 42 -31 q 50 -36 45 -33 q 76 -50 62 -44 q 153 -45 118 -65 q 208 35 184 -26 q 229 100 214 54 l 235 118 l 241 138 q 255 180 248 161 q 385 456 282 256 z "},":":{"ha":304,"x_min":35,"x_max":266,"o":"m 215 254 q 256 209 243 239 q 265 163 266 189 q 151 27 265 47 q 90 33 118 22 q 37 85 46 52 q 41 165 35 127 q 54 206 45 190 q 166 266 83 265 q 215 254 195 267 m 215 683 q 256 637 243 667 q 265 591 266 617 q 151 456 265 475 q 90 462 118 450 q 37 513 46 480 q 41 594 35 556 q 54 635 45 618 q 166 694 83 694 q 215 683 195 695 z "},";":{"ha":307,"x_min":24,"x_max":304,"o":"m 304 71 q 267 -73 302 -38 q 137 -87 229 -107 q 118 -68 119 -83 q 132 -50 117 -54 q 202 30 212 -47 l 182 7 q 100 5 151 -11 q 68 47 77 17 q 72 122 65 87 q 85 160 76 144 q 200 215 115 214 q 250 204 230 216 q 292 162 279 190 q 304 71 299 150 m 204 683 q 245 637 232 667 q 254 591 255 617 q 140 456 254 475 q 79 462 107 450 q 26 513 35 480 q 31 594 24 556 q 43 635 35 618 q 155 694 73 694 q 204 683 184 695 z "},";":{"ha":307,"x_min":24,"x_max":304,"o":"m 304 71 q 267 -73 302 -38 q 137 -87 229 -107 q 118 -68 119 -83 q 132 -50 117 -54 q 202 30 212 -47 l 182 7 q 100 5 151 -11 q 68 47 77 17 q 72 122 65 87 q 85 160 76 144 q 200 215 115 214 q 250 204 230 216 q 292 162 279 190 q 304 71 299 150 m 204 683 q 245 637 232 667 q 254 591 255 617 q 140 456 254 475 q 79 462 107 450 q 26 513 35 480 q 31 594 24 556 q 43 635 35 618 q 155 694 73 694 q 204 683 184 695 z "},"<":{"ha":808,"x_min":-5,"x_max":792,"o":"m 1 536 q 125 724 20 633 q 354 861 219 806 q 594 921 484 914 q 752 881 711 928 q 770 741 792 833 q 686 607 747 648 q 610 585 660 589 l 597 584 l 583 583 q 549 581 564 582 q 459 569 505 576 l 446 567 l 432 565 q 402 560 416 562 q 342 548 367 554 q 275 517 275 532 q 336 494 275 505 q 366 490 347 493 l 382 488 l 400 486 q 477 473 446 479 q 634 427 573 455 q 743 328 714 389 q 753 193 771 267 q 690 97 736 119 q 629 102 663 84 q 555 155 609 112 q 508 191 527 177 q 451 229 479 212 q 298 296 379 272 q 205 317 259 307 l 184 321 l 164 324 q 127 331 142 328 q 20 395 50 349 q -4 479 -3 431 q -2 514 -5 496 q -1 527 -1 520 l 1 532 l 1 536 z "},"=":{"ha":679,"x_min":25,"x_max":663,"o":"m 597 671 q 631 665 620 669 q 648 654 642 661 q 663 605 663 636 q 648 555 663 574 q 614 539 636 542 q 564 540 602 538 q 280 538 435 547 q 196 532 242 536 l 187 530 l 179 530 q 164 528 170 528 q 137 526 148 526 q 96 527 111 524 q 65 543 79 531 q 28 625 29 572 q 37 669 28 649 q 62 701 45 690 q 113 711 77 712 q 208 702 138 711 q 404 686 258 696 l 431 684 l 459 682 q 511 679 490 680 q 597 671 567 675 m 92 406 q 177 414 121 410 q 230 417 199 415 l 257 419 l 285 420 q 480 437 430 431 q 576 446 551 446 q 627 436 611 447 q 652 404 643 425 q 660 360 660 384 q 624 277 659 307 q 593 262 610 266 q 551 260 577 258 q 525 262 541 261 q 509 264 519 263 l 501 265 l 492 267 q 408 273 446 271 q 124 275 254 282 q 74 274 86 273 q 41 290 52 277 q 25 340 25 309 q 41 389 25 371 q 57 399 47 395 q 92 406 68 404 z "},">":{"ha":810,"x_min":-2,"x_max":795,"o":"m 789 463 q 665 275 770 366 q 436 138 571 193 q 196 78 307 85 q 38 118 79 71 q 20 258 -2 165 q 104 392 43 351 q 180 414 130 410 l 193 415 l 208 416 q 241 418 227 417 q 331 430 285 422 l 344 432 l 358 434 q 388 439 374 437 q 448 451 423 445 q 515 481 515 467 q 454 505 515 494 q 424 509 443 506 l 408 511 l 390 513 q 313 526 345 520 q 156 572 217 544 q 47 671 76 610 q 37 806 19 732 q 100 902 54 880 q 161 897 127 915 q 235 844 181 887 q 282 808 263 822 q 339 770 311 787 q 491 703 411 727 q 585 682 531 692 l 606 678 l 625 675 q 663 668 648 671 q 770 604 740 651 q 794 519 793 569 q 792 485 795 503 q 790 472 791 479 l 789 467 l 789 463 z "},"?":{"ha":597,"x_min":-22,"x_max":584,"o":"m -1 695 q 60 628 14 653 q 136 618 105 604 q 167 660 152 625 q 182 691 175 680 q 212 724 194 709 l 214 726 l 217 728 q 224 734 220 732 q 242 745 233 741 q 290 755 267 759 q 358 703 330 750 q 372 621 385 656 q 353 597 366 606 q 319 583 344 591 l 309 579 l 298 574 q 274 564 286 570 q 217 528 244 549 l 208 520 l 197 511 q 176 491 185 501 q 136 433 151 465 l 134 429 l 132 423 q 126 408 129 416 q 115 371 119 389 q 131 289 106 319 q 193 257 153 262 q 262 270 233 252 q 291 302 281 281 q 302 343 296 315 l 304 354 l 307 366 q 314 389 310 379 q 342 436 323 416 q 439 479 373 471 l 465 481 q 489 486 479 484 q 534 511 515 494 q 572 583 560 537 q 578 680 584 627 q 488 878 567 800 q 295 960 410 954 q 105 907 186 965 q 18 814 51 869 q -1 695 -22 747 m 83 111 q 96 41 78 75 q 144 -9 113 8 q 234 -18 186 -31 q 307 37 283 -5 q 324 114 328 72 q 291 185 320 157 q 205 214 257 218 q 124 181 158 210 l 123 179 l 121 178 q 115 173 118 175 q 103 159 109 166 q 83 111 87 136 z "},"@":{"ha":1037,"x_min":-9,"x_max":1038,"o":"m 572 360 q 514 355 556 344 q 450 398 470 368 q 450 502 422 441 q 516 565 475 562 q 555 553 535 567 q 584 519 575 538 q 585 475 591 503 l 583 469 l 582 462 q 579 445 580 453 q 576 400 576 424 q 572 360 576 364 m 720 934 q 529 966 631 970 q 339 922 433 962 q 174 817 246 883 q 57 661 98 747 q 15 368 -9 524 q 155 104 40 205 q 503 -5 289 -14 q 646 16 578 -3 q 715 45 703 31 q 722 56 719 51 q 718 104 730 77 q 692 141 707 127 q 604 146 667 163 l 590 142 l 576 138 q 545 130 557 133 q 478 120 509 121 q 296 176 387 117 q 165 326 205 235 q 172 589 110 446 q 222 679 191 635 q 243 707 232 693 q 250 715 247 711 l 253 719 l 255 721 l 257 724 l 260 727 q 269 736 264 732 q 293 760 281 749 q 368 817 329 793 q 608 867 486 888 q 802 753 722 846 q 887 569 875 670 l 888 567 l 888 564 q 888 557 888 561 q 890 538 889 548 q 886 483 890 509 q 823 363 875 403 q 765 334 796 343 q 709 338 729 325 q 690 408 686 355 q 698 453 692 428 q 703 474 700 463 l 705 484 l 707 492 q 732 561 717 528 q 744 587 737 572 l 749 598 l 755 608 q 766 671 777 651 q 709 706 751 697 q 635 699 667 715 q 619 688 627 695 q 610 675 615 684 q 586 654 598 659 q 515 669 560 643 l 498 680 q 480 690 488 686 q 441 700 459 700 q 364 661 406 699 q 295 565 323 623 q 260 444 264 504 q 289 326 256 376 q 378 246 320 276 q 492 225 439 214 q 521 236 507 229 l 532 242 l 543 250 q 596 268 570 267 q 667 246 631 270 l 682 236 l 697 227 q 730 214 714 217 q 885 276 798 200 q 999 450 970 351 q 951 732 1038 585 q 720 934 866 873 z "},"A":{"ha":852,"x_min":-16,"x_max":862,"o":"m 471 452 q 399 429 446 435 q 332 439 349 422 q 323 501 321 451 q 340 602 326 548 q 374 692 355 660 q 416 717 395 728 q 432 696 426 711 q 439 677 434 690 l 441 671 l 443 665 q 448 649 446 656 q 479 521 473 578 q 471 452 486 463 m 627 722 l 623 736 q 615 764 618 752 q 594 823 605 798 q 511 922 564 890 q 417 954 470 949 q 315 940 361 960 q 260 897 280 926 q 226 820 243 873 q 208 764 221 805 q 198 732 202 745 q 186 695 192 712 q 115 508 155 601 q -14 55 24 293 l -15 51 l -16 45 q -16 32 -16 39 q -9 -4 -16 13 q 51 -60 7 -39 q 130 -77 88 -77 q 223 -55 178 -78 q 292 11 271 -31 q 312 205 303 33 q 327 284 315 270 q 410 321 353 318 q 500 293 467 325 q 523 229 519 275 l 524 218 l 525 208 q 528 182 526 194 q 547 117 534 150 q 613 11 578 34 q 729 -8 659 -19 q 836 49 800 3 q 852 134 862 84 q 803 256 844 172 l 794 275 l 785 295 q 764 338 773 319 q 720 439 739 391 q 630 708 666 569 l 627 722 z "},"B":{"ha":745,"x_min":35,"x_max":736,"o":"m 376 225 q 334 226 355 219 q 331 416 323 322 q 362 418 339 418 q 412 414 388 418 q 480 374 479 404 q 450 283 482 329 q 376 225 417 237 m 276 758 q 307 763 284 766 q 353 748 330 760 q 416 670 415 719 q 393 612 416 641 q 344 574 373 587 l 340 572 l 336 570 q 326 567 330 568 q 308 568 315 564 q 296 595 297 572 q 296 606 296 600 l 296 618 q 296 647 297 635 q 290 694 295 671 q 285 712 288 703 q 279 726 283 718 q 276 758 269 753 m 694 423 q 597 522 660 485 q 650 673 643 590 q 634 804 656 743 q 546 898 613 862 q 488 922 521 911 q 459 931 475 926 l 446 935 l 433 939 q 208 952 321 968 q 48 862 81 933 q 47 771 35 834 l 48 764 l 50 755 q 52 738 51 746 q 58 696 56 717 q 65 579 65 642 q 64 521 66 549 l 63 509 l 62 496 q 61 467 62 481 l 60 435 l 60 403 q 59 335 59 366 q 67 199 60 257 q 159 6 87 47 q 239 -4 171 -1 q 396 -2 317 -9 q 684 119 625 18 q 728 259 722 182 q 694 423 736 349 z "},"C":{"ha":730,"x_min":19,"x_max":733,"o":"m 397 665 q 496 645 434 673 q 546 627 526 631 q 610 626 577 620 l 613 627 l 617 627 q 627 629 623 628 q 652 637 641 633 q 705 677 686 652 q 728 774 733 715 q 696 868 724 828 q 604 932 665 910 q 468 952 544 954 q 182 850 300 948 q 60 667 99 781 q 37 578 45 626 q 31 541 34 561 q 29 525 31 534 l 28 517 l 28 510 l 26 502 l 26 492 q 24 473 24 482 q 21 429 22 450 q 26 323 19 372 q 132 102 45 189 q 355 -4 220 14 q 446 -8 399 -10 q 479 -5 463 -7 q 490 -4 484 -5 l 494 -3 l 498 -3 l 510 -1 l 523 1 q 549 5 537 3 q 605 22 581 12 q 696 98 669 47 q 712 215 723 151 q 663 297 701 279 q 628 299 648 304 q 587 281 616 296 q 563 269 572 274 q 534 258 548 262 q 458 243 498 245 l 452 242 l 444 241 q 427 241 435 241 q 389 243 406 241 q 308 275 341 250 q 247 380 261 311 q 250 499 235 440 q 302 603 265 557 q 397 665 345 655 z "},"D":{"ha":750,"x_min":28,"x_max":724,"o":"m 469 349 q 431 281 454 300 q 393 260 414 266 q 355 266 369 254 q 344 290 346 274 q 346 330 342 302 l 347 342 l 349 356 q 351 387 351 374 q 353 465 355 427 q 347 538 352 500 q 342 568 345 551 l 340 581 l 338 593 q 345 658 330 642 q 382 669 358 672 q 399 666 391 669 q 406 664 403 665 l 408 663 l 409 663 q 454 621 435 652 q 467 595 461 610 q 473 583 470 589 l 475 577 l 476 572 q 490 441 498 512 q 480 389 487 416 q 474 367 477 378 l 471 357 l 469 349 m 654 755 q 429 926 587 884 q 295 950 377 941 l 262 954 l 230 958 q 170 966 193 962 q 133 971 146 970 q 96 972 112 973 q 41 945 58 970 q 30 916 33 933 q 28 904 29 910 l 28 899 l 28 895 q 77 700 28 846 q 77 596 77 665 l 77 568 l 77 540 q 77 481 77 507 q 28 22 76 163 l 28 16 l 29 9 q 31 -8 29 -1 q 45 -44 35 -30 q 114 -69 66 -71 q 235 -49 141 -68 q 505 30 437 -8 q 680 268 626 98 l 680 269 l 680 270 l 681 273 q 684 284 682 278 q 692 319 688 301 q 710 436 705 377 q 654 755 724 621 z "},"E":{"ha":656,"x_min":31,"x_max":650,"o":"m 311 732 q 314 734 313 734 l 311 732 m 102 802 q 110 822 106 814 q 121 842 115 833 q 153 881 134 865 l 172 896 q 191 911 183 905 q 239 938 214 928 q 422 951 306 964 q 574 932 573 932 q 629 901 614 924 q 642 815 650 867 q 602 742 633 764 q 554 732 582 729 q 528 738 543 734 l 513 742 l 499 746 q 436 759 461 758 q 365 747 399 762 q 326 722 342 737 q 315 710 319 716 q 311 705 313 708 q 309 701 310 703 q 290 624 287 668 q 316 562 292 581 q 353 557 328 553 q 368 559 357 557 l 376 560 l 386 562 q 437 567 411 566 q 514 571 494 572 q 557 557 543 569 q 586 475 587 531 q 555 395 585 419 q 509 386 541 384 l 500 387 l 492 387 q 470 389 479 388 q 410 387 441 389 q 329 375 357 384 q 313 368 319 372 q 309 364 311 366 l 307 363 l 306 362 q 279 296 282 338 q 298 231 277 255 q 337 212 311 216 q 431 208 355 210 q 574 200 543 204 q 611 185 603 196 q 614 101 632 157 q 552 13 595 44 q 500 -7 528 -5 q 441 1 481 -7 l 432 2 l 422 4 q 402 8 411 7 q 355 16 378 13 q 227 20 294 23 q 201 19 216 20 l 189 18 l 176 17 q 134 16 150 16 q 70 41 93 18 q 33 155 35 73 q 33 292 31 215 q 42 471 35 385 q 102 802 60 694 z "},"F":{"ha":619,"x_min":41,"x_max":632,"o":"m 611 887 q 559 918 597 910 q 414 937 558 918 q 232 928 302 952 q 179 902 204 918 q 159 886 170 895 q 141 871 152 881 q 110 831 122 855 q 100 810 104 822 q 92 789 96 802 q 45 443 53 681 q 42 256 41 358 q 43 176 43 218 q 44 142 43 160 l 45 126 l 45 112 q 80 -7 47 27 q 142 -32 102 -30 q 182 -31 156 -33 l 193 -30 l 205 -29 q 230 -28 219 -28 l 230 -28 q 277 -9 258 -26 q 303 59 309 19 q 297 121 300 83 q 293 205 294 165 q 304 327 290 311 l 305 328 l 307 330 q 311 333 309 331 q 326 340 317 337 q 403 353 353 350 q 460 354 433 355 q 481 353 469 354 l 490 353 l 497 352 q 541 361 528 350 q 570 444 570 387 q 543 530 572 503 q 502 543 530 542 q 429 540 483 545 q 380 534 404 538 l 372 532 l 363 531 q 349 529 353 530 q 314 534 326 525 q 289 599 291 553 q 307 679 287 644 q 309 683 308 681 q 313 688 311 686 q 323 701 317 694 q 361 726 338 716 q 429 739 393 741 q 488 726 452 737 l 502 721 l 515 717 q 540 711 530 713 q 585 721 567 708 q 624 797 616 743 q 611 887 632 850 z "},"G":{"ha":791,"x_min":-4,"x_max":750,"o":"m 720 374 q 726 428 722 399 l 727 439 l 729 448 q 731 466 730 460 q 720 516 735 498 q 679 535 708 530 q 546 544 644 542 q 372 539 420 547 q 323 516 336 534 q 313 473 312 498 q 316 453 314 463 q 318 446 317 450 l 319 442 l 320 439 q 345 392 328 413 q 394 359 367 366 q 436 361 414 355 q 473 376 450 365 l 481 380 l 488 385 q 503 391 497 389 q 528 391 518 397 q 538 358 539 384 q 536 330 538 348 q 534 313 535 324 l 531 295 q 447 278 490 281 l 439 277 l 431 277 q 414 276 422 277 q 375 278 393 276 q 292 309 326 284 q 230 410 244 344 q 233 523 218 467 q 286 622 248 578 q 384 682 330 672 q 485 662 421 689 q 536 645 516 649 q 602 644 568 638 l 605 644 l 610 646 q 620 648 615 646 q 646 655 633 650 q 699 692 680 669 q 724 785 728 729 q 690 876 719 838 q 595 937 659 916 q 456 956 534 958 q 163 858 284 952 q 37 684 77 791 q 14 599 23 644 q 8 563 11 582 q 6 547 7 555 l 5 540 l 5 533 l 4 526 l 3 517 q 1 498 1 507 q -2 456 -1 475 q 3 355 -4 401 q 111 143 22 226 q 340 42 202 59 q 434 38 386 36 q 467 41 451 39 q 479 42 473 41 l 484 43 l 487 43 q 510 46 501 45 q 535 50 524 48 q 546 37 541 42 q 600 7 567 15 q 661 9 633 -1 q 705 43 687 18 q 719 65 713 53 l 724 75 q 728 85 725 79 q 736 211 750 138 l 733 227 l 730 243 q 724 280 726 264 q 720 374 718 326 z "},"H":{"ha":827,"x_min":28,"x_max":840,"o":"m 317 563 q 296 595 300 572 q 295 651 292 612 l 296 669 l 297 689 q 298 732 298 713 q 292 839 299 788 q 254 928 281 909 q 155 946 217 954 q 58 906 93 939 q 30 840 33 881 q 37 749 28 818 q 64 275 64 528 q 60 147 64 217 l 58 134 l 58 121 q 56 98 57 106 q 55 58 55 73 q 61 -2 54 20 q 90 -43 69 -26 q 236 -76 144 -87 q 366 -14 326 -66 q 382 62 385 11 q 363 201 380 98 q 347 283 356 243 q 344 297 346 289 l 342 303 l 341 309 q 337 328 338 321 q 350 376 332 353 q 435 425 377 412 q 519 414 492 436 q 532 354 536 399 q 526 298 531 341 q 522 263 524 277 q 517 221 519 241 q 513 184 516 203 l 511 168 l 510 155 q 505 113 505 124 q 532 54 505 83 q 617 9 564 20 q 653 3 635 5 q 665 3 659 3 l 669 3 l 673 3 l 673 3 l 674 3 q 678 3 676 3 q 691 5 684 4 q 732 13 712 7 q 817 70 791 31 q 823 166 840 106 q 802 227 818 185 l 796 245 l 789 263 q 776 303 782 284 q 734 572 754 374 q 725 727 726 646 q 725 758 725 741 l 725 773 l 725 787 q 725 837 725 820 q 713 913 723 886 q 673 966 702 945 l 671 968 l 669 970 q 661 975 665 972 q 639 986 650 981 q 570 999 604 1002 q 498 975 533 997 q 446 926 465 954 q 428 829 420 886 q 457 728 433 791 l 467 705 q 476 682 473 690 q 489 641 486 657 q 477 583 498 600 q 418 564 464 573 l 407 562 l 394 559 q 367 556 379 557 q 317 563 334 554 z "},"I":{"ha":391,"x_min":0,"x_max":363,"o":"m 308 500 q 332 658 316 575 q 338 690 335 672 l 342 705 l 345 720 q 355 771 351 753 q 359 852 363 822 q 328 916 354 888 l 327 918 l 324 920 q 317 926 321 924 q 296 943 308 936 q 227 970 263 965 q 123 941 170 978 q 79 870 81 908 q 30 254 44 308 q 4 136 7 170 q 24 57 0 88 q 95 7 47 24 q 127 -2 111 1 q 139 -4 134 -3 l 143 -5 l 146 -5 l 146 -5 l 147 -5 l 151 -5 q 163 -6 157 -6 q 202 -4 183 -7 q 291 32 260 2 q 315 114 319 60 q 307 171 313 132 l 304 187 l 302 204 q 296 241 298 224 q 308 500 289 309 z "},"J":{"ha":568,"x_min":-36,"x_max":526,"o":"m 190 192 q 250 197 222 184 q 295 286 287 215 q 297 348 298 313 q 296 378 297 362 q 294 406 295 390 q 271 622 286 513 q 265 663 269 641 l 262 682 l 260 701 q 251 764 254 744 q 248 852 243 823 q 275 910 252 887 q 373 955 311 947 q 472 936 434 962 q 503 885 493 922 q 519 732 513 844 q 526 573 524 652 q 526 514 526 544 l 526 490 q 526 471 526 482 q 505 177 525 223 l 501 168 l 496 159 q 486 138 491 147 q 456 89 472 111 q 343 1 410 28 q 191 -15 272 -28 q 59 40 115 -3 l 56 41 l 54 43 l 47 48 q 33 60 40 54 q 1 93 14 77 q -23 182 -36 140 q 32 244 -12 220 q 108 257 75 268 q 130 243 119 253 q 138 234 133 239 l 145 224 q 190 192 166 198 z "},"K":{"ha":764,"x_min":41,"x_max":796,"o":"m 80 926 q 58 848 58 894 q 60 807 58 831 l 63 787 l 66 766 q 63 313 80 662 q 52 175 60 249 l 51 161 l 50 148 q 47 123 48 131 q 43 81 45 98 q 47 20 41 42 q 71 -22 52 -5 q 161 -58 106 -54 q 254 -33 218 -62 l 256 -32 l 258 -31 q 262 -26 260 -28 q 274 -11 269 -20 q 299 57 290 16 q 304 165 311 109 q 297 213 302 188 q 287 256 294 231 q 273 325 274 309 q 286 369 269 355 q 310 379 295 377 q 333 377 322 380 q 374 328 359 370 q 387 287 380 313 l 392 264 l 398 239 q 446 75 427 121 q 522 -31 475 3 q 601 -63 557 -56 q 690 -56 648 -71 l 694 -55 l 698 -53 q 708 -49 703 -51 q 731 -37 721 -43 q 772 9 762 -18 q 715 182 796 71 q 646 264 686 220 q 614 296 631 279 q 600 310 608 303 l 594 316 l 589 321 q 561 348 576 333 l 547 361 l 533 374 q 485 420 500 404 q 448 501 439 469 q 458 519 451 511 q 463 525 460 522 l 466 527 l 468 529 q 650 698 609 654 q 713 813 711 765 q 694 879 714 846 q 648 923 675 907 q 543 932 604 947 q 443 875 484 917 q 388 764 413 844 q 363 699 375 725 q 313 625 344 660 l 311 623 l 309 620 q 304 614 307 616 q 290 600 296 606 q 266 588 273 585 q 263 609 260 591 q 274 655 264 617 q 282 687 279 673 q 290 724 287 706 q 299 810 298 768 l 300 837 l 300 863 q 297 912 300 892 q 260 983 290 963 q 166 988 223 1007 q 80 926 110 969 z "},"L":{"ha":648,"x_min":41,"x_max":656,"o":"m 53 722 q 58 534 54 628 q 60 475 59 504 q 61 456 61 465 q 62 450 62 453 l 62 448 l 62 446 q 60 257 66 350 q 54 186 58 224 q 51 155 53 174 l 49 140 l 47 127 q 45 43 41 68 q 73 -10 50 9 q 136 -22 94 -26 l 149 -21 l 162 -20 q 196 -18 180 -18 q 294 -16 242 -15 q 414 -24 354 -17 q 459 -29 433 -26 l 469 -31 l 478 -31 q 495 -33 488 -33 q 593 -16 562 -41 q 646 81 635 18 q 627 184 656 144 q 543 230 603 218 q 492 236 522 235 q 467 237 481 237 l 445 237 q 387 233 416 237 q 365 230 378 232 l 355 228 l 345 227 q 291 234 307 220 q 272 286 273 249 q 282 382 271 313 q 305 509 293 448 q 315 555 309 530 l 319 576 l 323 595 q 343 730 341 676 l 345 765 l 345 800 q 341 867 345 838 q 288 965 330 938 q 183 979 245 993 q 85 924 121 966 q 56 855 62 898 q 53 722 51 820 z "},"M":{"ha":1096,"x_min":9,"x_max":1108,"o":"m 169 899 q 125 825 134 879 q 117 753 123 810 q 111 705 114 726 q 103 646 108 675 q 72 494 92 574 l 64 461 l 56 430 q 41 370 45 392 q 21 109 9 237 q 45 -7 28 33 q 98 -67 64 -50 q 201 -70 142 -89 q 295 -10 258 -52 q 336 87 329 28 q 338 146 338 111 q 337 179 338 159 l 336 196 l 336 214 q 345 496 332 365 q 355 574 349 541 q 358 594 357 587 q 360 601 359 601 q 368 507 360 601 q 376 404 372 454 q 392 275 383 338 q 434 70 412 131 q 498 -12 456 11 q 583 -29 536 -33 q 661 -1 629 -26 q 704 87 696 28 q 707 141 707 110 l 706 168 l 705 193 q 730 497 701 353 q 753 583 741 547 q 767 612 764 613 q 783 500 772 612 q 800 212 794 372 q 808 98 802 127 q 850 18 819 46 q 959 -20 893 -20 q 1065 14 1024 -22 q 1107 122 1106 48 q 1087 296 1108 172 q 989 765 1027 646 q 956 840 972 817 q 924 867 943 857 q 802 891 870 893 q 692 861 736 888 q 619 762 644 832 q 587 613 604 720 q 581 564 584 591 q 578 542 580 554 l 578 532 l 577 523 q 569 484 573 484 q 564 526 565 484 l 564 536 l 564 547 q 564 572 564 560 q 559 627 562 602 q 530 749 552 697 q 454 856 503 817 q 309 916 394 903 q 169 899 221 930 z "},"N":{"ha":806,"x_min":19,"x_max":760,"o":"m 75 720 q 71 119 19 348 q 77 94 74 104 q 87 67 81 79 q 127 27 102 38 q 226 33 168 9 q 315 100 284 56 q 333 174 334 129 q 329 233 332 189 q 326 273 327 257 q 323 322 324 298 l 322 336 l 321 352 l 321 385 q 319 450 319 423 q 332 525 320 523 q 390 433 350 528 q 454 210 435 328 q 458 185 456 200 l 460 174 l 461 162 q 469 122 465 136 q 507 65 479 83 q 596 45 542 43 q 689 73 650 47 q 722 112 712 89 q 735 176 732 134 q 738 222 736 193 q 739 250 738 231 l 739 264 l 740 281 q 749 444 743 368 l 750 446 l 750 448 q 751 455 750 452 q 752 475 751 465 q 755 543 754 507 q 758 762 760 652 q 750 863 757 834 q 715 916 741 901 q 628 922 681 935 q 545 877 575 910 q 522 801 522 852 q 524 730 522 784 q 526 681 526 701 q 528 621 527 650 q 526 509 529 542 q 522 491 524 496 q 519 486 521 487 q 511 519 515 486 l 510 527 l 509 535 q 506 555 507 546 q 497 600 503 578 q 461 705 484 658 q 384 808 431 766 q 262 883 330 857 q 140 888 187 911 q 98 836 111 875 q 75 720 88 807 z "},"O":{"ha":904,"x_min":-24,"x_max":909,"o":"m 593 522 q 526 368 587 429 q 401 333 465 308 q 330 404 358 350 q 302 516 302 456 q 370 687 301 616 q 435 730 401 720 q 505 726 473 741 q 572 645 547 705 q 593 522 597 586 m 669 910 q 465 941 578 955 q 258 867 361 927 q 88 720 158 808 q -5 532 15 629 q 6 342 -24 439 q 32 277 16 309 q 43 254 37 265 q 53 238 48 245 q 240 64 121 127 q 512 19 372 -5 q 789 205 682 48 q 848 316 824 256 q 863 355 857 336 q 867 368 865 361 l 868 372 l 869 376 q 857 682 909 529 q 669 910 801 846 z "},"P":{"ha":673,"x_min":35,"x_max":692,"o":"m 290 767 q 322 773 298 775 q 372 760 346 771 q 441 680 437 732 q 422 618 444 649 q 374 574 403 589 l 370 572 l 366 570 q 356 566 361 568 q 337 566 345 563 q 323 595 326 571 q 322 606 323 600 l 321 619 q 319 650 321 637 q 309 699 316 676 q 302 718 307 709 q 296 733 300 724 q 290 767 284 761 m 658 832 q 560 928 632 893 q 498 951 533 941 q 468 959 484 955 l 454 962 l 440 965 q 206 969 322 991 q 47 866 76 943 q 52 770 35 836 l 54 762 l 56 753 q 60 734 58 743 q 70 690 66 712 q 85 567 80 633 q 88 505 87 535 l 88 492 l 88 479 q 89 447 89 463 l 90 414 l 92 380 q 96 308 94 340 q 115 164 102 225 q 224 -36 146 4 q 347 -42 278 -64 q 432 24 414 -21 q 431 67 438 41 q 398 172 428 80 q 376 340 371 252 q 498 403 410 349 q 559 443 531 423 q 592 468 587 462 q 682 661 670 551 q 658 832 692 752 z "},"Q":{"ha":1040,"x_min":19,"x_max":1049,"o":"m 493 212 q 402 278 444 223 q 352 398 362 332 q 387 570 336 494 q 510 637 437 647 q 602 582 559 629 q 659 475 644 536 q 627 284 683 374 q 567 225 602 244 q 493 212 530 204 m 970 123 q 929 121 952 130 q 908 111 920 118 l 897 105 l 886 98 q 836 75 857 81 q 777 73 806 66 q 736 88 768 75 q 918 292 849 172 q 986 534 988 416 q 930 724 985 632 q 888 784 912 755 q 870 805 879 795 q 857 819 863 812 q 618 949 758 914 q 319 928 461 987 q 69 671 146 857 q 33 545 45 611 q 27 501 29 522 q 26 487 26 494 l 26 482 l 26 479 q 111 170 19 313 q 362 -16 208 18 q 576 1 465 -37 q 701 -92 610 -55 q 879 -125 789 -127 l 897 -124 l 915 -123 q 951 -118 936 -121 q 1014 -81 993 -109 q 1031 37 1049 -36 q 970 123 1015 108 z "},"R":{"ha":870,"x_min":28,"x_max":964,"o":"m 488 512 q 452 450 484 479 q 387 415 422 425 l 381 414 l 376 412 q 364 410 369 411 q 342 414 350 410 q 333 448 330 422 q 334 460 334 453 l 337 475 q 342 507 340 494 q 342 562 345 536 q 339 583 341 572 q 336 601 338 591 q 336 638 328 633 q 374 637 347 645 q 427 612 401 630 q 488 512 496 568 m 864 37 q 832 43 850 43 q 818 42 825 43 l 804 40 q 758 48 770 36 q 751 85 748 59 q 753 98 752 89 l 755 105 l 756 113 q 760 151 759 134 l 761 160 l 762 169 q 762 189 762 180 q 760 236 762 215 q 724 326 752 294 q 686 353 709 342 q 647 368 670 361 l 637 371 l 629 373 q 615 378 621 376 q 604 389 603 382 q 618 403 604 396 q 632 408 623 405 l 638 410 l 644 412 q 755 522 711 437 q 783 682 800 606 q 698 801 768 750 q 634 838 671 820 q 603 852 621 845 l 589 859 l 574 865 q 317 919 450 918 q 118 848 168 920 q 101 748 98 819 l 102 739 l 102 730 q 102 711 102 720 q 102 663 103 686 q 92 534 101 603 q 80 469 86 500 l 77 456 l 75 443 q 68 410 71 427 l 62 376 l 56 340 q 43 266 48 299 q 31 115 31 180 q 104 -113 28 -56 q 239 -146 158 -154 q 348 -96 319 -140 q 357 -52 359 -81 q 345 62 357 -39 q 337 223 330 182 q 346 245 340 239 q 351 250 347 248 l 356 254 q 400 262 372 267 q 455 237 430 258 q 507 47 522 179 q 515 -91 498 -33 q 532 -136 521 -114 q 553 -170 540 -151 q 669 -241 588 -222 q 726 -248 696 -247 q 745 -249 735 -249 q 751 -249 749 -249 l 756 -249 l 764 -248 l 772 -248 q 793 -245 783 -247 q 846 -235 822 -242 q 938 -163 914 -214 q 937 -43 964 -109 q 864 37 912 18 z "},"S":{"ha":821,"x_min":19,"x_max":821,"o":"m 811 127 q 662 -7 784 42 q 572 -35 621 -23 q 537 -41 555 -39 q 524 -44 530 -43 l 518 -45 l 514 -45 q 268 -38 389 -64 q 69 84 121 -5 q 64 99 66 88 q 59 125 60 112 q 71 184 55 163 q 153 217 94 216 q 273 201 197 218 l 303 193 l 334 186 q 389 173 370 177 q 466 171 448 161 q 515 221 497 186 q 524 279 532 255 q 483 309 515 300 q 384 324 458 315 q 303 332 345 328 q 270 336 288 334 l 254 338 l 239 339 q 153 349 176 345 q 75 378 98 356 q 22 504 29 419 q 21 564 19 532 q 22 586 22 575 q 24 594 23 590 l 24 597 l 24 600 q 136 810 40 718 q 205 866 168 840 q 232 882 219 875 q 241 887 237 885 l 245 889 l 248 890 q 481 939 358 947 q 691 846 614 930 q 763 717 742 791 q 755 604 785 640 q 683 581 733 578 q 595 606 635 582 q 547 647 567 621 q 530 670 538 657 l 524 682 l 517 694 q 490 734 500 723 q 450 759 473 753 q 386 751 419 766 q 336 713 357 738 q 299 622 303 675 q 320 539 295 569 q 387 521 339 517 l 398 522 l 410 523 q 439 524 426 524 q 509 520 475 525 l 513 519 l 517 519 q 528 517 523 518 q 552 512 541 515 q 615 494 585 505 q 752 395 700 460 q 755 391 753 393 l 758 387 q 767 374 763 380 q 788 338 779 357 q 820 224 815 283 l 820 222 l 820 219 q 821 211 821 215 q 821 187 821 199 q 811 127 819 153 z "},"T":{"ha":786,"x_min":6,"x_max":839,"o":"m 748 994 q 656 980 711 996 l 634 973 l 612 966 q 570 953 585 957 q 382 890 526 928 q 165 856 222 847 q 100 852 125 855 q 50 836 64 847 q 12 707 6 803 q 69 589 18 600 q 143 601 95 583 l 163 609 l 183 617 q 220 632 208 628 q 235 638 226 635 l 243 641 l 250 644 q 273 650 264 648 q 300 629 293 652 q 296 410 306 606 q 286 251 292 335 q 277 127 281 176 q 304 -21 270 39 q 395 -92 336 -79 q 465 -97 446 -103 q 486 -87 473 -95 l 492 -84 l 500 -80 q 517 -71 509 -75 q 578 22 557 -53 q 591 165 599 92 q 572 275 588 193 l 568 294 l 564 312 q 556 351 559 337 q 541 431 547 397 q 524 669 503 635 q 594 709 547 706 q 640 709 610 711 l 665 706 q 690 705 680 705 q 774 712 755 702 q 821 802 806 729 q 822 935 839 886 q 748 994 804 989 z "},"U":{"ha":799,"x_min":19,"x_max":753,"o":"m 46 581 q 54 646 50 617 q 77 766 65 718 q 171 905 110 890 q 248 890 206 913 q 308 830 286 867 q 320 718 333 789 q 313 683 317 706 l 308 663 l 304 642 q 287 539 292 588 l 287 538 l 287 535 l 286 530 q 285 515 286 522 q 282 470 283 492 q 292 358 281 405 q 461 288 325 216 q 494 372 488 302 q 475 635 503 463 q 452 751 465 692 q 447 773 450 761 l 444 783 l 442 793 q 435 827 437 815 q 443 911 423 884 q 573 960 481 962 q 718 903 667 958 q 749 825 744 873 q 749 692 753 793 q 734 292 736 321 q 704 181 728 217 q 524 35 640 85 q 448 9 486 19 q 422 4 435 6 q 415 3 418 3 l 412 3 l 411 2 l 409 2 l 406 2 q 397 1 402 1 q 368 0 383 0 q 276 7 320 0 q 68 125 137 32 q 22 275 24 183 q 39 515 19 337 l 46 581 z "},"V":{"ha":707,"x_min":14,"x_max":757,"o":"m 230 79 q 125 301 163 163 q 94 440 111 356 q 79 517 88 468 l 75 538 l 71 558 q 63 601 67 583 q 22 830 24 809 q 44 922 14 896 q 153 950 83 956 q 260 903 222 944 q 289 825 287 876 q 288 767 289 809 q 288 732 288 745 q 288 690 288 710 q 313 467 290 574 q 353 366 335 366 q 399 487 374 366 q 435 747 426 609 q 437 785 436 764 l 438 802 l 439 817 q 442 869 440 852 q 473 933 448 913 q 616 949 524 972 q 741 862 709 925 q 743 784 757 830 q 686 642 739 769 q 659 572 674 612 l 632 505 q 576 370 599 421 q 431 97 510 216 q 422 85 426 90 q 413 71 418 77 q 389 45 401 56 q 326 15 358 16 q 271 35 299 14 q 230 79 252 50 z "},"W":{"ha":1167,"x_min":14,"x_max":1217,"o":"m 258 78 q 226 80 241 79 q 224 81 226 80 q 258 80 240 81 l 258 78 m 1200 876 q 1068 970 1166 945 q 985 977 1025 981 q 917 953 943 973 q 884 884 890 932 q 880 828 882 866 l 880 811 l 878 793 q 876 752 878 770 q 839 473 867 604 q 790 342 812 342 q 780 410 785 342 l 779 427 l 778 444 q 775 481 777 464 q 766 561 771 525 q 723 713 751 659 q 626 784 686 783 q 419 566 479 788 q 401 484 409 528 q 394 446 397 466 q 389 412 392 433 q 373 342 379 342 q 330 452 353 342 q 303 692 306 566 q 303 736 302 713 q 304 774 303 751 q 304 836 304 820 q 275 921 302 891 q 160 971 234 964 q 45 941 87 978 q 22 842 14 913 q 66 595 24 819 q 75 549 70 575 l 79 527 l 83 505 q 98 422 92 452 q 132 272 115 331 q 242 33 172 124 q 286 -14 265 2 q 344 -36 315 -37 q 411 -3 378 -35 q 435 25 423 8 q 446 39 441 32 q 454 52 450 45 q 519 199 478 88 l 528 221 l 536 242 q 551 282 545 269 q 576 345 567 326 q 593 272 583 321 l 597 250 l 601 228 q 609 182 606 200 q 659 33 632 68 q 703 -14 683 2 q 762 -36 732 -37 q 828 -3 795 -35 q 853 25 840 8 q 863 39 858 32 q 872 52 867 45 q 1026 346 956 180 q 1084 491 1050 401 l 1113 565 q 1142 640 1130 608 q 1202 792 1197 776 q 1200 876 1217 842 z "},"X":{"ha":1023,"x_min":12,"x_max":1025,"o":"m 336 485 q 289 601 342 540 q 172 705 255 640 l 140 730 q 111 753 123 743 q 61 799 79 779 q 36 884 17 848 q 75 919 47 903 q 125 939 98 932 q 244 930 178 951 q 288 912 266 923 q 302 905 295 909 l 308 902 l 310 901 l 312 900 q 430 779 382 859 q 463 713 448 749 q 475 683 469 699 l 479 669 l 484 657 l 489 642 l 493 629 q 500 608 498 614 q 515 588 508 588 q 532 608 524 588 q 540 632 534 616 l 542 639 l 545 646 q 549 663 547 656 q 581 743 564 707 q 635 840 604 795 q 693 907 666 884 q 713 921 703 916 q 728 927 720 924 q 882 930 795 951 q 996 859 968 907 q 972 738 1025 810 q 923 681 954 711 q 897 655 911 669 l 884 644 l 872 633 q 784 566 834 600 q 743 539 767 554 l 734 533 l 724 528 q 707 516 713 520 q 654 477 668 492 q 640 441 635 458 q 661 417 644 428 q 677 408 668 413 l 696 399 q 915 222 829 336 q 991 14 1002 109 l 989 5 l 988 -5 q 983 -25 986 -16 q 954 -61 973 -47 q 813 -77 905 -92 q 661 -13 720 -62 q 590 88 618 21 q 532 264 571 132 l 529 279 l 525 292 q 517 314 521 306 q 498 336 509 336 q 468 290 486 336 l 463 278 l 458 265 q 447 236 452 248 q 417 168 432 199 q 348 41 370 72 q 265 -22 314 -5 q 145 -30 211 -40 q 44 16 78 -19 q 20 58 26 34 q 23 135 12 90 q 92 255 40 201 q 193 336 125 291 l 219 353 l 244 370 q 288 404 271 388 q 336 485 332 442 z "},"Y":{"ha":831,"x_min":12,"x_max":847,"o":"m 808 925 q 671 977 774 963 q 515 968 571 991 q 490 950 498 960 q 471 895 474 928 q 471 871 470 884 q 471 861 471 866 l 472 858 l 473 855 q 460 642 484 777 q 409 503 435 506 q 375 535 397 502 q 336 618 354 569 q 311 821 290 743 l 313 824 l 313 829 q 315 838 315 833 q 318 865 318 852 q 305 928 320 901 q 281 949 298 940 q 163 978 239 974 q 43 960 86 981 q 19 905 12 945 q 64 767 21 892 q 118 646 77 730 q 155 571 130 621 l 176 532 l 195 492 q 281 260 291 294 q 244 104 250 146 q 256 7 235 39 q 320 -31 275 -19 q 413 -38 362 -42 q 505 -15 465 -34 q 566 37 549 5 q 564 113 581 64 l 561 124 l 556 137 q 547 167 550 153 q 528 248 534 206 q 608 524 513 341 q 687 660 642 590 q 749 750 721 712 q 808 925 847 882 z "},"Z":{"ha":743,"x_min":12,"x_max":725,"o":"m 47 701 l 52 682 q 62 646 56 661 q 103 594 77 606 q 144 591 121 585 q 197 611 162 595 l 205 614 l 214 618 q 231 627 224 624 q 273 646 254 637 q 382 684 326 668 q 450 699 430 698 q 461 699 458 700 l 464 697 l 465 696 q 398 622 471 685 l 390 614 l 380 606 q 361 589 369 596 q 317 551 336 568 q 217 456 263 503 q 35 216 81 317 q 14 152 18 181 q 12 132 12 141 q 12 123 12 127 l 13 117 l 14 114 l 14 109 q 16 98 15 103 q 24 67 19 81 q 68 3 39 26 q 127 -18 94 -17 q 198 -7 151 -18 l 209 -5 l 219 -3 l 241 3 q 292 12 269 9 q 418 19 355 22 q 498 10 456 18 l 515 7 l 531 5 q 559 0 549 1 q 649 15 616 -9 q 697 79 680 37 q 709 115 703 95 q 713 133 711 123 l 714 141 l 716 149 q 723 205 721 175 q 722 272 725 241 q 673 374 713 351 q 593 373 642 391 q 503 326 557 361 l 481 313 l 471 306 l 460 299 q 423 277 437 284 q 374 267 386 256 q 382 331 361 280 q 403 372 391 349 q 413 390 408 380 l 417 398 l 421 405 q 511 532 460 472 q 554 581 530 555 q 574 603 562 589 l 584 613 l 594 623 q 696 802 681 718 l 699 816 l 701 830 q 703 858 703 846 q 688 913 703 890 q 550 970 656 964 q 276 952 481 972 q 128 926 174 941 q 68 885 88 912 q 39 791 41 848 q 40 749 38 771 q 43 732 41 741 l 43 726 l 45 720 l 47 701 z "},"[":{"ha":668,"x_min":33,"x_max":558,"o":"m 256 798 q 265 814 256 801 q 277 828 269 819 q 319 825 279 831 q 362 821 360 819 q 387 850 380 843 q 396 883 399 862 q 381 920 394 903 q 366 933 375 928 q 251 963 319 960 q 231 964 244 963 q 210 964 217 964 q 121 945 183 965 q 104 939 112 942 q 59 901 75 932 q 58 838 43 868 q 67 818 63 829 q 76 798 72 808 q 107 307 130 644 q 100 279 104 293 q 60 171 85 222 q 47 146 54 159 q 37 123 43 135 q 35 83 33 115 q 41 64 37 73 q 51 49 45 56 q 243 0 94 3 q 412 0 339 -2 q 417 -1 416 0 q 422 -1 418 -1 q 548 69 530 10 q 468 155 558 104 q 305 186 315 174 q 279 454 285 213 q 256 798 222 693 z "},"\\":{"ha":661,"x_min":11,"x_max":625,"o":"m 225 456 q 355 180 328 256 q 370 138 362 161 l 376 118 l 382 100 q 403 35 396 54 q 458 -45 426 -26 q 534 -50 492 -65 q 561 -36 548 -44 q 568 -31 565 -33 l 571 -29 l 572 -28 l 572 -28 l 574 -26 l 576 -24 q 583 -18 579 -21 q 600 5 592 -7 q 624 87 623 42 q 599 181 625 130 q 527 298 582 216 q 202 947 491 351 q 139 1006 182 987 q 56 998 90 1028 q 23 941 35 977 q 17 915 19 928 q 15 905 16 909 l 15 901 l 14 899 q 24 818 11 859 q 66 731 36 783 q 97 680 77 713 l 106 665 l 115 650 q 134 618 125 632 q 225 456 184 534 z "},"]":{"ha":705,"x_min":25,"x_max":550,"o":"m 328 165 q 318 150 327 163 q 307 136 315 145 q 264 139 304 133 q 221 142 223 144 q 197 114 203 121 q 187 81 184 102 q 202 43 189 61 q 217 31 208 35 q 332 1 264 3 q 353 0 339 1 q 373 -1 366 -1 q 463 19 400 -1 q 479 24 471 22 q 524 63 509 31 q 526 125 540 96 q 516 146 520 135 q 507 166 511 155 q 476 657 453 320 q 483 685 479 671 q 523 793 498 742 q 536 817 529 805 q 547 840 541 829 q 548 880 550 848 q 543 900 546 891 q 532 915 538 908 q 340 964 490 960 q 172 964 244 966 q 166 964 168 964 q 161 964 165 964 q 35 895 53 954 q 115 808 25 859 q 278 777 268 790 q 304 510 298 751 q 328 165 361 271 z "},"^":{"ha":532,"x_min":68,"x_max":465,"o":"m 460 804 q 426 851 455 829 l 420 856 l 413 861 q 398 874 405 868 q 366 910 380 890 q 343 950 353 929 l 340 959 l 336 966 q 331 980 332 976 l 330 981 q 308 1016 326 1002 q 294 1025 302 1021 q 289 1027 292 1025 l 287 1027 l 286 1028 q 206 1021 252 1041 q 176 1005 191 1015 q 165 998 170 1002 q 161 996 163 997 q 159 994 160 994 q 93 897 114 958 q 70 778 81 859 q 68 748 68 760 q 79 720 71 731 q 103 705 88 709 q 132 704 118 700 q 163 729 149 709 q 170 739 165 732 l 173 745 l 177 751 q 198 781 188 768 q 235 821 216 804 q 250 833 241 826 l 257 839 l 264 844 q 298 768 282 808 q 304 753 301 762 l 307 747 l 310 740 q 319 718 316 725 q 356 677 336 682 q 411 696 382 673 q 429 713 420 703 q 435 720 432 716 q 437 722 435 720 l 437 722 l 437 722 l 439 724 l 440 726 q 445 733 443 730 q 454 751 450 742 q 460 804 465 779 z "},"_":{"ha":1150,"x_min":1,"x_max":1124,"o":"m 1006 -100 q 1067 -107 1047 -103 q 1096 -118 1084 -111 q 1124 -167 1124 -136 q 1097 -216 1124 -198 q 1037 -233 1076 -230 q 949 -232 1016 -234 q 446 -233 720 -224 q 297 -240 378 -235 l 281 -241 l 267 -242 q 240 -243 250 -243 q 193 -246 211 -245 q 120 -245 147 -248 q 64 -229 89 -241 q 1 -146 2 -200 q 15 -103 1 -123 q 59 -71 31 -82 q 150 -60 87 -60 q 319 -70 194 -61 q 665 -86 407 -76 l 713 -87 l 762 -90 q 854 -93 817 -92 q 1006 -100 954 -97 z "},"`":{"ha":694,"x_min":232,"x_max":483,"o":"m 480 728 q 458 707 476 713 q 420 705 439 700 q 382 726 409 707 q 286 803 317 774 q 239 855 243 842 q 238 896 232 876 q 262 926 244 917 q 302 928 279 934 q 319 924 310 927 q 325 921 321 922 l 328 920 l 329 919 q 361 894 346 911 q 414 829 372 883 q 471 755 463 767 q 480 728 483 738 z "},"a":{"ha":606,"x_min":-16,"x_max":572,"o":"m 377 220 l 376 227 q 372 241 374 235 q 355 269 367 258 q 309 288 337 286 q 258 277 281 290 q 214 227 227 262 q 217 165 202 193 q 292 125 237 128 q 368 150 345 122 q 379 183 378 163 q 379 200 380 191 l 378 208 l 378 214 l 377 220 m 507 -45 q 452 -38 484 -53 q 414 -1 421 -23 q 382 0 412 7 q 349 -9 372 -3 l 339 -12 l 329 -14 l 308 -20 q 214 -35 254 -33 q 123 -25 161 -39 q 60 22 89 -12 q 18 103 33 57 q 34 296 -16 210 q 123 382 65 349 q 242 413 183 417 q 289 402 266 411 q 308 394 298 399 q 324 385 315 391 q 351 372 344 375 q 370 374 363 368 q 384 408 382 382 q 375 463 385 433 q 312 543 353 534 q 279 534 296 545 q 263 523 272 530 l 254 516 l 246 509 q 207 481 223 490 q 154 467 181 467 q 106 475 128 467 q 73 501 80 484 q 94 568 61 528 q 165 629 123 604 q 322 673 233 671 q 484 627 418 675 q 556 497 540 585 q 571 260 568 439 l 571 250 l 572 239 l 572 218 q 572 171 572 192 q 566 75 571 115 q 507 -45 553 -32 z "},"b":{"ha":806,"x_min":28,"x_max":831,"o":"m 304 291 l 307 300 q 315 320 311 311 q 343 355 326 342 q 409 372 370 375 q 475 350 446 370 q 524 273 514 322 q 509 188 534 224 q 402 145 476 140 q 305 193 331 150 q 295 240 294 212 q 298 263 296 251 l 300 273 l 302 282 l 304 291 m 83 -54 q 158 -53 114 -68 q 215 -7 202 -37 q 260 -12 220 3 q 302 -30 272 -17 l 315 -35 l 328 -41 q 355 -52 342 -47 q 477 -90 425 -79 q 602 -92 549 -104 q 694 -37 650 -80 q 766 68 738 6 q 779 336 831 208 q 674 472 746 416 q 520 534 600 530 q 456 527 488 535 q 429 519 443 524 q 405 510 419 515 q 368 496 377 498 q 341 502 351 493 q 335 618 328 513 q 367 819 342 728 q 325 1004 406 967 q 250 1011 293 1019 q 179 981 210 1004 q 52 379 35 876 q 46 256 53 337 l 43 222 l 40 189 q 35 123 37 150 q 83 -54 28 -29 z "},"c":{"ha":654,"x_min":8,"x_max":632,"o":"m 494 726 q 573 688 543 710 q 625 613 617 656 q 614 538 632 576 q 564 485 596 498 q 506 487 538 475 q 448 518 486 494 l 420 536 q 391 549 404 545 q 333 552 359 562 q 272 471 292 536 q 262 425 265 450 q 260 407 260 416 q 259 400 259 404 l 259 397 l 258 395 q 274 274 254 332 q 338 195 296 208 q 378 198 357 190 q 397 208 387 201 l 416 220 q 459 242 442 236 q 512 247 486 251 q 574 219 547 241 q 610 168 604 196 q 568 71 619 122 q 461 1 522 23 q 222 18 352 -39 q 36 188 92 74 q 14 351 8 243 q 65 566 20 469 q 217 727 120 682 q 494 726 332 781 z "},"d":{"ha":715,"x_min":-30,"x_max":669,"o":"m 428 217 q 344 174 406 179 q 250 213 279 170 q 237 289 228 245 q 280 358 246 334 q 338 379 305 377 q 395 363 372 381 q 420 332 411 351 q 426 314 423 323 l 429 305 l 431 297 l 432 290 l 434 281 q 437 260 436 269 q 428 217 438 234 m 649 385 q 538 926 663 831 q 476 954 511 947 q 411 947 439 960 q 374 781 340 913 q 402 600 395 699 q 397 495 408 505 q 374 490 389 488 q 341 503 366 492 q 320 511 329 507 q 297 518 308 515 q 241 524 269 525 q 106 468 171 520 q 16 346 44 418 q 26 104 -30 231 q 89 11 51 50 q 169 -39 127 -28 q 278 -37 216 -50 q 385 -3 323 -28 q 408 7 395 1 l 420 12 l 431 17 q 468 33 457 28 q 507 37 503 46 q 557 -3 518 10 q 623 -5 595 -17 q 663 155 669 18 q 659 214 662 178 l 656 243 l 654 273 q 649 385 648 347 z "},"e":{"ha":676,"x_min":8,"x_max":654,"o":"m 368 541 q 419 514 406 532 q 415 471 435 495 q 197 401 387 438 q 273 511 214 467 q 368 541 328 550 m 407 185 q 281 193 340 166 q 229 258 223 218 q 302 304 234 290 q 334 311 315 307 l 351 313 l 369 317 q 439 332 412 324 q 581 418 520 355 q 641 581 654 493 q 498 688 627 669 q 253 667 390 703 q 73 517 139 637 q 12 258 12 406 q 24 180 8 224 q 150 46 56 92 q 353 1 254 -5 q 530 46 430 5 q 629 123 610 79 q 625 218 645 159 q 541 237 610 261 q 510 225 528 233 l 493 218 l 476 211 q 407 185 433 192 z "},"f":{"ha":567,"x_min":-5,"x_max":585,"o":"m 148 721 q 153 772 159 727 q 151 793 151 785 q 149 817 149 806 q 155 869 149 844 q 208 959 168 918 q 237 985 221 973 q 249 994 243 989 l 253 997 l 257 999 l 258 1000 l 260 1001 q 264 1004 262 1002 q 277 1010 270 1007 q 318 1027 297 1021 q 448 1036 384 1048 l 454 1034 l 462 1033 q 479 1028 471 1030 q 520 1013 503 1022 q 579 951 571 989 q 566 888 585 920 q 518 844 548 855 q 483 842 501 838 q 467 846 475 843 l 451 852 q 390 859 410 869 q 350 800 361 844 q 359 730 339 757 q 385 711 366 720 q 421 705 403 703 q 452 715 434 707 l 466 721 q 479 726 474 724 q 504 723 494 729 q 532 675 525 709 q 534 646 534 661 q 533 621 534 633 q 515 569 529 593 q 472 529 498 538 q 433 524 454 523 q 395 530 418 525 q 339 532 351 541 q 329 486 325 522 q 334 458 330 473 q 337 448 336 454 l 338 444 l 339 440 q 340 437 340 439 q 341 433 340 435 q 345 418 343 426 q 356 373 351 397 q 380 236 372 300 q 344 -25 406 34 q 280 -51 323 -44 q 193 -44 233 -58 q 116 142 85 -7 q 137 386 134 230 q 121 559 140 546 q 98 565 111 566 q 85 563 92 564 l 73 560 q 24 564 41 552 q -1 609 5 577 q 0 661 -5 634 q 23 713 6 689 q 68 745 43 741 q 94 743 81 747 q 115 732 102 739 q 148 721 140 716 z "},"g":{"ha":747,"x_min":-20,"x_max":712,"o":"m 465 320 l 463 311 q 457 292 460 300 q 433 258 449 271 q 374 237 410 237 q 313 255 340 237 q 263 324 275 279 q 272 405 251 370 q 368 451 300 452 q 458 412 433 451 q 471 368 470 395 q 469 347 471 358 l 468 337 l 466 329 l 465 320 m 648 657 q 579 652 618 668 q 529 606 539 635 q 488 608 526 596 q 448 622 477 612 l 437 626 l 425 630 q 399 640 411 635 q 286 668 334 661 q 172 662 219 677 q 90 605 128 648 q 31 503 53 562 q 35 250 -20 367 q 138 128 69 177 q 282 79 209 78 q 340 90 311 80 q 365 98 352 93 q 386 109 373 102 q 419 123 411 121 q 444 120 435 127 q 457 74 458 109 q 442 3 456 41 q 407 -63 429 -37 q 358 -96 383 -93 q 317 -83 338 -99 q 298 -66 309 -77 l 289 -57 l 279 -47 q 233 -7 253 -20 q 169 16 203 13 q 109 9 138 18 q 66 -22 76 -1 q 87 -112 50 -56 q 169 -198 119 -161 q 359 -269 250 -258 q 562 -221 477 -279 q 663 -57 635 -171 q 701 252 682 19 l 702 265 l 703 279 l 705 308 q 709 369 707 341 q 709 494 712 441 q 648 657 702 635 z "},"h":{"ha":785,"x_min":35,"x_max":768,"o":"m 106 3 q 66 724 35 309 q 90 947 79 897 q 136 1023 103 1009 q 238 1010 179 1041 q 317 927 297 978 q 321 878 323 910 q 314 825 319 869 q 309 786 311 804 q 304 736 307 762 q 304 613 291 618 q 325 628 311 611 l 331 636 l 338 646 q 356 665 348 657 q 457 720 395 703 q 556 725 512 734 q 688 585 637 707 q 722 479 707 540 q 734 430 728 457 q 739 407 736 420 l 741 397 l 743 387 l 744 378 l 746 370 q 749 349 748 359 q 758 298 754 323 q 767 179 767 233 q 693 -18 768 24 q 597 -33 652 -42 q 515 9 542 -25 q 500 54 501 28 q 508 109 500 71 l 511 125 l 515 144 q 521 184 519 165 q 523 286 527 234 l 522 297 l 521 309 q 518 336 519 323 q 507 392 514 368 q 449 473 489 457 q 388 474 422 484 q 335 440 356 464 q 311 376 313 416 q 319 263 309 342 q 339 125 328 195 q 343 99 341 113 l 345 87 l 347 76 q 353 39 351 52 q 343 -47 363 -22 q 250 -92 313 -86 q 146 -67 186 -98 q 117 -28 127 -53 q 110 -11 113 -20 l 107 -3 l 106 0 l 106 3 z "},"i":{"ha":337,"x_min":46,"x_max":332,"o":"m 86 652 q 47 522 51 602 q 49 463 46 494 q 51 440 50 452 l 52 431 l 53 427 l 54 423 q 64 246 66 332 q 60 180 63 214 q 58 151 59 167 l 56 138 l 55 125 q 54 46 50 68 q 86 -3 59 15 q 193 -21 130 -30 q 286 24 256 -12 q 300 90 306 46 q 298 115 300 98 l 296 130 l 294 145 q 286 227 288 186 q 296 479 285 267 q 300 611 302 589 q 277 668 298 648 q 208 699 251 692 q 129 690 163 706 q 102 671 114 682 q 93 661 97 667 q 86 652 90 657 m 64 936 q 63 845 47 892 q 121 771 79 796 q 201 753 157 749 q 274 781 242 757 l 276 782 l 279 784 q 286 791 283 787 q 305 811 297 800 q 331 884 330 844 q 305 964 332 927 q 286 985 296 975 q 278 991 281 989 l 275 994 l 274 995 q 186 1018 236 1022 q 153 1012 170 1017 q 143 1008 148 1010 l 140 1007 l 138 1006 l 136 1006 l 132 1004 q 125 1000 129 1002 q 104 987 114 995 q 64 936 77 966 z "},"j":{"ha":428,"x_min":-108,"x_max":393,"o":"m 96 644 q 69 542 70 615 q 93 394 68 471 l 94 388 l 95 380 q 97 362 96 371 q 102 312 100 337 q 110 168 109 240 q 99 28 111 74 q 63 -27 88 -14 q 23 -32 49 -35 l 13 -31 q 1 -31 7 -31 q -24 -37 -12 -32 q -84 -91 -61 -52 q -100 -166 -108 -131 q -20 -237 -89 -214 q 100 -251 37 -256 q 229 -203 168 -245 q 269 -170 250 -189 q 282 -157 275 -164 q 287 -152 284 -154 q 290 -147 289 -149 q 353 33 346 -83 q 356 182 355 67 q 357 281 357 239 q 361 309 359 344 q 367 392 363 351 q 372 458 369 421 q 378 548 378 530 q 372 601 379 582 q 342 640 364 620 q 215 687 292 685 q 96 644 137 688 m 73 901 q 71 810 53 858 q 141 736 90 762 q 237 718 184 715 q 324 746 286 722 l 326 747 l 330 749 q 338 756 334 753 q 361 777 351 766 q 392 849 391 810 q 361 929 393 892 q 338 951 351 941 q 329 957 333 954 l 326 959 l 324 960 q 218 983 278 987 q 180 977 199 982 q 167 974 173 976 l 163 972 l 161 972 l 158 971 l 155 970 q 145 966 150 968 q 121 953 132 960 q 73 901 87 931 z "},"k":{"ha":742,"x_min":46,"x_max":784,"o":"m 58 198 q 47 384 49 290 q 46 448 46 416 q 47 471 46 459 l 47 479 l 47 487 q 58 871 56 862 q 73 951 62 925 q 109 995 84 978 q 210 1029 151 1026 q 300 1005 269 1032 q 323 947 321 986 q 322 909 324 932 q 319 887 321 900 l 317 864 q 304 603 302 722 q 321 487 307 490 q 337 506 327 486 q 348 530 340 513 l 351 537 l 355 545 q 363 562 359 554 q 405 685 384 606 q 462 810 425 764 q 529 867 496 854 q 666 869 590 893 q 760 795 742 846 q 753 766 765 781 q 715 728 745 753 l 709 722 l 701 716 q 686 703 692 708 q 650 671 666 686 q 574 511 604 629 l 566 502 l 557 492 q 541 467 547 479 q 528 409 525 437 q 570 341 532 383 q 724 140 610 297 q 779 38 784 58 q 696 -26 767 -5 q 572 -22 625 -48 q 531 20 547 -9 q 522 37 528 27 l 517 47 l 513 57 q 485 110 498 86 q 397 242 443 184 q 326 302 345 309 q 315 246 312 297 q 328 130 316 215 q 340 59 333 96 l 342 45 l 345 33 q 349 12 347 20 q 341 -38 354 -22 q 248 -69 315 -71 q 132 -32 180 -68 q 89 32 104 -10 q 58 198 70 83 z "},"l":{"ha":402,"x_min":35,"x_max":432,"o":"m 366 179 q 344 186 355 185 q 334 187 339 187 l 325 187 q 290 194 302 186 q 263 253 269 210 q 264 392 257 299 q 286 553 271 473 q 298 611 288 552 q 315 743 307 671 q 322 961 338 938 q 222 1011 290 1008 q 106 973 154 1015 q 52 555 68 941 q 81 91 35 163 q 84 86 83 88 q 88 81 86 83 q 98 66 93 73 q 131 31 114 47 q 239 -26 181 -16 q 347 -20 294 -36 q 422 45 408 -1 q 414 121 432 79 q 366 179 397 161 z "},"m":{"ha":1246,"x_min":34,"x_max":1238,"o":"m 1165 528 q 1112 638 1133 606 q 1026 716 1076 692 q 831 722 941 756 q 661 611 724 690 q 568 688 622 673 q 468 686 524 699 q 365 635 406 673 l 359 631 l 354 625 l 342 615 q 321 600 329 603 q 307 647 298 591 q 276 717 315 701 q 186 711 241 732 q 89 646 130 690 q 39 536 43 595 q 36 351 34 469 q 39 266 37 308 q 41 214 40 231 q 44 176 42 194 q 52 123 47 149 q 87 -15 64 52 q 111 -68 100 -51 q 125 -87 117 -81 q 227 -117 163 -119 q 323 -75 291 -113 q 336 10 342 -51 q 332 48 335 23 l 330 59 l 328 71 q 326 97 327 85 q 311 235 317 167 q 308 349 304 315 q 334 412 312 389 q 389 444 356 435 q 450 440 423 452 q 505 357 489 422 q 513 300 510 332 q 515 273 514 288 l 515 261 l 515 250 q 509 148 517 198 q 502 108 507 130 l 497 90 l 493 74 q 484 19 484 36 q 496 -26 484 -7 q 576 -73 522 -62 q 673 -61 631 -83 q 755 133 749 -22 q 751 253 758 186 q 745 303 749 277 q 742 324 743 313 l 741 333 l 739 341 q 734 373 736 361 q 750 395 741 382 l 766 420 q 800 466 787 450 q 876 510 841 515 q 913 484 896 507 q 928 464 920 476 l 934 454 l 939 444 q 960 363 957 409 q 954 226 962 322 q 949 175 951 201 q 947 154 948 165 l 945 144 l 945 135 q 940 81 941 94 q 951 31 938 45 q 1050 -8 985 -8 q 1154 22 1109 -8 q 1230 250 1238 81 q 1165 528 1223 389 z "},"n":{"ha":766,"x_min":34,"x_max":758,"o":"m 87 15 q 52 153 64 81 q 44 205 47 179 q 41 243 42 224 q 39 296 40 261 q 36 380 37 338 q 39 566 34 499 q 89 675 43 625 q 186 741 130 720 q 276 747 241 762 q 307 677 315 730 q 321 630 298 621 q 342 645 329 633 l 354 655 l 359 661 l 365 665 q 468 716 406 703 q 568 718 524 729 q 693 572 648 696 q 723 465 710 526 q 732 415 728 442 q 736 392 734 404 l 738 381 l 739 371 l 741 363 l 742 354 q 745 333 743 343 q 751 283 749 307 q 755 163 758 216 q 673 -31 749 8 q 576 -43 631 -53 q 496 4 522 -32 q 484 49 484 23 q 493 104 484 66 l 497 120 l 502 138 q 509 178 507 159 q 515 279 517 228 l 515 291 l 515 303 q 513 330 514 318 q 505 387 510 362 q 450 470 489 452 q 389 473 423 482 q 334 442 356 465 q 308 378 312 419 q 311 265 304 345 q 326 127 317 197 q 328 100 327 115 l 330 89 l 332 78 q 336 40 335 53 q 323 -45 342 -21 q 227 -87 291 -83 q 125 -57 163 -90 q 111 -39 117 -51 q 87 15 100 -21 z "},"o":{"ha":659,"x_min":-3,"x_max":667,"o":"m 414 344 q 376 258 411 292 q 303 239 340 224 q 262 278 278 248 q 245 341 245 307 q 285 436 245 397 q 323 460 303 454 q 363 458 345 467 q 403 412 388 446 q 414 344 417 380 m 495 642 q 349 664 429 675 q 199 609 273 654 q 77 500 127 566 q 10 360 24 433 q 18 220 -3 292 q 36 172 25 195 q 45 154 40 163 q 52 142 48 149 q 186 14 100 60 q 382 -20 281 -37 q 581 118 505 1 q 624 200 606 156 q 634 229 629 215 q 637 239 635 235 l 637 242 l 638 245 q 630 472 667 358 q 495 642 590 594 z "},"p":{"ha":723,"x_min":-11,"x_max":728,"o":"m 256 457 q 338 507 276 497 q 439 480 404 519 q 460 407 465 451 q 422 335 455 363 q 366 309 399 315 q 305 318 331 303 q 277 347 288 328 q 269 363 272 354 l 265 371 l 262 378 l 260 386 l 257 395 q 252 414 254 405 q 256 457 248 439 m 47 271 q 215 -245 77 -166 q 281 -265 245 -263 q 347 -252 319 -269 q 368 -87 416 -212 q 321 87 338 -9 q 317 190 306 178 q 340 196 324 198 q 374 188 348 195 q 396 182 387 184 q 421 178 410 179 q 479 178 451 174 q 611 246 550 189 q 692 375 671 302 q 657 609 728 492 q 584 694 627 661 q 496 734 541 728 q 385 721 448 740 q 279 676 339 707 q 256 664 269 671 l 245 658 l 234 652 q 197 633 208 638 q 158 625 163 616 q 103 659 144 650 q 35 652 62 668 q 9 494 -11 627 q 19 437 13 470 l 25 408 l 31 378 q 47 271 44 308 z "},"q":{"ha":754,"x_min":-31,"x_max":781,"o":"m 452 319 l 451 310 q 448 292 450 300 q 427 258 441 271 q 371 233 406 237 q 309 243 337 229 q 253 302 269 262 q 254 378 236 344 q 344 431 277 425 q 437 404 408 437 q 453 363 450 389 q 454 343 454 355 l 454 334 l 453 327 l 452 319 m 600 649 q 533 637 570 656 q 488 590 495 618 q 448 588 486 581 q 406 597 435 590 l 395 600 l 382 602 q 356 608 368 606 q 241 624 290 622 q 129 607 174 626 q 54 546 87 590 q 5 446 22 503 q 35 212 -31 315 q 149 109 76 147 q 296 77 223 69 q 353 92 324 81 q 375 103 363 97 q 395 115 383 108 q 427 132 418 128 q 451 131 441 137 q 474 31 465 123 q 475 -148 484 -66 q 541 -302 463 -281 q 608 -297 572 -310 q 667 -261 643 -286 q 692 279 781 -149 q 679 387 685 315 l 677 416 l 674 446 q 669 503 671 479 q 600 649 652 635 z "},"r":{"ha":660,"x_min":-17,"x_max":650,"o":"m 127 11 q 12 387 34 258 q 58 612 -17 559 q 104 631 78 626 q 157 627 134 637 q 183 608 172 621 q 199 583 190 600 q 228 551 215 552 q 250 562 239 549 q 270 593 256 569 q 282 612 277 606 q 296 633 289 624 q 336 671 314 656 q 444 705 382 703 q 559 671 509 705 q 620 605 597 644 q 636 505 650 554 q 587 433 625 462 q 510 405 550 403 q 463 421 486 406 q 427 454 449 431 l 418 463 l 410 471 q 393 486 401 480 q 353 496 373 498 q 293 454 321 493 q 261 385 271 423 q 275 291 250 345 q 290 262 281 280 l 294 254 l 298 246 q 307 229 304 236 q 350 140 332 182 q 388 20 389 52 q 362 -33 387 3 q 270 -72 336 -69 q 163 -40 205 -75 q 138 -10 148 -28 q 131 3 134 -4 q 129 7 130 5 l 128 9 l 127 11 z "},"s":{"ha":791,"x_min":-5,"x_max":783,"o":"m 1 652 q 64 745 12 701 q 189 814 114 787 q 509 825 357 876 q 652 744 590 798 q 704 659 714 690 q 626 623 695 631 q 576 618 603 619 q 557 618 567 618 l 547 618 q 471 627 509 619 q 441 634 457 630 l 427 638 l 414 642 q 330 640 358 656 q 288 591 302 623 q 285 538 274 559 q 326 515 294 521 q 420 509 349 511 q 496 508 456 509 q 528 508 511 508 l 543 507 l 557 507 q 640 505 618 507 q 715 486 692 503 q 777 377 762 452 q 783 323 781 352 q 783 304 783 314 l 782 297 l 782 294 l 782 292 q 694 96 777 185 q 633 40 667 66 q 609 24 621 31 q 601 18 605 21 l 597 16 l 595 14 q 379 -47 496 -44 q 174 19 253 -50 q 95 130 121 64 q 93 230 68 197 q 159 257 112 255 q 244 242 203 260 q 293 208 271 230 q 311 189 302 200 l 318 179 l 325 170 q 393 117 360 121 q 454 129 423 112 q 498 166 480 142 q 525 251 526 202 q 498 322 524 298 q 433 334 479 340 l 422 332 l 411 330 q 385 326 397 328 q 318 325 351 323 l 310 325 l 300 326 q 277 328 288 327 q 216 340 245 332 q 79 417 133 363 l 75 420 l 72 424 q 62 435 67 429 q 39 465 50 449 q 1 564 9 511 l 0 565 l 0 567 q -1 574 -1 570 q -3 595 -2 585 q 1 652 -5 628 z "},"t":{"ha":583,"x_min":-11,"x_max":589,"o":"m 515 169 q 492 174 504 174 q 483 174 488 175 l 473 174 q 439 178 451 170 q 407 234 416 192 q 397 374 397 279 q 405 535 397 454 q 432 533 418 534 q 512 529 492 528 q 555 541 542 530 q 584 623 586 568 q 553 696 583 678 q 487 699 544 702 l 424 699 q 432 867 435 813 q 409 945 429 920 q 304 987 373 989 q 193 940 237 985 q 161 869 163 911 q 170 718 161 854 q 131 728 146 725 q 82 731 106 732 q 27 720 42 730 q -7 650 -3 699 q 15 565 -11 602 l 18 562 l 20 557 q 30 548 25 552 q 60 529 43 535 q 113 531 83 520 l 126 536 l 142 542 q 178 553 161 549 q 180 446 179 502 q 180 400 180 425 l 180 378 l 180 358 q 184 225 182 264 q 238 58 191 121 q 241 54 240 56 q 245 49 243 52 q 258 35 252 41 q 293 3 274 17 q 406 -45 347 -40 q 512 -31 460 -51 q 581 39 572 -8 q 568 115 589 75 q 515 169 547 154 z "},"u":{"ha":753,"x_min":25,"x_max":727,"o":"m 722 618 q 708 378 727 467 q 694 234 692 304 q 699 178 695 208 q 702 154 700 167 q 706 132 703 146 q 713 58 715 78 q 688 -1 711 24 q 526 -52 634 -58 q 449 -37 482 -50 q 408 -5 415 -24 q 405 10 405 1 l 406 18 l 406 25 q 401 45 408 43 q 380 37 395 48 l 373 32 l 366 26 q 352 16 357 19 q 243 -20 306 -15 q 144 -6 185 -24 q 41 157 68 26 q 28 267 31 204 q 26 317 26 290 q 25 340 25 328 l 25 351 l 25 361 l 25 379 q 25 400 25 390 q 26 451 26 427 q 40 570 30 517 q 150 750 68 722 q 247 747 195 766 q 319 689 300 728 q 326 643 330 668 q 308 590 323 626 l 301 574 l 295 557 q 281 519 287 537 q 260 419 266 471 l 258 408 l 257 395 q 255 369 256 381 q 255 312 253 337 q 297 221 260 244 q 357 209 321 205 q 415 232 390 213 q 451 291 441 252 q 465 403 459 323 q 471 543 469 471 q 471 568 471 554 l 471 581 l 472 592 q 473 630 472 617 q 499 712 475 691 q 600 739 536 745 q 696 694 663 732 l 699 690 q 718 652 712 673 q 722 618 722 636 z "},"v":{"ha":807,"x_min":-14,"x_max":797,"o":"m -1 690 q 20 574 -14 641 q 38 543 26 564 l 47 526 l 57 508 q 97 422 81 463 q 119 337 113 380 q 122 318 121 325 q 127 294 124 306 q 146 222 134 263 q 201 70 183 107 q 271 -10 229 14 q 380 -35 320 -37 q 480 1 441 -31 q 514 44 500 19 q 522 64 518 54 q 525 71 524 67 l 526 75 l 527 77 q 610 263 553 161 q 660 348 629 298 l 672 368 l 684 388 q 708 427 699 411 q 777 569 761 515 q 770 690 797 639 q 768 693 769 692 q 765 699 767 696 q 755 712 760 706 q 721 742 741 730 q 615 756 676 768 q 521 707 556 745 q 494 638 498 682 q 493 615 494 631 l 492 602 l 492 588 q 483 518 489 552 q 425 327 466 417 q 370 248 387 244 q 363 267 365 250 q 363 291 363 273 l 362 298 l 362 307 q 361 327 361 317 q 349 435 359 382 l 347 448 l 345 463 q 340 496 342 479 q 326 602 333 542 q 315 695 317 685 q 298 736 311 720 q 220 779 271 767 q 182 784 203 783 q 165 785 174 785 l 159 785 l 153 785 l 140 785 l 126 785 q 96 781 109 784 q 33 750 58 774 q 7 714 18 735 q 1 699 4 707 q 0 694 1 696 l -1 691 l -1 690 z "},"w":{"ha":1099,"x_min":-5,"x_max":1088,"o":"m 1084 610 q 1046 712 1080 681 q 961 743 1013 743 q 880 717 910 745 q 843 618 865 703 l 833 584 l 824 549 q 806 481 812 507 q 748 267 754 267 q 743 312 744 268 q 741 336 742 326 q 740 366 741 352 q 732 440 737 404 q 730 477 732 443 q 727 510 728 496 q 724 547 725 530 q 704 665 713 644 q 702 669 703 667 q 699 674 701 671 q 690 688 695 682 q 659 718 677 706 q 564 732 618 743 q 478 682 510 721 q 454 614 458 657 q 454 591 454 606 l 453 578 l 452 564 q 444 494 450 528 q 391 302 429 393 q 342 224 358 220 q 336 243 338 225 q 336 267 336 249 l 335 274 l 335 283 q 334 302 334 293 q 323 411 332 357 l 321 424 l 319 438 q 315 472 317 455 q 302 578 309 517 q 293 671 294 661 q 277 711 289 696 q 207 754 252 743 q 172 760 191 758 q 157 760 165 760 l 151 761 l 145 761 l 134 761 l 121 760 q 94 757 106 760 q 38 726 60 749 q 14 690 24 711 q 9 675 12 683 q 7 669 8 672 l 7 667 l 6 665 q 26 550 -5 616 q 42 519 31 540 l 50 502 l 59 484 q 96 398 81 439 q 115 313 110 356 q 118 294 117 300 q 122 269 120 281 q 140 198 128 239 q 190 45 173 83 q 253 -35 214 -10 q 351 -59 296 -62 q 441 -23 406 -56 q 472 20 460 -5 q 479 39 476 29 q 482 47 481 43 l 483 50 l 484 53 q 559 239 507 137 q 634 66 591 132 q 767 -37 692 -24 l 769 -37 l 772 -38 q 780 -39 776 -38 q 800 -39 790 -39 q 852 -26 828 -38 q 897 14 880 -13 q 920 79 909 37 q 929 120 923 92 l 932 132 l 935 144 q 940 168 937 157 q 973 284 954 231 q 1015 384 991 332 l 1025 404 l 1035 424 q 1053 460 1046 447 q 1084 610 1088 537 z "},"x":{"ha":756,"x_min":-18,"x_max":779,"o":"m 30 699 q 47 631 26 667 q 127 533 68 595 q 159 500 143 517 q 187 473 171 489 q 229 432 219 442 q 256 374 260 398 q 237 342 254 357 q 224 331 232 336 l 217 326 l 210 322 q 49 149 116 260 q 8 -7 -18 39 q 96 -39 26 -39 q 219 -9 163 -39 q 260 20 241 3 q 273 33 267 26 q 277 38 275 35 q 280 41 279 39 q 354 204 294 58 q 387 265 379 266 q 421 201 395 265 q 463 103 448 136 q 517 38 483 59 q 663 -32 575 -35 q 765 57 751 -29 q 654 240 779 143 q 534 376 530 337 q 536 384 535 380 q 539 395 537 389 q 559 437 545 411 q 628 547 588 494 q 662 590 644 568 q 692 625 674 604 q 738 678 728 665 q 748 716 753 701 q 685 751 739 743 q 587 746 635 759 q 518 712 550 736 q 496 693 507 704 q 488 685 492 690 l 485 682 l 482 679 q 443 617 459 652 q 421 559 431 592 l 418 546 l 415 534 q 410 515 412 521 q 397 498 404 498 q 385 515 391 498 q 380 532 383 520 l 377 542 l 374 553 l 373 555 l 372 557 q 370 563 371 560 q 363 581 367 572 q 340 632 353 608 q 248 738 300 705 q 133 769 196 769 q 43 735 68 770 q 33 715 36 726 q 31 706 32 711 l 31 702 l 30 699 z "},"y":{"ha":692,"x_min":-7,"x_max":682,"o":"m 58 -133 q 86 -106 65 -117 q 98 -100 90 -104 l 104 -97 l 112 -93 q 149 -72 131 -83 l 157 -66 l 166 -61 q 185 -48 176 -54 q 223 -19 208 -33 q 273 54 266 18 q 263 115 279 83 q 248 142 257 127 l 239 155 l 230 167 q 60 415 102 340 q 18 612 -7 539 q 54 667 28 642 q 72 682 62 675 q 79 686 76 684 l 82 688 l 85 689 q 182 709 127 713 q 267 675 236 705 q 291 606 290 653 l 292 582 q 292 554 292 566 q 299 483 293 518 q 349 332 313 402 q 398 271 380 268 q 408 317 406 273 l 408 328 l 408 341 q 409 372 408 359 q 412 450 410 412 q 431 620 421 578 q 479 703 444 682 q 553 721 510 722 q 627 701 595 720 l 629 699 l 631 698 q 636 694 634 696 q 650 684 644 690 q 673 648 667 668 q 673 593 682 623 q 664 572 669 583 q 660 564 662 568 l 658 560 l 656 557 q 643 504 650 547 q 622 416 637 471 q 566 224 602 340 q 450 -83 484 -38 l 449 -85 l 448 -86 q 444 -91 446 -89 q 433 -104 439 -98 q 395 -142 416 -124 q 262 -235 335 -199 q 187 -264 212 -258 q 119 -262 149 -275 q 63 -205 82 -246 q 58 -133 45 -164 z "},"z":{"ha":613,"x_min":13,"x_max":619,"o":"m 81 663 q 51 588 54 635 q 51 555 50 572 q 52 544 52 550 l 53 540 l 54 537 l 58 517 q 63 496 60 505 q 87 465 71 475 q 139 462 104 454 q 159 467 146 464 l 171 471 l 184 474 q 250 490 219 484 q 329 500 325 507 q 298 461 334 491 q 279 446 291 456 l 269 437 l 258 429 q 209 387 230 406 q 104 273 146 330 q 26 119 50 199 q 16 43 13 73 q 20 22 16 31 q 26 9 22 15 q 56 -12 37 -7 q 105 -15 71 -16 q 121 -14 112 -15 l 130 -14 l 140 -14 q 182 -12 164 -13 q 296 -16 239 -12 q 410 -20 340 -20 l 468 -19 l 525 -20 l 542 -20 q 559 -18 551 -19 q 589 -3 577 -15 q 612 88 619 25 q 568 182 606 153 q 507 199 544 199 q 441 189 483 199 l 425 184 l 410 181 q 382 176 393 177 q 344 189 353 174 q 350 251 332 205 q 456 394 377 323 l 471 407 l 486 420 q 514 450 502 436 q 562 525 545 484 l 562 526 l 563 528 q 565 533 564 530 q 570 548 568 541 q 582 590 578 570 q 570 679 595 652 q 537 693 558 693 q 488 686 524 693 l 473 682 l 457 680 q 420 675 438 676 q 329 679 375 671 q 287 688 313 682 l 267 692 l 248 696 q 159 698 203 705 q 104 680 125 692 q 89 671 96 676 q 84 667 87 669 q 81 663 83 665 z "},"{":{"ha":654,"x_min":186,"x_max":594,"o":"m 528 43 q 498 68 512 58 q 477 81 488 75 q 448 102 456 92 q 437 164 431 126 q 446 200 439 180 l 452 219 l 459 238 q 482 316 477 290 q 473 390 489 359 q 446 422 463 408 q 430 434 439 428 l 422 439 l 415 444 q 380 484 379 466 q 419 517 382 500 l 434 525 q 449 534 443 529 q 473 562 465 545 q 462 649 485 589 l 456 663 l 451 680 q 438 716 444 699 q 416 812 424 763 q 424 897 405 882 l 429 899 l 436 897 l 444 894 q 460 889 454 890 q 496 886 481 883 q 530 889 515 883 q 577 939 560 901 q 584 1011 594 977 q 528 1067 572 1048 q 442 1080 490 1084 q 390 1077 414 1082 q 316 1039 349 1068 q 296 1019 305 1029 q 290 1010 293 1015 l 288 1008 l 286 1006 q 258 924 263 970 q 257 885 256 906 l 258 867 l 260 849 q 280 755 264 802 q 294 716 286 736 q 309 683 300 703 q 330 631 326 645 q 326 596 335 608 q 283 584 317 585 q 256 580 267 583 q 226 564 239 576 q 190 475 186 529 q 205 427 191 449 q 217 410 210 418 l 222 404 q 227 399 224 402 q 257 377 241 385 q 283 368 267 372 q 323 348 314 359 q 328 303 336 332 q 304 245 324 287 q 288 210 294 223 q 275 172 279 190 q 264 87 261 127 q 328 -50 272 12 q 446 -114 383 -113 q 461 -113 453 -114 l 473 -114 q 546 -93 511 -115 q 585 -43 582 -71 q 570 -1 587 -24 q 528 43 559 13 z "},"|":{"ha":408,"x_min":103,"x_max":315,"o":"m 290 434 q 300 651 292 537 q 303 695 302 671 l 305 715 l 307 735 q 312 806 310 782 q 312 917 315 877 q 290 1000 307 964 l 289 1002 l 288 1004 q 283 1013 285 1008 q 269 1032 276 1023 q 223 1060 247 1057 q 157 1007 186 1063 q 131 905 131 957 q 117 66 125 141 q 104 -96 105 -51 q 119 -201 103 -161 q 167 -259 136 -241 q 188 -267 177 -264 q 196 -269 192 -269 l 198 -269 l 200 -269 l 200 -269 l 201 -269 l 203 -269 q 212 -269 208 -269 q 237 -261 224 -267 q 292 -201 274 -245 q 306 -87 310 -159 q 299 -11 304 -64 l 297 11 l 294 33 q 290 83 292 60 q 290 434 283 174 z "},"}":{"ha":745,"x_min":102,"x_max":510,"o":"m 168 28 q 126 -16 137 -2 q 111 -58 109 -39 q 150 -108 114 -85 q 224 -129 185 -130 l 235 -128 q 250 -129 243 -129 q 368 -65 313 -127 q 431 73 425 -3 q 422 157 435 113 q 408 195 416 175 q 392 230 402 208 q 368 288 372 272 q 373 333 360 317 q 413 353 382 344 q 439 362 429 357 q 469 385 455 370 q 473 389 471 387 l 479 395 q 490 412 486 404 q 507 460 505 434 q 470 549 510 514 q 440 565 456 561 q 412 569 429 568 q 371 581 380 570 q 366 616 361 593 q 387 668 370 630 q 401 701 396 688 q 416 740 410 722 q 436 834 431 787 l 437 852 l 439 870 q 438 909 439 891 q 410 991 433 956 l 408 993 l 406 996 q 400 1004 404 1000 q 380 1024 391 1015 q 306 1062 347 1053 q 254 1065 281 1067 q 168 1053 206 1069 q 113 996 123 1034 q 119 924 102 962 q 165 874 136 886 q 199 871 180 868 q 235 874 215 868 q 252 879 241 876 l 260 882 l 267 884 l 272 882 q 280 798 291 867 q 258 701 272 748 q 245 665 252 684 l 239 648 l 234 634 q 224 547 211 574 q 247 519 231 530 q 262 510 254 514 l 277 503 q 315 469 314 486 q 281 429 317 451 l 273 425 l 266 419 q 250 408 257 413 q 224 375 233 393 q 214 301 207 344 q 237 223 218 275 l 243 204 l 250 185 q 259 149 257 165 q 248 87 265 111 q 219 66 240 77 q 198 53 208 60 q 168 28 184 43 z "},"~":{"ha":581,"x_min":80,"x_max":534,"o":"m 473 314 q 467 311 471 313 q 463 307 465 309 q 401 286 440 288 q 326 292 359 283 q 273 333 290 303 q 251 383 262 351 q 236 404 244 397 q 187 418 220 418 q 178 396 173 408 q 202 373 178 395 q 206 356 214 363 q 190 351 202 352 q 88 388 108 346 q 108 450 80 406 q 151 497 134 491 q 281 484 207 519 q 327 457 303 474 q 370 417 338 450 q 416 400 396 391 q 431 409 423 403 q 429 418 431 414 q 404 458 429 420 q 399 488 391 477 q 417 496 404 495 q 481 484 452 500 q 524 432 515 467 q 517 364 534 399 q 473 314 503 331 z "},"¡":{"ha":368,"x_min":13,"x_max":373,"o":"m 208 490 q 166 531 181 505 q 155 572 156 549 q 256 693 149 675 q 315 688 288 698 q 368 642 358 671 q 369 570 373 604 q 359 534 366 548 q 255 480 334 481 q 208 490 227 479 m 136 363 q 150 405 142 391 q 165 423 156 416 q 229 435 190 439 q 288 410 268 431 q 304 366 304 393 q 296 305 304 351 q 258 -41 269 149 q 255 -144 256 -87 l 255 -155 l 255 -165 q 255 -184 255 -177 q 254 -216 255 -204 q 247 -267 253 -248 q 223 -302 239 -288 q 115 -334 182 -341 q 61 -319 85 -332 q 24 -283 36 -305 q 19 -220 13 -263 q 44 -105 23 -189 q 91 131 59 -45 l 97 164 l 103 197 q 115 260 111 235 q 136 363 128 328 z "},"¢":{"ha":717,"x_min":67,"x_max":691,"o":"m 626 694 q 632 690 629 692 q 684 616 676 659 q 673 541 691 579 q 623 488 655 501 q 565 490 597 477 q 559 492 562 490 q 557 486 559 488 q 502 323 527 402 q 470 219 484 266 l 475 222 q 518 245 501 239 q 571 250 545 254 q 633 222 606 244 q 669 170 663 199 q 627 73 678 125 q 520 3 581 26 q 410 -12 468 -16 l 410 -14 l 407 -33 q 394 -98 398 -78 q 360 -177 380 -158 q 313 -182 339 -197 q 297 -168 305 -176 q 293 -163 295 -165 l 291 -161 l 291 -160 l 290 -159 l 288 -157 q 284 -150 286 -153 q 274 -127 278 -140 q 259 -45 259 -90 q 268 26 258 -12 q 95 191 149 83 q 73 353 67 245 q 124 568 79 472 q 276 730 179 684 q 496 745 370 774 q 516 814 505 779 q 555 874 528 854 q 605 865 585 896 q 625 808 618 845 q 629 783 628 796 q 631 773 630 777 l 631 767 q 626 694 633 731 m 439 555 q 392 555 414 563 q 331 474 351 538 q 321 427 324 452 q 319 410 319 418 q 318 403 318 406 l 318 400 l 317 398 q 333 277 313 335 q 345 247 338 260 q 439 555 376 345 z "},"£":{"ha":844,"x_min":31,"x_max":814,"o":"m 203 537 q 216 566 215 547 q 211 610 216 579 l 208 623 l 206 637 q 203 667 203 654 q 206 734 200 703 q 281 869 221 808 q 418 949 340 928 q 579 951 498 971 q 694 871 666 929 q 705 804 708 841 q 679 741 703 764 q 645 720 665 726 q 604 718 623 711 q 570 749 585 723 l 564 759 q 557 769 560 765 q 537 784 549 779 q 478 784 512 795 q 427 749 445 774 q 415 694 413 731 l 416 684 l 416 673 q 417 648 417 661 q 412 578 417 615 q 412 532 407 538 q 444 521 421 519 q 467 524 453 522 l 479 527 l 492 530 q 545 538 527 538 q 592 526 574 539 q 626 441 625 501 q 595 360 626 382 q 555 353 579 350 q 532 359 545 355 l 509 367 q 465 380 479 378 q 427 372 441 384 q 409 322 413 361 q 408 304 408 311 q 404 284 406 294 q 386 235 398 260 q 368 206 378 220 q 360 195 364 201 l 356 189 l 353 185 q 341 162 338 167 q 389 175 346 156 l 399 179 l 410 184 q 435 194 423 189 q 493 212 465 205 l 504 215 l 516 218 q 542 224 530 221 q 600 231 573 230 q 720 203 671 235 q 804 88 779 166 q 814 29 814 56 q 801 -8 813 2 q 773 -11 791 -16 q 732 6 764 -9 q 705 18 716 13 q 673 28 688 24 q 595 41 635 40 q 519 32 557 42 q 480 19 509 28 q 457 12 467 15 q 429 3 443 7 l 425 2 l 418 0 q 402 -4 410 -2 q 358 -16 380 -10 q 242 -39 294 -31 q 52 -14 83 -63 q 58 74 34 15 q 79 119 66 95 q 90 138 85 128 l 95 145 l 97 149 l 99 151 q 128 192 111 172 q 142 208 134 199 l 155 223 q 197 296 185 258 l 198 299 l 199 303 q 202 314 201 309 q 208 345 206 330 q 195 401 212 387 q 138 396 180 412 q 104 385 116 387 q 73 389 86 382 q 35 467 39 408 q 61 549 31 528 q 95 555 75 559 q 134 544 108 553 q 203 537 186 524 z "},"¤":{"ha":688,"x_min":31,"x_max":651,"o":"m 321 397 q 248 455 275 401 q 247 553 219 510 q 299 595 264 580 q 372 603 337 612 q 420 566 403 594 q 435 519 434 544 q 400 433 439 473 q 321 397 362 394 m 643 322 q 595 348 635 339 q 567 357 576 352 q 546 376 553 363 q 543 404 539 389 q 555 434 545 413 q 562 452 560 445 q 569 471 566 461 q 572 516 575 493 q 563 551 570 534 q 556 564 560 557 l 553 570 l 549 575 q 539 618 534 601 q 585 654 546 639 l 599 661 q 612 667 607 664 q 629 689 625 676 q 616 751 639 717 q 555 793 593 787 q 524 779 539 795 q 500 745 515 769 l 494 734 l 488 726 q 477 709 481 715 q 452 696 464 694 q 440 703 446 696 l 437 707 l 434 711 q 425 720 430 715 q 347 741 396 743 q 262 720 302 739 q 244 709 252 714 q 238 704 241 707 l 235 702 l 233 700 q 214 693 222 692 q 187 710 199 694 q 169 744 180 720 l 160 762 q 151 779 155 772 q 125 797 140 795 q 64 759 96 802 q 44 685 31 716 q 71 656 51 669 q 89 646 79 651 q 97 642 92 644 l 100 641 l 104 640 q 120 633 113 635 q 126 632 123 633 l 131 631 q 143 627 140 630 q 150 589 155 616 q 143 562 149 578 l 138 548 l 133 532 q 117 467 120 492 q 128 404 113 431 q 137 391 132 397 l 141 386 l 144 382 q 152 363 153 372 q 135 336 151 348 q 98 315 125 328 l 89 311 l 79 306 q 62 296 68 300 q 42 268 44 283 q 73 212 38 241 q 137 191 109 182 q 161 212 151 195 q 170 228 165 218 l 174 237 l 177 246 q 192 280 186 271 q 216 298 202 296 q 239 291 227 300 l 245 286 l 252 281 q 269 273 260 276 q 323 268 294 262 q 373 286 342 272 l 385 292 l 397 297 q 420 306 410 303 q 465 305 446 313 q 493 277 482 298 q 507 239 500 264 l 509 229 l 512 219 q 518 202 515 208 q 539 182 526 185 q 578 193 555 178 q 616 231 599 206 q 643 279 635 255 q 643 322 651 305 z "},"¥":{"ha":857,"x_min":56,"x_max":817,"o":"m 531 218 q 700 216 620 218 q 759 215 745 214 q 799 227 785 217 q 817 260 817 239 q 798 294 817 282 q 779 302 790 298 q 738 307 766 304 q 637 312 703 309 q 576 314 612 313 l 543 315 l 528 316 q 538 369 531 340 q 689 366 617 369 q 747 366 733 365 q 787 378 774 368 q 805 412 805 390 q 787 446 805 433 q 768 453 779 450 q 726 457 754 456 q 626 463 692 460 q 571 465 603 464 q 593 517 581 490 q 659 649 621 581 q 709 736 686 700 q 759 906 791 865 q 645 957 730 943 q 515 948 562 971 q 494 930 502 941 q 479 878 481 909 q 479 854 478 866 q 479 844 479 849 l 480 841 l 480 838 q 469 632 490 763 q 427 497 449 500 q 399 528 417 496 q 367 608 381 561 q 346 806 328 729 l 347 808 l 348 813 q 350 822 349 817 q 352 848 352 836 q 341 909 353 884 q 322 930 335 921 q 223 958 286 954 q 124 941 159 961 q 103 887 98 926 q 142 753 105 875 q 186 635 153 717 q 216 563 196 612 l 233 524 l 250 486 q 252 479 251 483 q 155 485 182 485 q 96 478 114 486 q 66 456 76 471 q 56 426 56 442 q 98 368 57 389 q 136 358 115 361 q 184 357 155 355 q 216 359 197 357 q 234 360 222 359 l 243 360 l 254 361 q 297 363 276 363 q 310 326 304 342 q 279 328 292 327 q 167 334 197 334 q 106 327 125 334 q 77 304 87 319 q 68 275 68 291 q 110 218 68 237 q 147 207 127 209 q 195 206 165 205 q 227 208 208 206 q 245 208 234 208 l 255 209 l 265 210 q 311 212 288 211 q 290 109 294 140 q 300 16 283 46 q 353 -22 317 -10 q 431 -28 389 -33 q 507 -6 473 -24 q 557 45 544 14 q 556 117 570 71 l 553 129 l 549 141 q 542 170 545 157 q 531 218 535 194 z "},"¦":{"ha":408,"x_min":103,"x_max":315,"o":"m 290 703 q 300 797 292 748 q 303 816 302 805 l 305 824 l 307 833 q 312 863 310 853 q 312 911 315 894 q 290 947 307 931 l 289 947 l 288 949 q 283 952 285 950 q 269 961 276 957 q 223 973 247 971 q 157 950 186 974 q 131 906 131 928 q 117 545 125 577 q 104 476 105 495 q 119 430 103 447 q 167 405 136 413 q 188 402 177 403 q 196 401 192 401 l 198 401 l 200 401 l 200 401 l 201 401 l 203 401 q 212 401 208 401 q 237 404 224 402 q 292 430 274 411 q 306 479 310 448 q 299 512 304 489 l 297 521 l 294 531 q 290 552 292 542 q 290 703 283 591 m 290 25 q 300 118 292 69 q 303 137 302 126 l 305 146 l 307 154 q 312 185 310 174 q 312 232 315 215 q 290 268 307 253 l 289 269 l 288 270 q 283 273 285 272 q 269 282 276 278 q 223 294 247 293 q 157 271 186 295 q 131 227 131 249 q 117 -134 125 -101 q 104 -203 105 -184 q 119 -249 103 -231 q 167 -273 136 -266 q 188 -277 177 -276 q 196 -278 192 -278 l 198 -278 l 200 -278 l 200 -278 l 201 -278 l 203 -278 q 212 -278 208 -278 q 237 -274 224 -277 q 292 -248 274 -267 q 306 -199 310 -231 q 299 -167 304 -189 l 297 -157 l 294 -148 q 290 -127 292 -136 q 290 25 283 -87 z "},"§":{"ha":744,"x_min":59,"x_max":707,"o":"m 515 199 q 498 218 511 197 q 481 240 490 231 q 454 264 469 254 q 412 287 435 279 q 393 293 404 290 l 384 295 l 375 297 q 315 325 331 307 q 296 388 294 351 q 321 439 298 425 q 395 433 347 454 q 469 383 437 415 q 526 266 516 336 q 526 220 529 239 q 515 199 522 201 m 592 572 q 507 607 555 600 q 464 609 487 610 q 423 608 449 609 q 352 607 371 604 q 302 638 318 612 q 288 709 284 667 q 313 770 292 751 q 359 777 328 782 q 490 744 387 772 q 590 718 573 721 q 619 722 612 713 q 627 765 630 734 q 610 833 625 795 q 510 962 576 922 q 308 961 422 1014 q 153 810 199 910 l 150 804 l 147 798 q 141 783 144 789 q 130 747 134 764 q 128 661 118 701 q 141 628 132 644 q 149 614 144 622 l 157 603 q 170 557 174 576 q 138 520 167 538 l 126 512 q 114 503 119 507 q 90 474 100 490 q 72 405 73 445 q 73 373 72 390 q 75 359 74 367 l 76 353 l 77 348 l 77 347 l 77 345 q 78 341 77 343 q 81 328 79 334 q 96 285 87 305 q 173 184 123 220 q 239 157 201 163 l 255 155 q 273 152 264 154 q 315 136 294 146 q 419 54 374 106 q 454 -28 465 1 q 422 -56 448 -45 q 361 -68 396 -67 q 231 -21 277 -70 q 215 -3 224 -14 l 208 7 l 201 16 q 161 45 183 37 q 121 49 142 51 q 84 32 98 46 q 68 -59 59 5 q 108 -165 77 -120 q 208 -240 142 -215 q 347 -260 271 -264 q 491 -225 422 -256 q 610 -137 564 -193 l 611 -136 l 612 -134 q 616 -130 614 -132 q 627 -115 622 -123 q 656 -66 644 -90 q 677 62 695 10 q 660 92 671 79 q 650 102 656 97 l 639 112 q 608 158 612 135 q 614 198 605 178 q 640 234 621 212 l 648 243 l 655 252 q 670 273 664 264 q 692 325 686 298 q 676 461 707 387 q 592 572 646 533 z "},"¨":{"ha":694,"x_min":170,"x_max":489,"o":"m 267 843 q 289 818 282 834 q 294 793 295 807 q 233 719 294 730 q 200 722 215 715 q 171 750 176 732 q 174 794 170 774 q 180 817 176 808 q 241 849 196 849 q 267 843 256 850 m 461 843 q 483 818 476 834 q 488 793 489 807 q 427 719 488 730 q 394 722 409 715 q 365 750 370 732 q 368 794 363 774 q 374 817 370 808 q 435 849 390 849 q 461 843 450 850 z "},"©":{"ha":1035,"x_min":65,"x_max":998,"o":"m 533 932 q 710 897 625 932 q 861 798 795 862 q 962 651 926 736 q 998 477 998 567 q 962 303 998 386 q 859 155 926 220 q 708 57 793 90 q 529 23 623 23 q 353 57 437 23 q 202 156 269 92 q 100 303 136 220 q 65 477 65 385 q 100 651 65 568 q 201 798 136 734 q 352 897 266 862 q 533 932 438 932 m 262 739 q 181 619 210 686 q 152 477 152 551 q 181 335 152 402 q 264 216 210 269 q 387 136 319 163 q 530 108 454 108 q 675 135 606 108 q 798 215 744 163 q 882 336 852 269 q 911 477 911 404 q 882 618 911 550 q 800 739 852 687 q 677 819 747 791 q 532 847 608 847 q 386 819 456 847 q 262 739 315 791 m 652 734 q 707 707 686 722 q 743 653 737 684 q 735 599 747 627 q 700 561 722 570 q 660 562 682 553 q 621 585 646 567 l 600 597 q 581 607 589 604 q 541 609 558 616 q 498 551 512 597 q 491 517 494 535 q 490 505 490 511 q 489 500 489 503 l 489 498 l 489 496 q 500 409 486 451 q 544 353 515 361 q 572 355 557 349 q 585 361 578 357 l 598 370 q 628 386 616 382 q 665 389 646 393 q 707 370 688 386 q 732 332 728 353 q 703 263 739 300 q 629 213 671 229 q 464 224 553 184 q 335 347 374 265 q 319 464 315 387 q 355 618 323 549 q 460 734 393 702 q 652 734 540 773 z "},"ª":{"ha":580,"x_min":-16,"x_max":545,"o":"m 323 701 l 323 705 q 320 713 322 709 q 309 730 317 723 q 278 741 297 740 q 245 735 260 742 q 216 705 224 725 q 218 668 208 684 q 268 644 231 645 q 317 658 302 642 q 325 678 324 666 q 325 688 325 683 l 324 693 l 324 696 l 323 701 m 409 541 q 373 546 394 537 q 348 568 353 554 q 327 568 347 572 q 305 563 320 567 l 298 561 l 292 560 l 278 557 q 216 547 242 549 q 156 553 181 545 q 114 582 133 561 q 86 630 96 602 q 97 746 64 694 q 156 798 118 778 q 234 816 195 819 q 265 810 250 815 q 278 805 271 808 q 289 799 282 803 q 306 792 302 793 q 319 792 314 789 q 328 813 327 797 q 322 846 328 828 q 280 894 308 889 q 259 889 270 895 q 248 882 254 886 l 242 878 l 237 873 q 211 857 222 862 q 176 848 194 849 q 144 853 159 848 q 122 869 127 859 q 137 909 115 885 q 183 946 156 930 q 287 972 229 971 q 394 945 351 974 q 442 867 431 919 q 451 724 449 832 l 451 718 l 452 712 l 452 699 q 452 671 452 683 q 448 613 451 637 q 409 541 439 549 m 487 313 q 517 306 507 310 q 532 295 526 302 q 546 246 546 277 q 532 197 546 215 q 502 180 522 183 q 458 181 492 179 q 207 180 344 189 q 132 173 173 178 l 124 172 l 117 171 q 104 170 109 170 q 80 167 89 168 q 44 168 57 165 q 16 184 28 172 q -16 267 -15 213 q -9 310 -16 290 q 13 342 -1 331 q 59 353 27 353 q 143 343 81 352 q 316 327 187 337 l 340 326 l 365 323 q 411 320 392 321 q 487 313 460 316 z "},"«":{"ha":640,"x_min":118,"x_max":572,"o":"m 118 325 l 350 530 l 359 530 l 359 505 l 220 325 l 359 144 l 359 119 l 350 119 l 118 325 m 330 325 l 562 530 l 572 530 l 572 505 l 433 325 l 572 144 l 572 119 l 562 119 l 330 325 z "},"¬":{"ha":753,"x_min":43,"x_max":677,"o":"m 543 378 q 294 375 428 382 q 210 368 256 373 l 201 367 l 193 366 q 178 364 184 365 q 151 362 162 363 q 111 363 125 360 q 79 379 93 368 q 43 462 43 408 q 51 505 43 486 q 76 538 60 526 q 127 548 92 549 q 222 538 152 547 q 418 522 273 532 l 446 521 l 473 519 q 526 515 504 517 q 585 511 561 513 q 614 511 597 513 q 655 498 640 509 q 665 487 662 494 q 677 441 677 469 q 662 392 677 410 q 661 390 661 391 q 660 285 658 340 q 663 236 661 263 l 664 231 l 665 227 q 665 217 665 220 q 667 201 667 208 q 665 178 667 186 q 651 161 661 168 q 582 148 626 144 q 546 156 562 150 q 519 174 529 163 q 513 204 511 183 q 523 258 514 218 q 541 369 529 286 l 543 378 z "},"®":{"ha":1073,"x_min":65,"x_max":998,"o":"m 533 932 q 710 897 625 932 q 861 798 795 862 q 962 651 926 736 q 998 477 998 567 q 962 303 998 386 q 859 155 926 220 q 708 57 793 90 q 529 23 623 23 q 353 57 437 23 q 202 156 269 92 q 100 303 136 220 q 65 477 65 385 q 100 651 65 568 q 201 798 136 734 q 352 897 266 862 q 533 932 438 932 m 262 739 q 181 619 210 686 q 152 477 152 551 q 181 335 152 402 q 264 216 210 269 q 387 136 319 163 q 530 108 454 108 q 675 135 606 108 q 798 215 744 163 q 882 336 852 269 q 911 477 911 404 q 882 618 911 550 q 800 739 852 687 q 677 819 747 791 q 532 847 608 847 q 386 819 456 847 q 262 739 315 791 m 553 581 q 536 551 551 564 q 504 534 522 538 l 501 533 l 499 532 q 493 531 496 532 q 482 533 486 531 q 478 549 477 537 q 479 555 479 552 l 480 562 q 482 578 481 572 q 482 605 484 592 q 481 615 482 610 q 479 624 481 618 q 480 642 476 639 q 498 642 485 645 q 524 629 511 637 q 553 581 557 608 m 734 350 q 719 353 728 353 q 712 353 716 353 l 705 352 q 684 355 689 350 q 680 374 679 361 q 681 380 680 375 l 682 383 l 682 387 q 684 406 684 397 l 685 410 l 685 414 q 686 424 685 420 q 684 447 686 437 q 667 490 680 475 q 649 504 660 498 q 630 511 641 507 l 625 512 l 621 513 q 614 515 617 515 q 609 521 608 517 q 616 528 609 524 q 623 530 618 528 l 625 531 l 629 532 q 682 585 661 544 q 696 663 703 626 q 654 721 688 696 q 623 739 642 730 q 608 745 617 742 l 602 749 l 595 751 q 471 778 535 777 q 374 743 399 779 q 366 695 365 729 l 367 691 l 367 686 q 367 677 367 681 q 367 654 368 665 q 361 591 366 625 q 356 560 359 575 l 355 553 l 353 547 q 350 531 352 539 l 347 515 l 345 497 q 338 461 340 477 q 332 388 332 419 q 368 277 331 305 q 433 261 394 258 q 486 286 471 264 q 490 307 491 293 q 484 362 490 313 q 480 441 477 420 q 484 452 481 448 q 487 454 485 452 l 490 456 q 511 460 497 462 q 537 448 525 458 q 562 355 570 419 q 566 288 557 317 q 574 267 569 277 q 585 250 578 259 q 641 216 602 224 q 668 212 653 212 q 677 212 672 212 q 680 212 679 212 l 682 212 l 686 212 l 690 212 q 701 213 696 212 q 726 218 714 215 q 770 254 759 229 q 770 311 783 279 q 734 350 758 341 z "},"¯":{"ha":757,"x_min":71,"x_max":574,"o":"m 522 903 q 549 896 540 900 q 562 885 557 892 q 574 836 574 867 q 562 760 574 778 q 536 743 553 746 q 496 744 526 742 q 271 743 393 751 q 203 736 240 741 l 197 734 l 190 734 q 178 732 182 732 q 157 730 165 730 q 124 731 136 728 q 100 747 111 735 q 71 829 71 776 q 77 873 71 853 q 97 905 84 894 q 138 916 109 916 q 213 906 157 915 q 375 903 253 900 q 522 903 498 906 z "},"°":{"ha":457,"x_min":75,"x_max":384,"o":"m 230 715 q 285 738 262 715 q 307 793 307 761 q 285 848 307 826 q 230 871 262 871 q 175 848 197 871 q 152 793 152 826 q 175 738 152 761 q 230 715 198 715 m 230 639 q 120 684 165 639 q 75 793 75 729 q 120 902 75 857 q 229 947 164 947 q 338 902 293 947 q 384 793 384 857 q 339 684 384 729 q 230 639 294 639 z "},"±":{"ha":939,"x_min":-47,"x_max":731,"o":"m 430 569 q 424 534 427 552 l 418 501 l 412 468 q 399 405 404 431 q 378 302 387 337 q 365 260 372 274 q 349 242 359 249 q 286 230 325 226 q 227 256 247 235 q 211 299 211 272 q 219 360 211 314 q 245 562 235 455 q 159 554 205 559 l 148 553 l 138 552 q 119 550 125 551 q 86 547 99 547 q 36 549 55 545 q -2 568 14 553 q -47 672 -45 605 q -37 727 -47 702 q -6 768 -26 753 q 57 781 13 781 q 174 768 87 780 q 258 760 203 765 q 260 810 260 784 l 260 849 q 260 882 260 869 q 268 932 262 913 q 292 968 275 953 q 399 1000 333 1006 q 454 984 430 997 q 490 949 479 970 q 496 885 502 928 q 471 770 492 854 q 465 745 468 760 l 481 744 q 545 739 518 741 q 650 730 613 734 q 692 722 678 727 q 711 708 704 717 q 731 646 731 686 q 712 585 731 608 q 671 564 698 567 q 610 565 656 562 q 430 569 525 570 m 559 121 q 592 115 581 119 q 608 105 602 112 q 623 60 623 89 q 608 14 623 31 q 575 -1 597 1 q 528 0 564 -2 q 254 -2 403 6 q 173 -8 217 -3 l 165 -9 l 157 -10 q 142 -12 147 -11 q 116 -14 126 -13 q 77 -12 92 -16 q 47 2 60 -9 q 12 79 12 29 q 20 119 12 100 q 43 149 28 138 q 93 159 58 159 q 184 150 117 158 q 373 135 233 144 l 399 134 l 426 132 q 476 128 456 130 q 559 121 530 125 z "},"²":{"ha":717,"x_min":55,"x_max":701,"o":"m 88 633 q 171 604 119 602 q 250 637 220 606 q 271 676 264 653 q 275 696 274 686 l 277 718 q 283 754 280 744 q 302 781 288 772 q 369 782 328 799 q 433 729 411 765 q 448 617 460 685 q 402 507 437 557 q 332 443 374 466 q 294 426 315 434 l 274 419 l 254 413 q 176 381 202 396 q 105 313 134 357 l 104 312 l 104 311 q 101 307 102 309 q 95 296 98 302 q 77 257 85 277 q 58 134 55 196 l 58 128 l 58 121 l 59 107 q 64 77 61 90 q 94 22 73 40 q 159 13 116 3 q 181 19 166 15 l 193 22 l 206 25 q 267 37 238 33 q 354 36 311 41 q 389 30 370 34 l 406 26 l 423 22 q 582 20 507 3 q 677 72 654 36 q 696 159 701 108 q 663 232 692 209 q 617 243 648 245 q 578 237 609 241 q 553 233 564 235 q 523 230 538 231 l 519 229 l 515 229 q 504 228 509 229 q 479 226 491 227 q 418 223 445 223 q 336 240 340 222 q 366 275 333 251 q 382 286 372 279 l 392 293 l 403 300 q 450 334 430 319 q 573 433 539 401 q 648 538 629 486 q 644 748 684 631 q 505 933 603 871 q 326 974 425 984 q 260 960 292 970 q 238 953 248 957 q 231 950 234 951 l 227 949 l 225 947 l 222 947 l 220 945 q 212 941 216 943 q 193 931 202 937 q 142 897 165 916 q 61 768 75 842 l 61 766 l 60 761 q 58 748 59 755 q 57 713 56 730 q 88 633 60 662 z "},"³":{"ha":717,"x_min":52,"x_max":675,"o":"m 94 884 q 106 777 76 835 q 176 716 136 720 q 210 726 193 714 q 224 739 216 731 l 239 755 q 269 783 257 775 q 307 796 288 797 q 386 747 350 795 q 410 663 421 699 q 378 635 405 649 q 361 627 374 633 q 352 621 355 623 q 340 615 346 618 q 281 582 311 600 q 202 515 209 539 q 210 459 195 490 q 247 411 223 431 q 304 385 271 391 q 361 382 327 380 l 374 383 l 387 384 q 409 385 401 385 q 439 371 431 383 q 436 319 449 353 q 397 255 424 288 q 342 203 371 222 q 289 189 311 182 q 267 208 276 193 q 259 222 263 213 l 252 239 q 234 272 242 260 q 202 296 221 289 q 149 298 178 305 q 100 275 121 292 l 99 273 l 97 272 q 92 268 95 270 q 79 254 85 261 q 58 205 61 230 q 95 106 52 158 q 181 39 132 63 q 323 16 241 9 q 476 59 400 22 q 603 152 552 96 q 667 277 657 212 q 659 378 675 327 q 604 465 642 434 q 542 493 578 485 q 478 500 514 500 q 450 499 466 500 l 439 498 q 428 498 432 498 q 407 502 408 498 q 423 511 406 506 l 432 513 l 441 515 q 465 522 455 519 q 517 543 495 531 q 567 582 548 559 q 612 730 614 637 q 557 892 610 823 q 365 984 490 979 q 276 979 322 986 q 243 972 260 976 q 232 970 238 971 l 227 968 l 223 967 l 215 965 l 205 962 l 187 957 q 150 942 165 950 q 94 884 108 920 z "},"´":{"ha":694,"x_min":233,"x_max":484,"o":"m 235 728 q 245 755 233 738 q 301 829 252 767 q 354 894 343 883 q 387 919 370 911 l 388 920 l 391 921 q 397 924 394 922 q 414 928 406 927 q 454 926 437 934 q 477 896 471 917 q 477 855 484 876 q 429 803 472 842 q 333 726 398 774 q 295 705 307 707 q 258 707 276 700 q 235 728 239 713 z "},"µ":{"ha":856,"x_min":60,"x_max":809,"o":"m 101 438 q 132 680 119 622 q 190 775 151 762 q 270 760 224 787 q 334 689 314 732 q 336 596 351 654 l 332 583 l 328 568 q 320 534 323 549 q 306 447 310 491 l 304 433 l 303 418 q 301 387 302 401 q 302 321 299 349 q 343 224 307 244 q 427 224 375 205 q 511 282 478 241 q 549 403 549 329 q 528 536 549 452 l 519 569 q 512 601 515 589 q 501 658 504 635 q 522 738 495 715 q 581 755 543 755 q 656 739 616 755 q 772 638 747 704 q 764 557 782 610 l 760 544 q 755 530 758 536 q 745 494 749 511 q 725 396 732 449 q 714 290 714 319 q 730 212 713 247 q 755 172 739 191 q 768 157 761 165 l 775 150 l 781 143 q 806 94 809 115 q 766 37 803 62 q 692 19 728 13 q 646 45 668 23 q 612 89 631 60 l 605 100 l 598 111 q 585 128 591 122 q 562 142 572 145 q 551 127 555 140 l 549 121 q 545 113 547 116 q 536 94 542 102 q 491 41 519 64 q 434 14 462 18 q 385 25 410 12 q 344 56 366 35 l 335 64 l 327 73 q 311 87 317 82 q 288 96 296 100 q 290 62 279 92 q 296 46 292 56 l 298 38 l 302 28 q 317 -12 311 5 q 338 -103 334 -64 q 322 -195 342 -157 q 320 -199 321 -197 q 317 -205 318 -202 q 305 -221 311 -214 q 264 -254 288 -242 q 172 -263 224 -273 q 92 -223 123 -254 q 63 -117 60 -191 q 71 -20 64 -91 l 73 -5 l 75 11 q 78 45 77 29 q 85 123 82 86 q 91 222 89 178 q 92 256 92 238 l 92 271 l 92 286 q 101 438 93 357 z "},"¶":{"ha":694,"x_min":63,"x_max":630,"o":"m 630 973 l 630 926 l 544 926 l 544 0 l 488 0 l 488 926 l 376 926 l 376 0 l 319 0 l 319 500 q 132 570 201 506 q 63 736 63 634 q 136 908 63 843 q 330 973 209 973 l 630 973 z "},"·":{"ha":345,"x_min":8,"x_max":205,"o":"m 162 578 q 196 540 185 565 q 204 500 205 522 q 107 385 204 402 q 56 390 79 381 q 11 434 18 406 q 14 503 8 471 q 24 537 17 524 q 120 588 50 588 q 162 578 145 589 z "},"∙":{"ha":345,"x_min":8,"x_max":205,"o":"m 162 578 q 196 540 185 565 q 204 500 205 522 q 107 385 204 402 q 56 390 79 381 q 11 434 18 406 q 14 503 8 471 q 24 537 17 524 q 120 588 50 588 q 162 578 145 589 z "},"¸":{"ha":694,"x_min":282,"x_max":498,"o":"m 395 -26 q 399 -41 399 -32 q 399 -47 399 -43 l 399 -55 q 399 -67 398 -64 q 404 -75 399 -73 q 412 -76 407 -77 l 415 -75 l 418 -75 q 424 -74 421 -74 q 460 -84 441 -72 q 484 -109 475 -95 q 484 -168 498 -134 q 443 -218 471 -200 q 345 -231 402 -245 q 305 -214 321 -225 q 285 -189 288 -202 q 290 -163 282 -177 q 309 -145 298 -149 q 326 -146 316 -143 l 329 -147 l 332 -149 q 339 -151 336 -150 q 358 -155 349 -153 q 387 -161 380 -160 q 404 -157 399 -161 q 408 -139 410 -151 q 397 -119 406 -127 q 382 -113 391 -115 q 374 -113 379 -113 l 367 -113 q 338 -105 346 -113 q 330 -71 332 -99 q 328 -33 328 -43 q 338 -12 330 -18 q 368 -9 349 -5 q 395 -26 387 -14 z "},"¹":{"ha":717,"x_min":49,"x_max":614,"o":"m 257 884 q 143 867 206 893 q 58 783 71 836 q 64 712 49 750 q 108 654 79 677 l 109 652 l 111 651 l 117 647 q 130 638 123 642 q 170 625 149 628 q 222 640 195 622 q 264 680 241 652 l 274 692 l 283 703 q 299 721 293 715 q 326 735 315 739 q 340 694 338 730 q 340 660 341 681 l 340 642 l 338 623 q 335 445 334 527 q 337 385 336 417 l 338 371 l 338 359 q 340 336 339 344 q 319 184 344 250 q 295 130 309 156 q 285 110 291 121 l 280 101 l 276 94 q 269 43 260 62 q 322 -4 280 16 q 415 -26 363 -23 q 515 -15 470 -30 q 593 41 567 3 q 612 104 611 66 q 604 216 614 133 q 560 623 562 603 q 562 770 557 696 q 567 827 564 795 l 568 840 l 570 852 q 572 874 571 866 q 572 945 576 922 q 545 992 567 974 q 441 1023 506 1025 q 345 987 375 1022 q 328 959 336 977 l 322 943 l 317 928 q 281 884 303 890 q 268 883 275 882 l 262 884 l 257 884 z "},"º":{"ha":549,"x_min":-3,"x_max":558,"o":"m 335 779 q 309 727 332 748 q 261 716 285 707 q 234 739 245 721 q 223 777 223 757 q 249 834 223 810 q 275 848 261 845 q 301 847 288 852 q 327 820 317 840 q 335 779 336 800 m 388 957 q 291 971 344 977 q 193 938 241 965 q 112 873 145 912 q 68 788 77 832 q 73 705 59 748 q 85 675 78 690 q 91 665 87 670 q 95 658 93 661 q 184 581 127 609 q 313 561 247 550 q 445 643 394 573 q 473 692 461 666 q 480 710 476 701 q 481 716 480 713 l 482 718 l 482 719 q 477 856 501 787 q 388 957 450 929 m 499 332 q 530 325 520 329 q 545 314 539 321 q 558 265 558 296 q 545 216 558 234 q 515 199 535 202 q 471 200 505 198 q 219 199 357 208 q 145 192 186 197 l 137 191 l 130 190 q 117 189 121 189 q 93 186 102 186 q 57 187 70 184 q 29 203 41 191 q -3 286 -2 232 q 4 329 -3 309 q 26 361 12 350 q 72 372 40 372 q 156 362 94 371 q 329 346 200 356 l 353 345 l 378 342 q 424 339 405 340 q 499 332 473 335 z "},"»":{"ha":640,"x_min":68,"x_max":522,"o":"m 78 119 l 68 119 l 68 144 l 208 325 l 68 505 l 68 530 l 78 530 l 310 325 l 78 119 m 290 119 l 281 119 l 281 144 l 420 325 l 281 505 l 281 530 l 290 530 l 522 325 l 290 119 z "},"¼":{"ha":1343,"x_min":52,"x_max":1327,"o":"m 164 948 q 102 939 136 953 q 56 894 64 922 q 60 855 52 876 q 83 824 68 837 l 84 823 l 85 823 l 88 821 q 95 815 92 818 q 117 808 106 810 q 144 817 130 807 q 168 838 155 823 l 173 844 l 178 850 q 186 860 183 857 q 201 868 195 869 q 209 846 208 865 q 209 827 209 838 l 208 817 l 208 808 q 206 711 205 755 q 207 679 206 696 l 208 671 l 208 665 q 208 652 208 656 q 197 570 211 606 q 184 541 192 555 q 179 530 182 536 l 176 526 l 174 522 q 170 494 165 505 q 199 469 176 479 q 249 457 221 458 q 303 463 279 455 q 345 493 331 473 q 355 528 355 507 q 351 588 356 543 q 328 808 328 796 q 328 887 326 847 q 331 918 329 901 l 332 924 l 332 930 q 334 943 333 939 q 334 981 336 968 q 319 1006 331 997 q 263 1023 298 1024 q 212 1004 227 1023 q 202 989 206 998 l 199 980 l 196 972 q 177 948 189 951 q 170 947 174 947 l 166 948 l 164 948 m 655 522 q 746 684 696 601 q 765 716 755 699 l 774 731 l 783 746 q 814 798 804 780 q 856 884 844 850 q 866 966 869 925 l 865 968 l 865 972 q 863 981 865 976 q 857 1007 861 995 q 824 1064 846 1044 q 741 1073 790 1095 q 678 1013 698 1053 q 353 364 389 417 q 281 248 298 282 q 256 153 256 197 q 281 71 257 109 q 298 49 288 59 q 304 42 301 45 l 307 40 l 309 39 l 309 38 l 309 37 l 312 36 q 319 31 315 33 q 346 17 332 22 q 422 22 388 1 q 477 101 454 41 q 498 166 484 121 l 505 184 l 511 204 q 525 246 518 227 q 655 522 552 323 m 770 399 q 828 557 810 520 q 890 617 856 613 q 949 595 920 620 q 983 543 979 572 q 975 511 985 530 q 935 433 975 509 q 907 376 912 390 q 907 356 903 363 q 968 332 919 333 q 1032 353 1017 330 q 1036 379 1039 363 q 1032 392 1035 385 l 1030 399 l 1027 405 q 998 564 998 483 q 1038 682 999 652 q 1099 700 1056 695 l 1102 700 l 1106 701 q 1117 701 1112 701 q 1145 701 1132 703 q 1199 682 1181 699 q 1211 626 1215 667 q 1181 460 1208 599 q 1170 381 1171 404 q 1181 340 1168 347 q 1204 342 1188 337 l 1207 342 l 1211 345 q 1220 346 1216 345 q 1244 349 1232 349 l 1257 349 q 1275 347 1267 349 q 1308 333 1297 344 q 1318 273 1327 313 q 1280 223 1308 235 q 1255 220 1269 218 q 1230 227 1246 221 q 1190 229 1200 237 q 1183 197 1181 222 l 1183 191 l 1184 184 q 1184 169 1184 176 q 1180 131 1184 150 q 1153 71 1171 86 q 1089 47 1128 49 q 1032 66 1049 46 q 1024 110 1022 78 q 1037 199 1025 132 q 1042 234 1042 227 q 1036 254 1042 248 q 1004 258 1026 262 q 984 253 997 256 l 973 250 l 962 247 q 840 237 902 231 q 752 272 774 243 q 747 282 748 276 q 745 302 745 290 q 770 399 748 333 z "},"½":{"ha":1498,"x_min":90,"x_max":1383,"o":"m 201 952 q 140 943 174 957 q 95 899 102 926 q 98 861 90 881 q 121 829 106 842 l 122 829 l 123 828 l 126 826 q 133 821 130 823 q 155 814 144 816 q 182 822 168 812 q 205 844 193 829 l 210 850 l 214 855 q 223 865 220 862 q 237 873 232 875 q 245 851 244 870 q 245 833 245 844 l 245 823 l 244 813 q 242 718 241 762 q 243 686 243 703 l 244 679 l 244 672 q 245 661 245 665 q 234 579 247 614 q 221 551 229 564 q 216 540 219 546 l 213 535 l 211 531 q 207 504 202 515 q 235 479 213 490 q 285 467 257 469 q 338 473 314 466 q 380 503 366 483 q 390 537 389 517 q 386 597 391 552 q 362 813 363 802 q 363 892 360 852 q 366 922 364 905 l 367 928 l 368 935 q 369 947 368 943 q 369 984 371 972 q 354 1010 366 1000 q 298 1026 334 1027 q 248 1007 264 1025 q 239 991 243 1002 l 235 983 l 233 975 q 214 952 225 956 q 207 951 210 951 l 203 951 l 201 952 m 706 480 q 797 642 747 559 q 816 674 806 656 l 825 689 l 834 704 q 865 755 854 738 q 907 842 895 808 q 917 924 920 883 l 916 926 l 916 930 q 914 939 916 934 q 908 965 912 953 q 875 1022 897 1002 q 792 1031 841 1053 q 729 971 749 1011 q 404 322 440 375 q 332 205 349 240 q 307 111 307 155 q 332 29 308 66 q 349 7 339 17 q 355 0 352 3 l 357 -2 l 359 -3 l 359 -4 l 360 -5 l 363 -6 q 370 -12 366 -9 q 397 -25 383 -20 q 473 -20 439 -41 q 528 59 505 -1 q 549 124 535 79 l 555 142 l 562 162 q 576 204 569 185 q 706 480 603 281 m 935 568 q 996 547 958 545 q 1054 571 1032 549 q 1069 600 1064 583 q 1072 614 1071 607 l 1074 630 q 1078 657 1076 650 q 1091 677 1082 670 q 1141 677 1110 690 q 1187 638 1171 665 q 1199 556 1208 606 q 1165 475 1191 512 q 1114 429 1145 446 q 1086 416 1101 422 l 1071 412 l 1057 407 q 999 383 1019 395 q 947 334 968 366 l 947 333 l 946 332 q 945 330 945 331 q 940 321 943 326 q 927 292 932 307 q 913 203 911 248 l 913 198 l 913 193 l 913 182 q 917 160 915 170 q 939 120 924 134 q 987 114 956 106 q 1003 118 992 115 l 1012 120 l 1021 123 q 1066 131 1045 129 q 1130 131 1099 134 q 1156 126 1141 129 l 1168 123 l 1181 121 q 1297 119 1242 106 q 1367 157 1350 131 q 1380 220 1383 183 q 1356 274 1377 257 q 1322 282 1345 284 q 1294 278 1316 281 q 1276 275 1284 277 q 1253 273 1264 274 l 1251 272 l 1248 272 q 1240 271 1244 272 q 1221 270 1230 271 q 1177 268 1196 268 q 1116 280 1120 267 q 1138 305 1114 288 q 1151 314 1143 309 l 1158 319 l 1166 324 q 1200 349 1185 338 q 1291 422 1265 398 q 1345 498 1331 460 q 1343 652 1371 566 q 1240 788 1312 743 q 1109 818 1181 825 q 1061 808 1084 815 q 1045 802 1053 806 q 1040 800 1042 802 l 1037 800 l 1036 798 l 1034 798 l 1031 797 q 1026 794 1028 795 q 1011 787 1019 791 q 975 762 991 776 q 915 667 926 722 l 915 665 l 914 662 q 913 652 913 657 q 912 627 911 639 q 935 568 915 589 z "},"¾":{"ha":1267,"x_min":41,"x_max":1228,"o":"m 67 946 q 74 882 56 917 q 115 846 92 848 q 135 852 125 845 q 144 860 139 855 l 153 869 q 170 886 163 882 q 193 894 181 895 q 239 865 218 893 q 254 815 260 836 q 235 798 251 807 q 225 793 233 797 q 220 790 222 791 q 213 787 216 789 q 178 767 195 778 q 131 728 135 742 q 135 694 127 712 q 157 666 143 677 q 191 650 172 654 q 225 649 205 648 l 233 649 l 241 650 q 254 650 248 650 q 271 642 267 649 q 269 612 277 631 q 246 573 262 593 q 214 543 231 553 q 182 534 195 530 q 169 545 174 536 q 165 554 167 549 l 160 564 q 150 583 155 576 q 131 597 142 593 q 99 599 117 603 q 70 585 83 595 l 70 584 l 68 583 q 66 581 67 582 q 58 572 62 577 q 45 544 47 558 q 67 486 41 516 q 118 445 89 460 q 203 432 154 428 q 293 457 248 435 q 368 512 338 479 q 406 587 400 547 q 401 646 411 616 q 369 697 391 680 q 332 714 354 709 q 294 718 315 718 q 278 718 287 718 l 271 718 q 264 718 267 718 q 252 720 252 717 q 262 725 252 722 l 267 726 l 273 728 q 287 732 281 730 q 317 744 304 736 q 347 767 336 753 q 374 854 375 800 q 341 951 372 910 q 227 1005 302 1002 q 174 1002 202 1006 q 155 998 165 1000 q 149 997 152 998 l 146 996 l 143 995 l 138 994 l 133 992 l 122 989 q 100 981 109 985 q 67 946 75 968 m 661 486 q 751 648 701 565 q 770 680 760 663 l 780 695 l 789 710 q 820 762 809 744 q 861 848 850 814 q 871 930 875 889 l 871 932 l 871 936 q 869 945 870 940 q 863 971 867 959 q 829 1028 851 1008 q 747 1037 795 1059 q 684 977 703 1017 q 359 328 395 381 q 287 212 304 246 q 262 117 261 161 q 286 35 262 73 q 303 13 294 23 q 310 6 307 9 l 312 4 l 314 3 l 314 2 l 315 1 l 317 0 q 325 -5 321 -3 q 351 -19 338 -14 q 428 -14 393 -35 q 483 65 460 5 q 504 130 490 85 l 510 149 l 516 168 q 530 210 524 191 q 661 486 557 287 m 671 378 q 729 536 711 499 q 791 596 757 592 q 850 574 821 599 q 884 522 880 551 q 876 490 886 509 q 836 412 876 488 q 808 355 813 369 q 808 335 804 342 q 869 311 820 312 q 933 332 918 309 q 937 358 940 342 q 933 371 936 363 l 931 378 l 928 384 q 899 543 899 462 q 939 661 900 631 q 1000 679 957 674 l 1003 679 l 1007 680 q 1018 680 1013 680 q 1046 680 1033 682 q 1100 661 1082 677 q 1112 605 1116 646 q 1082 439 1109 578 q 1071 360 1072 382 q 1082 319 1069 326 q 1105 321 1089 316 l 1108 321 l 1112 323 q 1121 325 1117 324 q 1145 328 1133 328 l 1158 328 q 1176 326 1168 328 q 1208 312 1198 323 q 1219 252 1228 292 q 1181 202 1208 214 q 1156 199 1170 197 q 1131 205 1147 200 q 1090 208 1101 216 q 1084 176 1082 201 l 1084 170 l 1085 163 q 1085 148 1085 155 q 1081 110 1085 129 q 1054 50 1072 65 q 990 26 1029 28 q 933 45 950 25 q 925 89 923 57 q 938 178 926 111 q 943 213 943 206 q 937 233 943 227 q 905 237 927 241 q 885 232 898 235 l 874 229 l 863 226 q 741 216 803 210 q 653 251 675 222 q 648 261 649 255 q 646 281 646 269 q 671 378 649 312 z "},"¿":{"ha":597,"x_min":-22,"x_max":584,"o":"m 564 -24 q 502 43 548 18 q 426 54 457 68 q 395 12 410 46 q 380 -20 387 -8 q 351 -52 368 -38 l 349 -54 l 345 -57 q 338 -62 342 -60 q 320 -74 329 -69 q 273 -84 295 -87 q 204 -32 233 -79 q 191 51 177 15 q 210 74 196 65 q 243 89 218 80 l 253 92 l 264 97 q 288 107 277 102 q 345 144 318 122 l 355 151 l 365 160 q 387 180 377 170 q 426 238 412 207 l 428 243 l 431 248 q 436 263 433 256 q 447 300 444 283 q 431 382 456 353 q 369 414 409 409 q 300 401 330 420 q 271 370 281 390 q 260 328 266 357 l 258 317 l 255 306 q 248 282 252 292 q 220 235 239 255 q 123 193 189 201 l 98 190 q 73 185 83 188 q 28 160 47 178 q -10 89 2 134 q -16 -9 -22 44 q 75 -207 -5 -128 q 267 -288 152 -283 q 457 -236 376 -294 q 544 -142 511 -198 q 564 -24 584 -76 m 479 561 q 467 630 484 596 q 418 680 449 663 q 328 690 376 703 q 255 635 279 677 q 238 557 234 600 q 271 486 242 515 q 357 458 305 453 q 438 490 404 462 l 439 492 l 441 494 q 447 498 444 496 q 459 513 454 505 q 479 561 475 535 z "},"À":{"ha":852,"x_min":-16,"x_max":862,"o":"m 471 452 q 399 429 446 435 q 332 439 349 422 q 323 501 321 451 q 340 602 326 548 q 374 692 355 660 q 416 717 395 728 q 432 696 426 711 q 439 677 434 690 l 441 671 l 443 665 q 448 649 446 656 q 479 521 473 578 q 471 452 486 463 m 627 722 l 623 736 q 615 764 618 752 q 594 823 605 798 q 511 922 564 890 q 417 954 470 949 q 315 940 361 960 q 260 897 280 926 q 226 820 243 873 q 208 764 221 805 q 198 732 202 745 q 186 695 192 712 q 115 508 155 601 q -14 55 24 293 l -15 51 l -16 45 q -16 32 -16 39 q -9 -4 -16 13 q 51 -60 7 -39 q 130 -77 88 -77 q 223 -55 178 -78 q 292 11 271 -31 q 312 205 303 33 q 327 284 315 270 q 410 321 353 318 q 500 293 467 325 q 523 229 519 275 l 524 218 l 525 208 q 528 182 526 194 q 547 117 534 150 q 613 11 578 34 q 729 -8 659 -19 q 836 49 800 3 q 852 134 862 84 q 803 256 844 172 l 794 275 l 785 295 q 764 338 773 319 q 720 439 739 391 q 630 708 666 569 l 627 722 m 500 1006 q 478 985 496 991 q 441 983 460 978 q 403 1004 429 985 q 307 1081 338 1052 q 259 1133 264 1120 q 258 1174 252 1154 q 282 1204 264 1195 q 322 1206 299 1212 q 339 1202 330 1205 q 345 1199 342 1200 l 348 1198 l 349 1197 q 382 1172 366 1189 q 435 1107 393 1161 q 491 1034 484 1045 q 500 1006 503 1016 z "},"Á":{"ha":852,"x_min":-16,"x_max":862,"o":"m 471 452 q 399 429 446 435 q 332 439 349 422 q 323 501 321 451 q 340 602 326 548 q 374 692 355 660 q 416 717 395 728 q 432 696 426 711 q 439 677 434 690 l 441 671 l 443 665 q 448 649 446 656 q 479 521 473 578 q 471 452 486 463 m 627 722 l 623 736 q 615 764 618 752 q 594 823 605 798 q 511 922 564 890 q 417 954 470 949 q 315 940 361 960 q 260 897 280 926 q 226 820 243 873 q 208 764 221 805 q 198 732 202 745 q 186 695 192 712 q 115 508 155 601 q -14 55 24 293 l -15 51 l -16 45 q -16 32 -16 39 q -9 -4 -16 13 q 51 -60 7 -39 q 130 -77 88 -77 q 223 -55 178 -78 q 292 11 271 -31 q 312 205 303 33 q 327 284 315 270 q 410 321 353 318 q 500 293 467 325 q 523 229 519 275 l 524 218 l 525 208 q 528 182 526 194 q 547 117 534 150 q 613 11 578 34 q 729 -8 659 -19 q 836 49 800 3 q 852 134 862 84 q 803 256 844 172 l 794 275 l 785 295 q 764 338 773 319 q 720 439 739 391 q 630 708 666 569 l 627 722 m 338 1006 q 347 1034 335 1016 q 404 1107 355 1045 q 456 1172 446 1161 q 489 1197 472 1189 l 490 1198 l 493 1199 q 499 1202 496 1200 q 516 1206 508 1205 q 556 1204 539 1212 q 580 1174 574 1195 q 579 1133 586 1154 q 532 1081 574 1120 q 435 1004 500 1052 q 397 983 409 985 q 360 985 378 978 q 338 1006 342 991 z "},"Â":{"ha":852,"x_min":-16,"x_max":862,"o":"m 471 452 q 399 429 446 435 q 332 439 349 422 q 323 501 321 451 q 340 602 326 548 q 374 692 355 660 q 416 717 395 728 q 432 696 426 711 q 439 677 434 690 l 441 671 l 443 665 q 448 649 446 656 q 479 521 473 578 q 471 452 486 463 m 627 722 l 623 736 q 615 764 618 752 q 594 823 605 798 q 511 922 564 890 q 417 954 470 949 q 315 940 361 960 q 260 897 280 926 q 226 820 243 873 q 208 764 221 805 q 198 732 202 745 q 186 695 192 712 q 115 508 155 601 q -14 55 24 293 l -15 51 l -16 45 q -16 32 -16 39 q -9 -4 -16 13 q 51 -60 7 -39 q 130 -77 88 -77 q 223 -55 178 -78 q 292 11 271 -31 q 312 205 303 33 q 327 284 315 270 q 410 321 353 318 q 500 293 467 325 q 523 229 519 275 l 524 218 l 525 208 q 528 182 526 194 q 547 117 534 150 q 613 11 578 34 q 729 -8 659 -19 q 836 49 800 3 q 852 134 862 84 q 803 256 844 172 l 794 275 l 785 295 q 764 338 773 319 q 720 439 739 391 q 630 708 666 569 l 627 722 m 292 1070 q 350 1131 298 1088 q 406 1173 389 1163 q 425 1179 417 1179 q 474 1147 448 1175 q 496 1120 484 1137 q 507 1105 501 1114 l 518 1090 q 546 1045 539 1059 q 551 1005 556 1022 q 536 985 547 994 q 507 977 524 977 q 476 987 492 978 q 454 1008 460 996 q 452 1032 449 1017 q 453 1046 453 1040 q 449 1064 452 1055 q 446 1072 448 1067 q 440 1081 443 1077 q 428 1092 433 1091 q 420 1081 422 1093 q 418 1069 420 1078 l 418 1065 l 418 1062 q 416 1054 417 1057 q 408 1021 413 1034 q 385 992 399 1002 q 343 979 367 981 q 302 990 318 978 q 286 1031 286 1004 q 287 1053 285 1041 q 292 1070 289 1062 z "},"Ã":{"ha":852,"x_min":-16,"x_max":862,"o":"m 471 452 q 399 429 446 435 q 332 439 349 422 q 323 501 321 451 q 340 602 326 548 q 374 692 355 660 q 416 717 395 728 q 432 696 426 711 q 439 677 434 690 l 441 671 l 443 665 q 448 649 446 656 q 479 521 473 578 q 471 452 486 463 m 627 722 l 623 736 q 615 764 618 752 q 594 823 605 798 q 511 922 564 890 q 417 954 470 949 q 315 940 361 960 q 260 897 280 926 q 226 820 243 873 q 208 764 221 805 q 198 732 202 745 q 186 695 192 712 q 115 508 155 601 q -14 55 24 293 l -15 51 l -16 45 q -16 32 -16 39 q -9 -4 -16 13 q 51 -60 7 -39 q 130 -77 88 -77 q 223 -55 178 -78 q 292 11 271 -31 q 312 205 303 33 q 327 284 315 270 q 410 321 353 318 q 500 293 467 325 q 523 229 519 275 l 524 218 l 525 208 q 528 182 526 194 q 547 117 534 150 q 613 11 578 34 q 729 -8 659 -19 q 836 49 800 3 q 852 134 862 84 q 803 256 844 172 l 794 275 l 785 295 q 764 338 773 319 q 720 439 739 391 q 630 708 666 569 l 627 722 m 298 1046 q 336 1110 312 1083 q 387 1139 364 1144 q 422 1114 402 1135 q 435 1100 428 1107 q 438 1095 437 1097 q 439 1093 439 1093 l 440 1092 l 440 1092 q 443 1088 441 1090 l 445 1085 q 448 1080 447 1082 q 455 1076 452 1076 q 467 1083 460 1076 q 471 1090 469 1086 l 474 1095 l 477 1100 q 488 1118 484 1113 q 505 1128 496 1127 q 527 1122 515 1131 q 543 1103 537 1114 q 545 1044 556 1079 q 506 998 533 1010 q 450 1002 481 987 q 406 1041 421 1016 q 401 1050 404 1044 l 399 1054 l 397 1057 q 389 1064 393 1065 q 383 1055 385 1064 q 380 1046 382 1053 l 380 1041 l 378 1036 q 372 1012 376 1021 q 356 992 366 999 q 321 984 342 981 q 292 1000 300 986 q 290 1022 288 1008 q 298 1046 292 1030 z "},"Ä":{"ha":852,"x_min":-16,"x_max":862,"o":"m 471 452 q 399 429 446 435 q 332 439 349 422 q 323 501 321 451 q 340 602 326 548 q 374 692 355 660 q 416 717 395 728 q 432 696 426 711 q 439 677 434 690 l 441 671 l 443 665 q 448 649 446 656 q 479 521 473 578 q 471 452 486 463 m 627 722 l 623 736 q 615 764 618 752 q 594 823 605 798 q 511 922 564 890 q 417 954 470 949 q 315 940 361 960 q 260 897 280 926 q 226 820 243 873 q 208 764 221 805 q 198 732 202 745 q 186 695 192 712 q 115 508 155 601 q -14 55 24 293 l -15 51 l -16 45 q -16 32 -16 39 q -9 -4 -16 13 q 51 -60 7 -39 q 130 -77 88 -77 q 223 -55 178 -78 q 292 11 271 -31 q 312 205 303 33 q 327 284 315 270 q 410 321 353 318 q 500 293 467 325 q 523 229 519 275 l 524 218 l 525 208 q 528 182 526 194 q 547 117 534 150 q 613 11 578 34 q 729 -8 659 -19 q 836 49 800 3 q 852 134 862 84 q 803 256 844 172 l 794 275 l 785 295 q 764 338 773 319 q 720 439 739 391 q 630 708 666 569 l 627 722 m 357 1121 q 378 1096 372 1112 q 384 1071 385 1085 q 322 997 384 1008 q 290 1000 304 994 q 260 1028 265 1010 q 263 1072 259 1052 q 269 1095 265 1086 q 330 1127 286 1127 q 357 1121 346 1128 m 551 1121 q 572 1096 566 1112 q 578 1071 578 1085 q 516 997 578 1008 q 484 1000 498 994 q 454 1028 459 1010 q 457 1072 453 1052 q 463 1095 459 1086 q 524 1127 479 1127 q 551 1121 540 1128 z "},"Å":{"ha":852,"x_min":-16,"x_max":862,"o":"m 471 452 q 399 429 446 435 q 332 439 349 422 q 323 501 321 451 q 340 602 326 548 q 374 692 355 660 q 416 717 395 728 q 432 696 426 711 q 439 677 434 690 l 441 671 l 443 665 q 448 649 446 656 q 479 521 473 578 q 471 452 486 463 m 627 722 l 623 736 q 615 764 618 752 q 594 823 605 798 q 511 922 564 890 q 417 954 470 949 q 315 940 361 960 q 260 897 280 926 q 226 820 243 873 q 208 764 221 805 q 198 732 202 745 q 186 695 192 712 q 115 508 155 601 q -14 55 24 293 l -15 51 l -16 45 q -16 32 -16 39 q -9 -4 -16 13 q 51 -60 7 -39 q 130 -77 88 -77 q 223 -55 178 -78 q 292 11 271 -31 q 312 205 303 33 q 327 284 315 270 q 410 321 353 318 q 500 293 467 325 q 523 229 519 275 l 524 218 l 525 208 q 528 182 526 194 q 547 117 534 150 q 613 11 578 34 q 729 -8 659 -19 q 836 49 800 3 q 852 134 862 84 q 803 256 844 172 l 794 275 l 785 295 q 764 338 773 319 q 720 439 739 391 q 630 708 666 569 l 627 722 m 351 1131 q 370 1082 351 1102 q 418 1063 390 1063 q 467 1082 447 1063 q 486 1131 486 1102 q 466 1178 486 1158 q 418 1198 446 1198 q 371 1178 391 1198 q 351 1131 351 1158 m 299 1131 q 334 1216 299 1181 q 418 1251 368 1251 q 505 1216 470 1251 q 540 1131 540 1181 q 505 1045 540 1080 q 418 1010 470 1010 q 334 1045 368 1010 q 299 1131 299 1080 z "},"Æ":{"ha":1356,"x_min":20,"x_max":1246,"o":"m 508 462 q 436 438 483 444 q 369 449 386 431 q 360 511 357 460 q 376 612 363 557 q 410 701 391 669 q 453 726 432 738 q 469 706 463 721 q 475 686 471 700 l 477 680 l 479 674 q 485 659 482 665 q 516 530 509 588 q 508 462 523 473 m 663 731 l 660 745 q 652 774 655 762 q 631 833 642 808 q 548 932 600 900 q 454 964 507 958 q 352 949 398 970 q 297 907 317 935 q 262 829 280 882 q 245 774 258 814 q 235 741 239 754 q 223 705 229 722 q 152 517 191 610 q 22 64 61 302 l 22 60 l 21 55 q 20 41 20 48 q 28 5 21 22 q 87 -50 43 -30 q 167 -68 125 -67 q 260 -45 215 -68 q 328 20 307 -21 q 349 214 340 43 q 363 294 352 279 q 446 331 389 328 q 536 302 504 334 q 559 239 555 285 l 560 228 l 562 217 q 565 191 563 203 q 583 126 570 159 q 650 20 614 43 q 766 1 696 -9 q 872 58 837 13 q 888 144 899 94 q 840 266 880 181 l 831 285 l 821 304 q 801 348 810 329 q 756 448 776 401 q 667 718 703 578 l 663 731 m 953 700 q 956 701 955 701 l 953 700 m 697 772 q 637 441 655 665 q 629 263 631 355 q 628 125 627 186 q 665 12 630 44 q 730 -13 688 -11 q 772 -12 745 -14 l 784 -11 l 796 -10 q 823 -9 811 -9 q 951 -14 890 -6 q 998 -21 973 -16 q 1018 -25 1006 -22 l 1027 -27 l 1036 -28 q 1096 -36 1077 -37 q 1147 -16 1124 -34 q 1209 72 1191 15 q 1206 156 1227 127 q 1169 171 1198 167 q 1027 178 1138 175 q 932 183 950 181 q 894 201 906 187 q 875 267 873 226 q 901 333 878 309 l 903 334 l 904 335 q 908 338 906 337 q 924 346 914 342 q 1005 358 952 355 q 1065 359 1036 360 q 1087 358 1075 359 l 1096 357 l 1105 357 q 1150 366 1136 355 q 1181 446 1181 390 q 1152 528 1183 502 q 1109 542 1139 540 q 1032 538 1090 543 q 981 532 1006 536 l 972 531 l 963 530 q 949 528 953 528 q 911 533 924 524 q 885 595 887 551 q 904 672 882 639 q 906 676 905 674 q 910 681 908 679 q 921 692 915 687 q 960 718 937 708 q 1031 730 994 732 q 1095 717 1057 728 l 1109 713 l 1123 709 q 1149 703 1139 705 q 1197 713 1177 700 q 1238 786 1229 734 q 1224 872 1246 838 q 1169 903 1210 895 q 1017 922 1168 903 q 835 909 901 935 q 786 882 810 899 q 767 867 779 876 l 749 852 q 716 813 729 836 q 705 793 711 804 q 697 772 702 785 z "},"Ç":{"ha":730,"x_min":19,"x_max":733,"o":"m 397 665 q 496 645 434 673 q 546 627 526 631 q 610 626 577 620 l 613 627 l 617 627 q 627 629 623 628 q 652 637 641 633 q 705 677 686 652 q 728 774 733 715 q 696 868 724 828 q 604 932 665 910 q 468 952 544 954 q 182 850 300 948 q 60 667 99 781 q 37 578 45 626 q 31 541 34 561 q 29 525 31 534 l 28 517 l 28 510 l 26 502 l 26 492 q 24 473 24 482 q 21 429 22 450 q 26 323 19 372 q 132 102 45 189 q 355 -4 220 14 q 446 -8 399 -10 q 479 -5 463 -7 q 490 -4 484 -5 l 494 -3 l 498 -3 l 510 -1 l 523 1 q 549 5 537 3 q 605 22 581 12 q 696 98 669 47 q 712 215 723 151 q 663 297 701 279 q 628 299 648 304 q 587 281 616 296 q 563 269 572 274 q 534 258 548 262 q 458 243 498 245 l 452 242 l 444 241 q 427 241 435 241 q 389 243 406 241 q 308 275 341 250 q 247 380 261 311 q 250 499 235 440 q 302 603 265 557 q 397 665 345 655 m 382 -26 q 387 -41 386 -32 q 387 -47 387 -43 l 386 -55 q 386 -67 385 -64 q 391 -75 387 -73 q 399 -76 394 -77 l 402 -75 l 405 -75 q 411 -74 408 -74 q 447 -84 429 -72 q 471 -109 463 -95 q 471 -168 485 -134 q 430 -218 458 -200 q 332 -231 389 -245 q 292 -214 309 -225 q 272 -189 275 -202 q 277 -163 269 -177 q 296 -145 285 -149 q 313 -146 303 -143 l 316 -147 l 319 -149 q 326 -151 323 -150 q 345 -155 336 -153 q 374 -161 367 -160 q 391 -157 387 -161 q 395 -139 397 -151 q 384 -119 393 -127 q 370 -113 378 -115 q 361 -113 366 -113 l 354 -113 q 326 -105 333 -113 q 317 -71 319 -99 q 315 -33 315 -43 q 325 -12 317 -18 q 355 -9 336 -5 q 382 -26 374 -14 z "},"È":{"ha":656,"x_min":31,"x_max":650,"o":"m 311 732 q 314 734 313 734 l 311 732 m 102 802 q 110 822 106 814 q 121 842 115 833 q 153 881 134 865 l 172 896 q 191 911 183 905 q 239 938 214 928 q 422 951 306 964 q 574 932 573 932 q 629 901 614 924 q 642 815 650 867 q 602 742 633 764 q 554 732 582 729 q 528 738 543 734 l 513 742 l 499 746 q 436 759 461 758 q 365 747 399 762 q 326 722 342 737 q 315 710 319 716 q 311 705 313 708 q 309 701 310 703 q 290 624 287 668 q 316 562 292 581 q 353 557 328 553 q 368 559 357 557 l 376 560 l 386 562 q 437 567 411 566 q 514 571 494 572 q 557 557 543 569 q 586 475 587 531 q 555 395 585 419 q 509 386 541 384 l 500 387 l 492 387 q 470 389 479 388 q 410 387 441 389 q 329 375 357 384 q 313 368 319 372 q 309 364 311 366 l 307 363 l 306 362 q 279 296 282 338 q 298 231 277 255 q 337 212 311 216 q 431 208 355 210 q 574 200 543 204 q 611 185 603 196 q 614 101 632 157 q 552 13 595 44 q 500 -7 528 -5 q 441 1 481 -7 l 432 2 l 422 4 q 402 8 411 7 q 355 16 378 13 q 227 20 294 23 q 201 19 216 20 l 189 18 l 176 17 q 134 16 150 16 q 70 41 93 18 q 33 155 35 73 q 33 292 31 215 q 42 471 35 385 q 102 802 60 694 m 420 1006 q 397 985 416 991 q 360 983 379 978 q 322 1004 349 985 q 226 1081 257 1052 q 178 1133 183 1120 q 178 1174 172 1154 q 201 1204 184 1195 q 241 1206 218 1212 q 258 1202 250 1205 q 264 1199 261 1200 l 267 1198 l 269 1197 q 301 1172 286 1189 q 354 1107 312 1161 q 410 1034 403 1045 q 420 1006 422 1016 z "},"É":{"ha":656,"x_min":31,"x_max":650,"o":"m 311 732 q 314 734 313 734 l 311 732 m 102 802 q 110 822 106 814 q 121 842 115 833 q 153 881 134 865 l 172 896 q 191 911 183 905 q 239 938 214 928 q 422 951 306 964 q 574 932 573 932 q 629 901 614 924 q 642 815 650 867 q 602 742 633 764 q 554 732 582 729 q 528 738 543 734 l 513 742 l 499 746 q 436 759 461 758 q 365 747 399 762 q 326 722 342 737 q 315 710 319 716 q 311 705 313 708 q 309 701 310 703 q 290 624 287 668 q 316 562 292 581 q 353 557 328 553 q 368 559 357 557 l 376 560 l 386 562 q 437 567 411 566 q 514 571 494 572 q 557 557 543 569 q 586 475 587 531 q 555 395 585 419 q 509 386 541 384 l 500 387 l 492 387 q 470 389 479 388 q 410 387 441 389 q 329 375 357 384 q 313 368 319 372 q 309 364 311 366 l 307 363 l 306 362 q 279 296 282 338 q 298 231 277 255 q 337 212 311 216 q 431 208 355 210 q 574 200 543 204 q 611 185 603 196 q 614 101 632 157 q 552 13 595 44 q 500 -7 528 -5 q 441 1 481 -7 l 432 2 l 422 4 q 402 8 411 7 q 355 16 378 13 q 227 20 294 23 q 201 19 216 20 l 189 18 l 176 17 q 134 16 150 16 q 70 41 93 18 q 33 155 35 73 q 33 292 31 215 q 42 471 35 385 q 102 802 60 694 m 257 1006 q 267 1034 254 1016 q 323 1107 274 1045 q 376 1172 365 1161 q 408 1197 391 1189 l 410 1198 l 412 1199 q 418 1202 416 1200 q 435 1206 427 1205 q 475 1204 458 1212 q 499 1174 493 1195 q 498 1133 505 1154 q 451 1081 494 1120 q 355 1004 420 1052 q 317 983 328 985 q 279 985 298 978 q 257 1006 261 991 z "},"Ê":{"ha":656,"x_min":31,"x_max":650,"o":"m 311 732 q 314 734 313 734 l 311 732 m 102 802 q 110 822 106 814 q 121 842 115 833 q 153 881 134 865 l 172 896 q 191 911 183 905 q 239 938 214 928 q 422 951 306 964 q 574 932 573 932 q 629 901 614 924 q 642 815 650 867 q 602 742 633 764 q 554 732 582 729 q 528 738 543 734 l 513 742 l 499 746 q 436 759 461 758 q 365 747 399 762 q 326 722 342 737 q 315 710 319 716 q 311 705 313 708 q 309 701 310 703 q 290 624 287 668 q 316 562 292 581 q 353 557 328 553 q 368 559 357 557 l 376 560 l 386 562 q 437 567 411 566 q 514 571 494 572 q 557 557 543 569 q 586 475 587 531 q 555 395 585 419 q 509 386 541 384 l 500 387 l 492 387 q 470 389 479 388 q 410 387 441 389 q 329 375 357 384 q 313 368 319 372 q 309 364 311 366 l 307 363 l 306 362 q 279 296 282 338 q 298 231 277 255 q 337 212 311 216 q 431 208 355 210 q 574 200 543 204 q 611 185 603 196 q 614 101 632 157 q 552 13 595 44 q 500 -7 528 -5 q 441 1 481 -7 l 432 2 l 422 4 q 402 8 411 7 q 355 16 378 13 q 227 20 294 23 q 201 19 216 20 l 189 18 l 176 17 q 134 16 150 16 q 70 41 93 18 q 33 155 35 73 q 33 292 31 215 q 42 471 35 385 q 102 802 60 694 m 211 1070 q 269 1131 217 1088 q 326 1173 308 1163 q 344 1179 336 1179 q 393 1147 368 1175 q 416 1120 404 1137 q 427 1105 420 1114 l 437 1090 q 465 1045 458 1059 q 470 1005 475 1022 q 456 985 466 994 q 427 977 444 977 q 395 987 411 978 q 373 1008 380 996 q 371 1032 368 1017 q 372 1046 372 1040 q 368 1064 372 1055 q 365 1072 367 1067 q 359 1081 362 1077 q 347 1092 353 1091 q 340 1081 342 1093 q 338 1069 339 1078 l 337 1065 l 337 1062 q 336 1054 336 1057 q 327 1021 332 1034 q 304 992 319 1002 q 262 979 286 981 q 222 990 237 978 q 205 1031 205 1004 q 206 1053 204 1041 q 211 1070 208 1062 z "},"Ë":{"ha":656,"x_min":31,"x_max":650,"o":"m 311 732 q 314 734 313 734 l 311 732 m 102 802 q 110 822 106 814 q 121 842 115 833 q 153 881 134 865 l 172 896 q 191 911 183 905 q 239 938 214 928 q 422 951 306 964 q 574 932 573 932 q 629 901 614 924 q 642 815 650 867 q 602 742 633 764 q 554 732 582 729 q 528 738 543 734 l 513 742 l 499 746 q 436 759 461 758 q 365 747 399 762 q 326 722 342 737 q 315 710 319 716 q 311 705 313 708 q 309 701 310 703 q 290 624 287 668 q 316 562 292 581 q 353 557 328 553 q 368 559 357 557 l 376 560 l 386 562 q 437 567 411 566 q 514 571 494 572 q 557 557 543 569 q 586 475 587 531 q 555 395 585 419 q 509 386 541 384 l 500 387 l 492 387 q 470 389 479 388 q 410 387 441 389 q 329 375 357 384 q 313 368 319 372 q 309 364 311 366 l 307 363 l 306 362 q 279 296 282 338 q 298 231 277 255 q 337 212 311 216 q 431 208 355 210 q 574 200 543 204 q 611 185 603 196 q 614 101 632 157 q 552 13 595 44 q 500 -7 528 -5 q 441 1 481 -7 l 432 2 l 422 4 q 402 8 411 7 q 355 16 378 13 q 227 20 294 23 q 201 19 216 20 l 189 18 l 176 17 q 134 16 150 16 q 70 41 93 18 q 33 155 35 73 q 33 292 31 215 q 42 471 35 385 q 102 802 60 694 m 276 1121 q 298 1096 291 1112 q 303 1071 304 1085 q 241 997 303 1008 q 209 1000 224 994 q 180 1028 184 1010 q 182 1072 178 1052 q 189 1095 184 1086 q 250 1127 205 1127 q 276 1121 265 1128 m 470 1121 q 492 1096 485 1112 q 497 1071 498 1085 q 435 997 497 1008 q 403 1000 418 994 q 374 1028 378 1010 q 376 1072 372 1052 q 382 1095 378 1086 q 444 1127 399 1127 q 470 1121 459 1128 z "},"Ì":{"ha":391,"x_min":0,"x_max":363,"o":"m 308 500 q 332 658 316 575 q 338 690 335 672 l 342 705 l 345 720 q 355 771 351 753 q 359 852 363 822 q 328 916 354 888 l 327 918 l 324 920 q 317 926 321 924 q 296 943 308 936 q 227 970 263 965 q 123 941 170 978 q 79 870 81 908 q 30 254 44 308 q 4 136 7 170 q 24 57 0 88 q 95 7 47 24 q 127 -2 111 1 q 139 -4 134 -3 l 143 -5 l 146 -5 l 146 -5 l 147 -5 l 151 -5 q 163 -6 157 -6 q 202 -4 183 -7 q 291 32 260 2 q 315 114 319 60 q 307 171 313 132 l 304 187 l 302 204 q 296 241 298 224 q 308 500 289 309 m 263 1006 q 241 985 259 991 q 203 983 222 978 q 165 1004 192 985 q 69 1081 100 1052 q 22 1133 26 1120 q 21 1174 15 1154 q 45 1204 27 1195 q 85 1206 62 1212 q 102 1202 93 1205 q 108 1199 104 1200 l 111 1198 l 112 1197 q 144 1172 129 1189 q 197 1107 155 1161 q 254 1034 246 1045 q 263 1006 266 1016 z "},"Í":{"ha":391,"x_min":0,"x_max":363,"o":"m 308 500 q 332 658 316 575 q 338 690 335 672 l 342 705 l 345 720 q 355 771 351 753 q 359 852 363 822 q 328 916 354 888 l 327 918 l 324 920 q 317 926 321 924 q 296 943 308 936 q 227 970 263 965 q 123 941 170 978 q 79 870 81 908 q 30 254 44 308 q 4 136 7 170 q 24 57 0 88 q 95 7 47 24 q 127 -2 111 1 q 139 -4 134 -3 l 143 -5 l 146 -5 l 146 -5 l 147 -5 l 151 -5 q 163 -6 157 -6 q 202 -4 183 -7 q 291 32 260 2 q 315 114 319 60 q 307 171 313 132 l 304 187 l 302 204 q 296 241 298 224 q 308 500 289 309 m 101 1006 q 111 1034 98 1016 q 167 1107 118 1045 q 220 1172 209 1161 q 252 1197 235 1189 l 254 1198 l 256 1199 q 262 1202 260 1200 q 279 1206 271 1205 q 319 1204 302 1212 q 343 1174 337 1195 q 342 1133 349 1154 q 295 1081 338 1120 q 199 1004 264 1052 q 161 983 172 985 q 123 985 142 978 q 101 1006 105 991 z "},"Î":{"ha":391,"x_min":0,"x_max":363,"o":"m 308 500 q 332 658 316 575 q 338 690 335 672 l 342 705 l 345 720 q 355 771 351 753 q 359 852 363 822 q 328 916 354 888 l 327 918 l 324 920 q 317 926 321 924 q 296 943 308 936 q 227 970 263 965 q 123 941 170 978 q 79 870 81 908 q 30 254 44 308 q 4 136 7 170 q 24 57 0 88 q 95 7 47 24 q 127 -2 111 1 q 139 -4 134 -3 l 143 -5 l 146 -5 l 146 -5 l 147 -5 l 151 -5 q 163 -6 157 -6 q 202 -4 183 -7 q 291 32 260 2 q 315 114 319 60 q 307 171 313 132 l 304 187 l 302 204 q 296 241 298 224 q 308 500 289 309 m 55 1070 q 113 1131 61 1088 q 170 1173 152 1163 q 188 1179 180 1179 q 237 1147 212 1175 q 260 1120 248 1137 q 271 1105 264 1114 l 281 1090 q 309 1045 302 1059 q 314 1005 319 1022 q 300 985 310 994 q 271 977 288 977 q 239 987 255 978 q 217 1008 224 996 q 215 1032 212 1017 q 216 1046 216 1040 q 212 1064 216 1055 q 209 1072 211 1067 q 203 1081 206 1077 q 191 1092 197 1091 q 184 1081 186 1093 q 182 1069 183 1078 l 181 1065 l 181 1062 q 180 1054 180 1057 q 171 1021 176 1034 q 148 992 163 1002 q 106 979 130 981 q 66 990 81 978 q 49 1031 50 1004 q 50 1053 48 1041 q 55 1070 52 1062 z "},"Ï":{"ha":391,"x_min":0,"x_max":363,"o":"m 308 500 q 332 658 316 575 q 338 690 335 672 l 342 705 l 345 720 q 355 771 351 753 q 359 852 363 822 q 328 916 354 888 l 327 918 l 324 920 q 317 926 321 924 q 296 943 308 936 q 227 970 263 965 q 123 941 170 978 q 79 870 81 908 q 30 254 44 308 q 4 136 7 170 q 24 57 0 88 q 95 7 47 24 q 127 -2 111 1 q 139 -4 134 -3 l 143 -5 l 146 -5 l 146 -5 l 147 -5 l 151 -5 q 163 -6 157 -6 q 202 -4 183 -7 q 291 32 260 2 q 315 114 319 60 q 307 171 313 132 l 304 187 l 302 204 q 296 241 298 224 q 308 500 289 309 m 120 1121 q 142 1096 135 1112 q 147 1071 148 1085 q 85 997 147 1008 q 53 1000 68 994 q 24 1028 28 1010 q 26 1072 22 1052 q 33 1095 28 1086 q 94 1127 49 1127 q 120 1121 109 1128 m 314 1121 q 336 1096 329 1112 q 341 1071 342 1085 q 279 997 341 1008 q 247 1000 262 994 q 218 1028 222 1010 q 220 1072 216 1052 q 227 1095 222 1086 q 288 1127 243 1127 q 314 1121 303 1128 z "},"Ð":{"ha":750,"x_min":33,"x_max":730,"o":"m 135 529 q 95 532 107 532 q 58 525 68 533 q 39 500 45 516 q 33 466 33 484 q 60 402 34 425 q 83 390 70 393 q 113 389 94 387 q 132 391 120 389 l 133 391 q 90 79 125 183 l 90 73 l 91 67 q 92 52 91 58 q 106 18 96 31 q 169 -5 125 -7 q 280 14 194 -3 q 528 86 466 52 q 689 305 640 149 l 689 306 l 690 307 l 690 310 q 692 320 692 315 q 701 353 697 336 q 717 460 713 406 q 665 753 730 629 q 459 911 604 871 q 336 932 411 924 l 305 936 l 275 939 q 220 947 242 943 q 186 951 198 950 q 153 953 167 954 q 102 928 117 950 q 92 901 95 917 q 90 890 91 895 l 90 881 q 136 702 90 837 q 135 607 136 670 l 135 529 m 388 507 q 383 553 387 530 q 378 581 382 565 l 376 593 l 375 604 q 382 663 368 649 q 416 674 393 677 q 431 671 423 673 q 437 669 435 671 l 439 669 l 440 668 q 482 630 465 659 q 494 606 488 619 q 499 595 496 601 l 500 589 l 502 585 q 515 465 522 530 q 506 416 512 441 q 500 396 503 407 l 498 387 l 495 379 q 460 317 481 334 q 426 298 445 303 q 391 303 404 292 q 380 326 382 311 q 382 362 379 337 l 383 374 l 385 386 q 387 401 386 394 q 425 400 406 401 q 461 399 452 398 q 486 412 477 401 q 497 450 497 426 q 486 488 497 475 q 473 496 481 493 q 448 502 465 500 q 388 507 427 505 z "},"Ñ":{"ha":806,"x_min":19,"x_max":760,"o":"m 75 720 q 71 119 19 348 q 77 94 74 104 q 87 67 81 79 q 127 27 102 38 q 226 33 168 9 q 315 100 284 56 q 333 174 334 129 q 329 233 332 189 q 326 273 327 257 q 323 322 324 298 l 322 336 l 321 352 l 321 385 q 319 450 319 423 q 332 525 320 523 q 390 433 350 528 q 454 210 435 328 q 458 185 456 200 l 460 174 l 461 162 q 469 122 465 136 q 507 65 479 83 q 596 45 542 43 q 689 73 650 47 q 722 112 712 89 q 735 176 732 134 q 738 222 736 193 q 739 250 738 231 l 739 264 l 740 281 q 749 444 743 368 l 750 446 l 750 448 q 751 455 750 452 q 752 475 751 465 q 755 543 754 507 q 758 762 760 652 q 750 863 757 834 q 715 916 741 901 q 628 922 681 935 q 545 877 575 910 q 522 801 522 852 q 524 730 522 784 q 526 681 526 701 q 528 621 527 650 q 526 509 529 542 q 522 491 524 496 q 519 486 521 487 q 511 519 515 486 l 510 527 l 509 535 q 506 555 507 546 q 497 600 503 578 q 461 705 484 658 q 384 808 431 766 q 262 883 330 857 q 140 888 187 911 q 98 836 111 875 q 75 720 88 807 m 281 1046 q 319 1110 295 1083 q 370 1139 347 1144 q 405 1114 385 1135 q 418 1100 411 1107 q 421 1095 420 1097 q 422 1093 422 1093 l 423 1092 l 423 1092 q 426 1088 425 1090 l 428 1085 q 431 1080 430 1082 q 438 1076 435 1076 q 450 1083 444 1076 q 454 1090 452 1086 l 457 1095 l 460 1100 q 471 1118 467 1113 q 488 1128 479 1127 q 510 1122 498 1131 q 526 1103 520 1114 q 528 1044 539 1079 q 489 998 516 1010 q 433 1002 464 987 q 389 1041 404 1016 q 384 1050 387 1044 l 382 1054 l 380 1057 q 372 1064 376 1065 q 366 1055 368 1064 q 363 1046 365 1053 l 363 1041 l 361 1036 q 355 1012 359 1021 q 339 992 349 999 q 304 984 325 981 q 275 1000 283 986 q 273 1022 271 1008 q 281 1046 275 1030 z "},"Ò":{"ha":904,"x_min":-24,"x_max":909,"o":"m 593 522 q 526 368 587 429 q 401 333 465 308 q 330 404 358 350 q 302 516 302 456 q 370 687 301 616 q 435 730 401 720 q 505 726 473 741 q 572 645 547 705 q 593 522 597 586 m 669 910 q 465 941 578 955 q 258 867 361 927 q 88 720 158 808 q -5 532 15 629 q 6 342 -24 439 q 32 277 16 309 q 43 254 37 265 q 53 238 48 245 q 240 64 121 127 q 512 19 372 -5 q 789 205 682 48 q 848 316 824 256 q 863 355 857 336 q 867 368 865 361 l 868 372 l 869 376 q 857 682 909 529 q 669 910 801 846 m 518 1006 q 496 985 514 991 q 458 983 477 978 q 420 1004 447 985 q 324 1081 355 1052 q 277 1133 281 1120 q 276 1174 270 1154 q 300 1204 282 1195 q 340 1206 317 1212 q 357 1202 348 1205 q 363 1199 359 1200 l 366 1198 l 367 1197 q 399 1172 384 1189 q 452 1107 410 1161 q 509 1034 501 1045 q 518 1006 521 1016 z "},"Ó":{"ha":904,"x_min":-24,"x_max":909,"o":"m 593 522 q 526 368 587 429 q 401 333 465 308 q 330 404 358 350 q 302 516 302 456 q 370 687 301 616 q 435 730 401 720 q 505 726 473 741 q 572 645 547 705 q 593 522 597 586 m 669 910 q 465 941 578 955 q 258 867 361 927 q 88 720 158 808 q -5 532 15 629 q 6 342 -24 439 q 32 277 16 309 q 43 254 37 265 q 53 238 48 245 q 240 64 121 127 q 512 19 372 -5 q 789 205 682 48 q 848 316 824 256 q 863 355 857 336 q 867 368 865 361 l 868 372 l 869 376 q 857 682 909 529 q 669 910 801 846 m 355 1006 q 365 1034 353 1016 q 421 1107 372 1045 q 474 1172 463 1161 q 507 1197 490 1189 l 508 1198 l 511 1199 q 517 1202 514 1200 q 534 1206 526 1205 q 574 1204 557 1212 q 597 1174 591 1195 q 597 1133 604 1154 q 549 1081 592 1120 q 453 1004 518 1052 q 415 983 427 985 q 378 985 396 978 q 355 1006 359 991 z "},"Ô":{"ha":904,"x_min":-24,"x_max":909,"o":"m 593 522 q 526 368 587 429 q 401 333 465 308 q 330 404 358 350 q 302 516 302 456 q 370 687 301 616 q 435 730 401 720 q 505 726 473 741 q 572 645 547 705 q 593 522 597 586 m 669 910 q 465 941 578 955 q 258 867 361 927 q 88 720 158 808 q -5 532 15 629 q 6 342 -24 439 q 32 277 16 309 q 43 254 37 265 q 53 238 48 245 q 240 64 121 127 q 512 19 372 -5 q 789 205 682 48 q 848 316 824 256 q 863 355 857 336 q 867 368 865 361 l 868 372 l 869 376 q 857 682 909 529 q 669 910 801 846 m 310 1070 q 368 1131 316 1088 q 425 1173 407 1163 q 443 1179 435 1179 q 492 1147 467 1175 q 515 1120 503 1137 q 526 1105 519 1114 l 536 1090 q 564 1045 557 1059 q 569 1005 574 1022 q 555 985 565 994 q 526 977 543 977 q 494 987 510 978 q 472 1008 479 996 q 470 1032 467 1017 q 471 1046 471 1040 q 467 1064 471 1055 q 464 1072 466 1067 q 458 1081 461 1077 q 446 1092 452 1091 q 439 1081 441 1093 q 437 1069 438 1078 l 436 1065 l 436 1062 q 435 1054 435 1057 q 426 1021 431 1034 q 403 992 418 1002 q 361 979 385 981 q 321 990 336 978 q 304 1031 304 1004 q 305 1053 303 1041 q 310 1070 307 1062 z "},"Õ":{"ha":904,"x_min":-24,"x_max":909,"o":"m 593 522 q 526 368 587 429 q 401 333 465 308 q 330 404 358 350 q 302 516 302 456 q 370 687 301 616 q 435 730 401 720 q 505 726 473 741 q 572 645 547 705 q 593 522 597 586 m 669 910 q 465 941 578 955 q 258 867 361 927 q 88 720 158 808 q -5 532 15 629 q 6 342 -24 439 q 32 277 16 309 q 43 254 37 265 q 53 238 48 245 q 240 64 121 127 q 512 19 372 -5 q 789 205 682 48 q 848 316 824 256 q 863 355 857 336 q 867 368 865 361 l 868 372 l 869 376 q 857 682 909 529 q 669 910 801 846 m 315 1046 q 353 1110 330 1083 q 405 1139 382 1144 q 439 1114 420 1135 q 452 1100 446 1107 q 456 1095 454 1097 q 457 1093 456 1093 l 458 1092 l 458 1092 q 460 1088 459 1090 l 463 1085 q 466 1080 465 1082 q 473 1076 469 1076 q 484 1083 478 1076 q 489 1090 486 1086 l 492 1095 l 494 1100 q 506 1118 501 1113 q 522 1128 513 1127 q 545 1122 532 1131 q 560 1103 555 1114 q 562 1044 574 1079 q 524 998 551 1010 q 467 1002 498 987 q 423 1041 439 1016 q 418 1050 421 1044 l 416 1054 l 414 1057 q 407 1064 410 1065 q 401 1055 403 1064 q 398 1046 399 1053 l 397 1041 l 396 1036 q 389 1012 393 1021 q 374 992 383 999 q 338 984 359 981 q 310 1000 318 986 q 307 1022 305 1008 q 315 1046 309 1030 z "},"Ö":{"ha":904,"x_min":-24,"x_max":909,"o":"m 593 522 q 526 368 587 429 q 401 333 465 308 q 330 404 358 350 q 302 516 302 456 q 370 687 301 616 q 435 730 401 720 q 505 726 473 741 q 572 645 547 705 q 593 522 597 586 m 669 910 q 465 941 578 955 q 258 867 361 927 q 88 720 158 808 q -5 532 15 629 q 6 342 -24 439 q 32 277 16 309 q 43 254 37 265 q 53 238 48 245 q 240 64 121 127 q 512 19 372 -5 q 789 205 682 48 q 848 316 824 256 q 863 355 857 336 q 867 368 865 361 l 868 372 l 869 376 q 857 682 909 529 q 669 910 801 846 m 375 1121 q 397 1096 390 1112 q 402 1071 403 1085 q 340 997 402 1008 q 308 1000 323 994 q 279 1028 283 1010 q 281 1072 277 1052 q 288 1095 283 1086 q 349 1127 304 1127 q 375 1121 364 1128 m 569 1121 q 591 1096 584 1112 q 596 1071 597 1085 q 534 997 596 1008 q 502 1000 517 994 q 473 1028 477 1010 q 475 1072 471 1052 q 481 1095 477 1086 q 543 1127 498 1127 q 569 1121 558 1128 z "},"×":{"ha":776,"x_min":155,"x_max":662,"o":"m 429 408 q 408 390 418 399 l 388 374 l 368 357 q 330 327 345 339 q 267 277 289 294 q 239 260 250 264 q 220 256 229 256 q 177 281 198 259 q 155 325 157 302 q 168 358 155 342 q 203 389 175 367 q 317 494 259 437 q 263 532 293 512 l 256 537 l 250 541 q 238 549 242 547 q 217 564 225 557 q 189 589 198 578 q 176 619 178 603 q 201 703 169 663 q 235 730 216 720 q 272 738 254 740 q 315 715 290 736 q 377 650 332 699 q 422 604 393 633 q 448 631 435 616 l 467 654 q 484 673 477 667 q 513 699 500 691 q 545 708 528 707 q 623 673 588 710 q 647 637 640 656 q 651 599 655 617 q 623 559 648 581 q 551 505 606 543 q 535 492 545 500 l 545 484 q 579 450 565 465 q 636 393 617 414 q 657 367 651 377 q 661 350 661 359 q 642 304 662 327 q 601 277 623 281 q 566 286 584 274 q 532 316 557 292 q 429 408 484 361 z "},"Ø":{"ha":904,"x_min":-24,"x_max":909,"o":"m 593 522 q 526 368 587 429 q 401 333 465 308 q 330 404 358 350 q 302 516 302 456 q 370 687 301 616 q 435 730 401 720 q 505 726 473 741 q 572 645 547 705 q 593 522 597 586 m 669 910 q 465 941 578 955 q 258 867 361 927 q 88 720 158 808 q -5 532 15 629 q 6 342 -24 439 q 32 277 16 309 q 43 254 37 265 q 53 238 48 245 q 240 64 121 127 q 512 19 372 -5 q 789 205 682 48 q 848 316 824 256 q 863 355 857 336 q 867 368 865 361 l 868 372 l 869 376 q 857 682 909 529 q 669 910 801 846 m 530 456 q 621 618 571 534 q 640 650 630 632 l 650 665 l 659 680 q 690 731 679 713 q 731 818 720 783 q 741 899 745 859 l 741 901 l 741 905 q 739 915 740 909 q 732 941 736 928 q 699 998 721 977 q 616 1006 665 1028 q 553 947 573 987 q 229 298 264 351 q 157 181 174 216 q 132 87 131 130 q 156 5 132 42 q 173 -18 163 -7 q 180 -24 176 -21 l 182 -26 l 184 -28 l 184 -28 l 184 -29 l 187 -31 q 195 -36 191 -33 q 221 -50 208 -44 q 298 -45 263 -65 q 353 35 330 -26 q 374 100 359 54 l 380 118 l 386 138 q 400 180 393 161 q 530 456 427 256 z "},"Ù":{"ha":799,"x_min":19,"x_max":753,"o":"m 46 581 q 54 646 50 617 q 77 766 65 718 q 171 905 110 890 q 248 890 206 913 q 308 830 286 867 q 320 718 333 789 q 313 683 317 706 l 308 663 l 304 642 q 287 539 292 588 l 287 538 l 287 535 l 286 530 q 285 515 286 522 q 282 470 283 492 q 292 358 281 405 q 461 288 325 216 q 494 372 488 302 q 475 635 503 463 q 452 751 465 692 q 447 773 450 761 l 444 783 l 442 793 q 435 827 437 815 q 443 911 423 884 q 573 960 481 962 q 718 903 667 958 q 749 825 744 873 q 749 692 753 793 q 734 292 736 321 q 704 181 728 217 q 524 35 640 85 q 448 9 486 19 q 422 4 435 6 q 415 3 418 3 l 412 3 l 411 2 l 409 2 l 406 2 q 397 1 402 1 q 368 0 383 0 q 276 7 320 0 q 68 125 137 32 q 22 275 24 183 q 39 515 19 337 l 46 581 m 467 1006 q 445 985 463 991 q 408 983 427 978 q 370 1004 396 985 q 273 1081 304 1052 q 226 1133 231 1120 q 225 1174 219 1154 q 249 1204 231 1195 q 289 1206 266 1212 q 306 1202 297 1205 q 312 1199 309 1200 l 315 1198 l 316 1197 q 349 1172 333 1189 q 401 1107 359 1161 q 458 1034 450 1045 q 467 1006 470 1016 z "},"Ú":{"ha":799,"x_min":19,"x_max":753,"o":"m 46 581 q 54 646 50 617 q 77 766 65 718 q 171 905 110 890 q 248 890 206 913 q 308 830 286 867 q 320 718 333 789 q 313 683 317 706 l 308 663 l 304 642 q 287 539 292 588 l 287 538 l 287 535 l 286 530 q 285 515 286 522 q 282 470 283 492 q 292 358 281 405 q 461 288 325 216 q 494 372 488 302 q 475 635 503 463 q 452 751 465 692 q 447 773 450 761 l 444 783 l 442 793 q 435 827 437 815 q 443 911 423 884 q 573 960 481 962 q 718 903 667 958 q 749 825 744 873 q 749 692 753 793 q 734 292 736 321 q 704 181 728 217 q 524 35 640 85 q 448 9 486 19 q 422 4 435 6 q 415 3 418 3 l 412 3 l 411 2 l 409 2 l 406 2 q 397 1 402 1 q 368 0 383 0 q 276 7 320 0 q 68 125 137 32 q 22 275 24 183 q 39 515 19 337 l 46 581 m 305 1006 q 315 1034 302 1016 q 371 1107 322 1045 q 424 1172 413 1161 q 456 1197 439 1189 l 458 1198 l 460 1199 q 467 1202 464 1200 q 484 1206 475 1205 q 524 1204 507 1212 q 547 1174 541 1195 q 547 1133 553 1154 q 499 1081 542 1120 q 403 1004 468 1052 q 365 983 376 985 q 328 985 346 978 q 305 1006 309 991 z "},"Û":{"ha":799,"x_min":19,"x_max":753,"o":"m 46 581 q 54 646 50 617 q 77 766 65 718 q 171 905 110 890 q 248 890 206 913 q 308 830 286 867 q 320 718 333 789 q 313 683 317 706 l 308 663 l 304 642 q 287 539 292 588 l 287 538 l 287 535 l 286 530 q 285 515 286 522 q 282 470 283 492 q 292 358 281 405 q 461 288 325 216 q 494 372 488 302 q 475 635 503 463 q 452 751 465 692 q 447 773 450 761 l 444 783 l 442 793 q 435 827 437 815 q 443 911 423 884 q 573 960 481 962 q 718 903 667 958 q 749 825 744 873 q 749 692 753 793 q 734 292 736 321 q 704 181 728 217 q 524 35 640 85 q 448 9 486 19 q 422 4 435 6 q 415 3 418 3 l 412 3 l 411 2 l 409 2 l 406 2 q 397 1 402 1 q 368 0 383 0 q 276 7 320 0 q 68 125 137 32 q 22 275 24 183 q 39 515 19 337 l 46 581 m 259 1070 q 317 1131 265 1088 q 374 1173 356 1163 q 392 1179 385 1179 q 441 1147 416 1175 q 464 1120 452 1137 q 475 1105 469 1114 l 486 1090 q 513 1045 507 1059 q 518 1005 524 1022 q 504 985 514 994 q 475 977 492 977 q 444 987 459 978 q 421 1008 428 996 q 419 1032 416 1017 q 420 1046 420 1040 q 416 1064 420 1055 q 413 1072 415 1067 q 408 1081 410 1077 q 395 1092 401 1091 q 388 1081 390 1093 q 386 1069 387 1078 l 385 1065 l 385 1062 q 384 1054 385 1057 q 375 1021 380 1034 q 352 992 367 1002 q 311 979 334 981 q 270 990 286 978 q 253 1031 254 1004 q 254 1053 252 1041 q 259 1070 256 1062 z "},"Ü":{"ha":799,"x_min":19,"x_max":753,"o":"m 46 581 q 54 646 50 617 q 77 766 65 718 q 171 905 110 890 q 248 890 206 913 q 308 830 286 867 q 320 718 333 789 q 313 683 317 706 l 308 663 l 304 642 q 287 539 292 588 l 287 538 l 287 535 l 286 530 q 285 515 286 522 q 282 470 283 492 q 292 358 281 405 q 461 288 325 216 q 494 372 488 302 q 475 635 503 463 q 452 751 465 692 q 447 773 450 761 l 444 783 l 442 793 q 435 827 437 815 q 443 911 423 884 q 573 960 481 962 q 718 903 667 958 q 749 825 744 873 q 749 692 753 793 q 734 292 736 321 q 704 181 728 217 q 524 35 640 85 q 448 9 486 19 q 422 4 435 6 q 415 3 418 3 l 412 3 l 411 2 l 409 2 l 406 2 q 397 1 402 1 q 368 0 383 0 q 276 7 320 0 q 68 125 137 32 q 22 275 24 183 q 39 515 19 337 l 46 581 m 324 1121 q 346 1096 339 1112 q 351 1071 352 1085 q 290 997 351 1008 q 257 1000 272 994 q 228 1028 233 1010 q 231 1072 227 1052 q 237 1095 233 1086 q 298 1127 253 1127 q 324 1121 313 1128 m 518 1121 q 540 1096 533 1112 q 545 1071 546 1085 q 484 997 545 1008 q 451 1000 466 994 q 422 1028 427 1010 q 425 1072 420 1052 q 431 1095 427 1086 q 492 1127 447 1127 q 518 1121 507 1128 z "},"Ý":{"ha":831,"x_min":12,"x_max":847,"o":"m 808 925 q 671 977 774 963 q 515 968 571 991 q 490 950 498 960 q 471 895 474 928 q 471 871 470 884 q 471 861 471 866 l 472 858 l 473 855 q 460 642 484 777 q 409 503 435 506 q 375 535 397 502 q 336 618 354 569 q 311 821 290 743 l 313 824 l 313 829 q 315 838 315 833 q 318 865 318 852 q 305 928 320 901 q 281 949 298 940 q 163 978 239 974 q 43 960 86 981 q 19 905 12 945 q 64 767 21 892 q 118 646 77 730 q 155 571 130 621 l 176 532 l 195 492 q 281 260 291 294 q 244 104 250 146 q 256 7 235 39 q 320 -31 275 -19 q 413 -38 362 -42 q 505 -15 465 -34 q 566 37 549 5 q 564 113 581 64 l 561 124 l 556 137 q 547 167 550 153 q 528 248 534 206 q 608 524 513 341 q 687 660 642 590 q 749 750 721 712 q 808 925 847 882 m 337 1006 q 347 1034 334 1016 q 403 1107 354 1045 q 456 1172 445 1161 q 488 1197 471 1189 l 490 1198 l 492 1199 q 498 1202 496 1200 q 515 1206 507 1205 q 555 1204 538 1212 q 579 1174 573 1195 q 578 1133 585 1154 q 531 1081 574 1120 q 435 1004 500 1052 q 397 983 408 985 q 359 985 378 978 q 337 1006 341 991 z "},"Þ":{"ha":902,"x_min":45,"x_max":865,"o":"m 458 270 q 416 257 438 260 q 380 264 389 254 q 376 284 374 271 q 378 294 376 289 l 379 298 l 380 302 q 385 370 389 334 q 371 432 382 394 l 367 446 l 363 460 q 358 484 359 474 q 366 524 355 509 q 448 547 389 552 q 541 502 509 541 q 549 373 581 452 q 458 270 517 298 m 592 691 q 517 690 558 696 q 482 682 502 687 l 466 677 l 450 673 q 393 662 411 663 q 353 676 367 661 q 343 708 343 687 q 344 733 343 714 q 344 749 344 743 q 345 768 345 759 l 345 783 l 344 798 q 343 830 344 815 q 337 899 342 869 q 288 1004 324 980 q 185 1009 250 1029 q 82 939 119 989 q 56 793 45 888 q 75 683 60 762 l 77 667 l 81 650 q 87 614 84 630 q 100 533 94 572 q 121 349 113 441 q 130 211 127 280 q 130 111 130 161 q 130 -28 130 42 q 131 -172 128 -147 q 154 -226 134 -212 q 260 -228 191 -253 q 362 -146 331 -203 q 380 -75 380 -115 q 372 -4 380 -49 l 368 12 l 366 28 q 363 57 363 45 q 380 101 363 86 q 429 111 397 115 q 444 108 435 110 l 461 105 q 499 101 483 102 q 696 154 599 96 q 830 313 802 216 q 780 553 865 429 q 694 645 743 608 q 592 691 642 682 z "},"ß":{"ha":895,"x_min":64,"x_max":836,"o":"m 126 188 q 134 717 121 592 q 229 958 153 905 q 336 990 270 987 q 462 983 375 992 l 486 981 l 512 977 q 565 966 541 973 q 674 910 627 949 l 676 909 l 679 907 q 685 902 682 904 q 700 888 692 895 q 738 844 721 867 q 787 698 787 775 q 786 684 787 691 q 785 667 786 676 q 777 624 783 644 q 722 530 761 565 q 690 506 708 516 q 674 498 682 502 l 667 494 l 660 491 q 629 465 630 477 q 664 433 629 450 l 672 429 l 680 425 q 699 415 690 420 q 736 389 720 403 q 810 276 787 347 q 817 126 836 201 q 745 0 800 54 q 627 -70 694 -50 q 478 -77 553 -92 q 366 -3 392 -61 q 366 105 345 45 q 425 174 387 163 q 469 167 445 179 q 490 153 478 161 l 511 137 q 551 108 538 115 q 591 104 573 97 q 625 146 613 113 q 624 205 635 178 q 595 232 616 223 q 550 244 583 237 l 537 247 l 524 250 q 497 258 509 254 q 445 292 467 270 q 395 382 408 328 q 403 476 382 437 q 446 516 414 498 l 453 519 l 460 524 q 474 533 467 528 q 504 563 490 545 l 505 564 l 505 566 q 508 569 507 567 q 515 581 512 574 q 533 618 526 600 q 534 723 555 677 q 493 775 520 754 q 436 793 463 798 q 430 791 433 792 q 422 787 427 789 q 404 768 413 781 q 361 650 379 732 q 344 450 340 559 q 346 401 345 433 l 347 374 l 349 347 q 349 218 351 279 q 325 13 346 79 q 307 -26 317 -12 q 298 -36 302 -31 q 291 -42 295 -39 q 155 -66 238 -81 q 96 -47 121 -61 q 66 -17 71 -33 q 79 18 64 -5 l 83 23 l 86 28 q 95 42 91 35 q 111 79 104 59 q 125 139 122 107 q 126 165 126 151 l 126 176 l 126 188 z "},"à":{"ha":606,"x_min":-16,"x_max":572,"o":"m 377 220 l 376 227 q 372 241 374 235 q 355 269 367 258 q 309 288 337 286 q 258 277 281 290 q 214 227 227 262 q 217 165 202 193 q 292 125 237 128 q 368 150 345 122 q 379 183 378 163 q 379 200 380 191 l 378 208 l 378 214 l 377 220 m 507 -45 q 452 -38 484 -53 q 414 -1 421 -23 q 382 0 412 7 q 349 -9 372 -3 l 339 -12 l 329 -14 l 308 -20 q 214 -35 254 -33 q 123 -25 161 -39 q 60 22 89 -12 q 18 103 33 57 q 34 296 -16 210 q 123 382 65 349 q 242 413 183 417 q 289 402 266 411 q 308 394 298 399 q 324 385 315 391 q 351 372 344 375 q 370 374 363 368 q 384 408 382 382 q 375 463 385 433 q 312 543 353 534 q 279 534 296 545 q 263 523 272 530 l 254 516 l 246 509 q 207 481 223 490 q 154 467 181 467 q 106 475 128 467 q 73 501 80 484 q 94 568 61 528 q 165 629 123 604 q 322 673 233 671 q 484 627 418 675 q 556 497 540 585 q 571 260 568 439 l 571 250 l 572 239 l 572 218 q 572 171 572 192 q 566 75 571 115 q 507 -45 553 -32 m 369 728 q 347 707 365 713 q 309 705 328 700 q 271 726 298 707 q 175 803 206 774 q 127 855 132 842 q 127 896 121 876 q 151 926 133 917 q 191 928 168 934 q 208 924 199 927 q 214 921 210 922 l 216 920 l 218 919 q 250 894 235 911 q 303 829 261 883 q 359 755 352 767 q 369 728 372 738 z "},"á":{"ha":606,"x_min":-16,"x_max":572,"o":"m 377 220 l 376 227 q 372 241 374 235 q 355 269 367 258 q 309 288 337 286 q 258 277 281 290 q 214 227 227 262 q 217 165 202 193 q 292 125 237 128 q 368 150 345 122 q 379 183 378 163 q 379 200 380 191 l 378 208 l 378 214 l 377 220 m 507 -45 q 452 -38 484 -53 q 414 -1 421 -23 q 382 0 412 7 q 349 -9 372 -3 l 339 -12 l 329 -14 l 308 -20 q 214 -35 254 -33 q 123 -25 161 -39 q 60 22 89 -12 q 18 103 33 57 q 34 296 -16 210 q 123 382 65 349 q 242 413 183 417 q 289 402 266 411 q 308 394 298 399 q 324 385 315 391 q 351 372 344 375 q 370 374 363 368 q 384 408 382 382 q 375 463 385 433 q 312 543 353 534 q 279 534 296 545 q 263 523 272 530 l 254 516 l 246 509 q 207 481 223 490 q 154 467 181 467 q 106 475 128 467 q 73 501 80 484 q 94 568 61 528 q 165 629 123 604 q 322 673 233 671 q 484 627 418 675 q 556 497 540 585 q 571 260 568 439 l 571 250 l 572 239 l 572 218 q 572 171 572 192 q 566 75 571 115 q 507 -45 553 -32 m 206 728 q 216 755 203 738 q 272 829 223 767 q 325 894 314 883 q 357 919 340 911 l 359 920 l 361 921 q 368 924 365 922 q 385 928 376 927 q 425 926 408 934 q 448 896 442 917 q 448 855 454 876 q 400 803 443 842 q 304 726 369 774 q 266 705 277 707 q 229 707 247 700 q 206 728 210 713 z "},"â":{"ha":606,"x_min":-16,"x_max":572,"o":"m 377 220 l 376 227 q 372 241 374 235 q 355 269 367 258 q 309 288 337 286 q 258 277 281 290 q 214 227 227 262 q 217 165 202 193 q 292 125 237 128 q 368 150 345 122 q 379 183 378 163 q 379 200 380 191 l 378 208 l 378 214 l 377 220 m 507 -45 q 452 -38 484 -53 q 414 -1 421 -23 q 382 0 412 7 q 349 -9 372 -3 l 339 -12 l 329 -14 l 308 -20 q 214 -35 254 -33 q 123 -25 161 -39 q 60 22 89 -12 q 18 103 33 57 q 34 296 -16 210 q 123 382 65 349 q 242 413 183 417 q 289 402 266 411 q 308 394 298 399 q 324 385 315 391 q 351 372 344 375 q 370 374 363 368 q 384 408 382 382 q 375 463 385 433 q 312 543 353 534 q 279 534 296 545 q 263 523 272 530 l 254 516 l 246 509 q 207 481 223 490 q 154 467 181 467 q 106 475 128 467 q 73 501 80 484 q 94 568 61 528 q 165 629 123 604 q 322 673 233 671 q 484 627 418 675 q 556 497 540 585 q 571 260 568 439 l 571 250 l 572 239 l 572 218 q 572 171 572 192 q 566 75 571 115 q 507 -45 553 -32 m 161 792 q 219 852 167 810 q 275 895 258 885 q 294 901 286 901 q 343 869 317 897 q 366 842 353 859 q 376 827 370 836 l 387 812 q 415 767 408 781 q 420 727 425 744 q 406 707 416 715 q 376 699 393 699 q 345 709 361 700 q 323 730 330 718 q 321 754 318 739 q 322 768 322 762 q 318 786 321 777 q 315 794 317 789 q 309 803 312 799 q 297 814 302 813 q 290 803 292 814 q 288 791 289 800 l 287 787 l 287 784 q 286 776 286 779 q 277 743 282 755 q 254 714 269 724 q 212 701 236 703 q 172 712 187 700 q 155 753 155 726 q 156 774 154 763 q 161 792 158 784 z "},"ã":{"ha":606,"x_min":-16,"x_max":572,"o":"m 377 220 l 376 227 q 372 241 374 235 q 355 269 367 258 q 309 288 337 286 q 258 277 281 290 q 214 227 227 262 q 217 165 202 193 q 292 125 237 128 q 368 150 345 122 q 379 183 378 163 q 379 200 380 191 l 378 208 l 378 214 l 377 220 m 507 -45 q 452 -38 484 -53 q 414 -1 421 -23 q 382 0 412 7 q 349 -9 372 -3 l 339 -12 l 329 -14 l 308 -20 q 214 -35 254 -33 q 123 -25 161 -39 q 60 22 89 -12 q 18 103 33 57 q 34 296 -16 210 q 123 382 65 349 q 242 413 183 417 q 289 402 266 411 q 308 394 298 399 q 324 385 315 391 q 351 372 344 375 q 370 374 363 368 q 384 408 382 382 q 375 463 385 433 q 312 543 353 534 q 279 534 296 545 q 263 523 272 530 l 254 516 l 246 509 q 207 481 223 490 q 154 467 181 467 q 106 475 128 467 q 73 501 80 484 q 94 568 61 528 q 165 629 123 604 q 322 673 233 671 q 484 627 418 675 q 556 497 540 585 q 571 260 568 439 l 571 250 l 572 239 l 572 218 q 572 171 572 192 q 566 75 571 115 q 507 -45 553 -32 m 166 768 q 204 832 180 805 q 256 861 233 866 q 290 836 271 857 q 303 822 296 829 q 307 817 305 819 q 308 814 307 815 l 309 814 l 309 814 q 311 810 310 812 l 313 807 q 317 802 315 804 q 323 798 320 798 q 335 805 329 798 q 340 812 337 808 l 342 817 l 345 822 q 357 840 352 835 q 373 850 364 849 q 395 844 383 852 q 411 825 406 836 q 413 766 425 801 q 374 720 401 732 q 318 724 349 709 q 274 763 290 738 q 269 772 272 766 l 267 776 l 265 779 q 258 786 261 787 q 252 777 254 786 q 249 768 250 774 l 248 763 l 247 758 q 240 734 244 743 q 224 714 234 721 q 189 706 210 703 q 161 722 169 708 q 158 744 156 730 q 166 768 160 752 z "},"ä":{"ha":606,"x_min":-16,"x_max":572,"o":"m 377 220 l 376 227 q 372 241 374 235 q 355 269 367 258 q 309 288 337 286 q 258 277 281 290 q 214 227 227 262 q 217 165 202 193 q 292 125 237 128 q 368 150 345 122 q 379 183 378 163 q 379 200 380 191 l 378 208 l 378 214 l 377 220 m 507 -45 q 452 -38 484 -53 q 414 -1 421 -23 q 382 0 412 7 q 349 -9 372 -3 l 339 -12 l 329 -14 l 308 -20 q 214 -35 254 -33 q 123 -25 161 -39 q 60 22 89 -12 q 18 103 33 57 q 34 296 -16 210 q 123 382 65 349 q 242 413 183 417 q 289 402 266 411 q 308 394 298 399 q 324 385 315 391 q 351 372 344 375 q 370 374 363 368 q 384 408 382 382 q 375 463 385 433 q 312 543 353 534 q 279 534 296 545 q 263 523 272 530 l 254 516 l 246 509 q 207 481 223 490 q 154 467 181 467 q 106 475 128 467 q 73 501 80 484 q 94 568 61 528 q 165 629 123 604 q 322 673 233 671 q 484 627 418 675 q 556 497 540 585 q 571 260 568 439 l 571 250 l 572 239 l 572 218 q 572 171 572 192 q 566 75 571 115 q 507 -45 553 -32 m 226 843 q 248 818 241 834 q 253 793 254 807 q 191 719 253 730 q 159 722 174 715 q 130 750 134 732 q 132 794 128 774 q 138 817 134 808 q 199 849 155 849 q 226 843 215 850 m 420 843 q 441 818 435 834 q 447 793 448 807 q 385 719 447 730 q 353 722 368 715 q 323 750 328 732 q 326 794 322 774 q 332 817 328 808 q 393 849 349 849 q 420 843 409 850 z "},"å":{"ha":606,"x_min":-16,"x_max":572,"o":"m 377 220 l 376 227 q 372 241 374 235 q 355 269 367 258 q 309 288 337 286 q 258 277 281 290 q 214 227 227 262 q 217 165 202 193 q 292 125 237 128 q 368 150 345 122 q 379 183 378 163 q 379 200 380 191 l 378 208 l 378 214 l 377 220 m 507 -45 q 452 -38 484 -53 q 414 -1 421 -23 q 382 0 412 7 q 349 -9 372 -3 l 339 -12 l 329 -14 l 308 -20 q 214 -35 254 -33 q 123 -25 161 -39 q 60 22 89 -12 q 18 103 33 57 q 34 296 -16 210 q 123 382 65 349 q 242 413 183 417 q 289 402 266 411 q 308 394 298 399 q 324 385 315 391 q 351 372 344 375 q 370 374 363 368 q 384 408 382 382 q 375 463 385 433 q 312 543 353 534 q 279 534 296 545 q 263 523 272 530 l 254 516 l 246 509 q 207 481 223 490 q 154 467 181 467 q 106 475 128 467 q 73 501 80 484 q 94 568 61 528 q 165 629 123 604 q 322 673 233 671 q 484 627 418 675 q 556 497 540 585 q 571 260 568 439 l 571 250 l 572 239 l 572 218 q 572 171 572 192 q 566 75 571 115 q 507 -45 553 -32 m 219 852 q 239 804 219 824 q 287 785 258 785 q 335 804 315 785 q 355 852 355 824 q 335 900 355 880 q 287 920 315 920 q 239 900 259 920 q 219 852 219 880 m 168 852 q 202 938 168 903 q 287 972 237 972 q 373 938 338 972 q 408 852 408 903 q 373 767 408 802 q 287 732 338 732 q 202 767 237 732 q 168 852 168 802 z "},"æ":{"ha":1114,"x_min":-16,"x_max":1084,"o":"m 377 220 l 376 227 q 372 241 374 235 q 355 269 367 258 q 309 288 337 286 q 258 277 281 290 q 214 227 227 262 q 217 165 202 193 q 292 125 237 128 q 368 150 345 122 q 379 183 378 163 q 379 200 380 191 l 378 208 l 378 214 l 377 220 m 798 506 q 703 476 758 515 q 627 366 644 433 q 845 437 817 404 q 849 479 865 460 q 798 506 836 497 m 556 24 q 507 -45 541 -35 q 452 -38 484 -53 q 414 -1 421 -23 q 382 0 412 7 q 349 -9 372 -3 l 339 -12 l 329 -14 l 308 -20 q 214 -35 254 -33 q 123 -25 161 -39 q 60 22 89 -12 q 18 103 33 57 q 34 296 -16 210 q 123 382 65 349 q 242 413 183 417 q 289 402 266 411 q 308 394 298 399 q 324 385 315 391 q 351 372 344 375 q 370 374 363 368 q 384 408 382 382 q 375 463 385 433 q 312 543 353 534 q 279 534 296 545 q 263 523 272 530 l 254 516 l 246 509 q 207 481 223 490 q 154 467 181 467 q 106 475 128 467 q 73 501 80 484 q 94 568 61 528 q 165 629 123 604 q 322 673 233 671 q 484 627 418 675 q 544 543 524 597 q 683 633 601 611 q 928 653 820 669 q 1071 546 1057 635 q 1011 383 1084 458 q 869 297 950 320 q 799 282 842 290 l 781 279 l 764 276 q 732 270 745 273 q 659 224 664 255 q 711 158 653 184 q 837 151 770 132 q 906 176 863 157 l 923 184 l 940 191 q 971 203 958 198 q 1055 183 1040 227 q 1059 89 1075 125 q 960 12 1040 45 q 783 -34 860 -30 q 580 12 684 -39 q 556 24 568 18 z "},"ç":{"ha":654,"x_min":8,"x_max":632,"o":"m 494 726 q 573 688 543 710 q 625 613 617 656 q 614 538 632 576 q 564 485 596 498 q 506 487 538 475 q 448 518 486 494 l 420 536 q 391 549 404 545 q 333 552 359 562 q 272 471 292 536 q 262 425 265 450 q 260 407 260 416 q 259 400 259 404 l 259 397 l 258 395 q 274 274 254 332 q 338 195 296 208 q 378 198 357 190 q 397 208 387 201 l 416 220 q 459 242 442 236 q 512 247 486 251 q 574 219 547 241 q 610 168 604 196 q 568 71 619 122 q 461 1 522 23 q 222 18 352 -39 q 36 188 92 74 q 14 351 8 243 q 65 566 20 469 q 217 727 120 682 q 494 726 332 781 m 327 -26 q 332 -41 331 -32 q 332 -47 332 -43 l 331 -55 q 331 -67 330 -64 q 336 -75 332 -73 q 345 -76 339 -77 l 347 -75 l 350 -75 q 356 -74 353 -74 q 392 -84 374 -72 q 416 -109 408 -95 q 416 -168 430 -134 q 375 -218 404 -200 q 277 -231 334 -245 q 237 -214 254 -225 q 217 -189 220 -202 q 222 -163 214 -177 q 241 -145 230 -149 q 258 -146 248 -143 l 261 -147 l 264 -149 q 271 -151 269 -150 q 290 -155 281 -153 q 319 -161 312 -160 q 336 -157 332 -161 q 340 -139 342 -151 q 329 -119 338 -127 q 315 -113 323 -115 q 307 -113 311 -113 l 299 -113 q 271 -105 278 -113 q 262 -71 264 -99 q 260 -33 260 -43 q 270 -12 262 -18 q 300 -9 281 -5 q 327 -26 319 -14 z "},"è":{"ha":676,"x_min":8,"x_max":654,"o":"m 368 541 q 419 514 406 532 q 415 471 435 495 q 197 401 387 438 q 273 511 214 467 q 368 541 328 550 m 407 185 q 281 193 340 166 q 229 258 223 218 q 302 304 234 290 q 334 311 315 307 l 351 313 l 369 317 q 439 332 412 324 q 581 418 520 355 q 641 581 654 493 q 498 688 627 669 q 253 667 390 703 q 73 517 139 637 q 12 258 12 406 q 24 180 8 224 q 150 46 56 92 q 353 1 254 -5 q 530 46 430 5 q 629 123 610 79 q 625 218 645 159 q 541 237 610 261 q 510 225 528 233 l 493 218 l 476 211 q 407 185 433 192 m 408 728 q 386 707 404 713 q 349 705 368 700 q 311 726 337 707 q 214 803 245 774 q 167 855 172 842 q 166 896 160 876 q 190 926 172 917 q 230 928 207 934 q 247 924 238 927 q 253 921 250 922 l 256 920 l 257 919 q 290 894 274 911 q 342 829 300 883 q 399 755 391 767 q 408 728 411 738 z "},"é":{"ha":676,"x_min":8,"x_max":654,"o":"m 368 541 q 419 514 406 532 q 415 471 435 495 q 197 401 387 438 q 273 511 214 467 q 368 541 328 550 m 407 185 q 281 193 340 166 q 229 258 223 218 q 302 304 234 290 q 334 311 315 307 l 351 313 l 369 317 q 439 332 412 324 q 581 418 520 355 q 641 581 654 493 q 498 688 627 669 q 253 667 390 703 q 73 517 139 637 q 12 258 12 406 q 24 180 8 224 q 150 46 56 92 q 353 1 254 -5 q 530 46 430 5 q 629 123 610 79 q 625 218 645 159 q 541 237 610 261 q 510 225 528 233 l 493 218 l 476 211 q 407 185 433 192 m 245 728 q 255 755 243 738 q 311 829 262 767 q 364 894 353 883 q 397 919 380 911 l 398 920 l 401 921 q 407 924 404 922 q 424 928 416 927 q 464 926 447 934 q 488 896 481 917 q 487 855 494 876 q 439 803 482 842 q 343 726 408 774 q 305 705 317 707 q 268 707 286 700 q 245 728 250 713 z "},"ê":{"ha":676,"x_min":8,"x_max":654,"o":"m 368 541 q 419 514 406 532 q 415 471 435 495 q 197 401 387 438 q 273 511 214 467 q 368 541 328 550 m 407 185 q 281 193 340 166 q 229 258 223 218 q 302 304 234 290 q 334 311 315 307 l 351 313 l 369 317 q 439 332 412 324 q 581 418 520 355 q 641 581 654 493 q 498 688 627 669 q 253 667 390 703 q 73 517 139 637 q 12 258 12 406 q 24 180 8 224 q 150 46 56 92 q 353 1 254 -5 q 530 46 430 5 q 629 123 610 79 q 625 218 645 159 q 541 237 610 261 q 510 225 528 233 l 493 218 l 476 211 q 407 185 433 192 m 199 792 q 258 852 205 810 q 314 895 296 885 q 332 901 325 901 q 382 869 356 897 q 404 842 392 859 q 415 827 409 836 l 426 812 q 454 767 447 781 q 458 727 464 744 q 444 707 454 715 q 415 699 432 699 q 384 709 399 700 q 361 730 368 718 q 359 754 357 739 q 361 768 361 762 q 357 786 360 777 q 353 794 355 789 q 348 803 351 799 q 336 814 341 813 q 328 803 330 814 q 326 791 328 800 l 326 787 l 326 784 q 324 776 325 779 q 315 743 321 755 q 292 714 307 724 q 251 701 275 703 q 210 712 226 700 q 193 753 194 726 q 195 774 193 763 q 199 792 197 784 z "},"ë":{"ha":676,"x_min":8,"x_max":654,"o":"m 368 541 q 419 514 406 532 q 415 471 435 495 q 197 401 387 438 q 273 511 214 467 q 368 541 328 550 m 407 185 q 281 193 340 166 q 229 258 223 218 q 302 304 234 290 q 334 311 315 307 l 351 313 l 369 317 q 439 332 412 324 q 581 418 520 355 q 641 581 654 493 q 498 688 627 669 q 253 667 390 703 q 73 517 139 637 q 12 258 12 406 q 24 180 8 224 q 150 46 56 92 q 353 1 254 -5 q 530 46 430 5 q 629 123 610 79 q 625 218 645 159 q 541 237 610 261 q 510 225 528 233 l 493 218 l 476 211 q 407 185 433 192 m 264 843 q 286 818 279 834 q 292 793 292 807 q 230 719 292 730 q 197 722 212 715 q 168 750 173 732 q 171 794 167 774 q 177 817 173 808 q 238 849 193 849 q 264 843 254 850 m 458 843 q 480 818 473 834 q 486 793 486 807 q 424 719 486 730 q 391 722 406 715 q 362 750 367 732 q 365 794 361 774 q 371 817 367 808 q 432 849 387 849 q 458 843 448 850 z "},"ì":{"ha":320,"x_min":-1,"x_max":294,"o":"m 254 9 q 292 140 289 60 q 291 199 294 168 q 289 222 290 210 l 288 231 l 287 235 l 286 238 q 275 415 273 329 q 279 482 277 447 q 282 511 281 495 l 283 524 l 285 536 q 286 615 290 593 q 254 664 281 646 q 146 682 210 692 q 53 638 84 674 q 39 572 34 616 q 42 547 40 564 l 44 532 l 46 517 q 53 435 52 475 q 44 182 55 395 q 39 51 38 73 q 62 -6 42 13 q 132 -37 89 -31 q 211 -28 176 -44 q 238 -9 226 -20 q 247 1 243 -5 q 254 9 250 5 m 247 728 q 224 707 243 713 q 187 705 206 700 q 149 726 176 707 q 53 803 84 774 q 5 855 10 842 q 5 896 -1 876 q 28 926 11 917 q 68 928 45 934 q 85 924 77 927 q 92 921 88 922 l 94 920 l 96 919 q 128 894 113 911 q 181 829 139 883 q 237 755 230 767 q 247 728 250 738 z "},"í":{"ha":320,"x_min":34,"x_max":332,"o":"m 254 9 q 292 140 289 60 q 291 199 294 168 q 289 222 290 210 l 288 231 l 287 235 l 286 238 q 275 415 273 329 q 279 482 277 447 q 282 511 281 495 l 283 524 l 285 536 q 286 615 290 593 q 254 664 281 646 q 146 682 210 692 q 53 638 84 674 q 39 572 34 616 q 42 547 40 564 l 44 532 l 46 517 q 53 435 52 475 q 44 182 55 395 q 39 51 38 73 q 62 -6 42 13 q 132 -37 89 -31 q 211 -28 176 -44 q 238 -9 226 -20 q 247 1 243 -5 q 254 9 250 5 m 84 728 q 94 755 81 738 q 150 829 101 767 q 203 894 192 883 q 235 919 218 911 l 237 920 l 239 921 q 245 924 243 922 q 262 928 254 927 q 302 926 286 934 q 326 896 320 917 q 326 855 332 876 q 278 803 321 842 q 182 726 247 774 q 144 705 155 707 q 106 707 125 700 q 84 728 88 713 z "},"î":{"ha":320,"x_min":31,"x_max":302,"o":"m 254 9 q 292 140 289 60 q 291 199 294 168 q 289 222 290 210 l 288 231 l 287 235 l 286 238 q 275 415 273 329 q 279 482 277 447 q 282 511 281 495 l 283 524 l 285 536 q 286 615 290 593 q 254 664 281 646 q 146 682 210 692 q 53 638 84 674 q 39 572 34 616 q 42 547 40 564 l 44 532 l 46 517 q 53 435 52 475 q 44 182 55 395 q 39 51 38 73 q 62 -6 42 13 q 132 -37 89 -31 q 211 -28 176 -44 q 238 -9 226 -20 q 247 1 243 -5 q 254 9 250 5 m 38 792 q 96 852 44 810 q 153 895 135 885 q 171 901 163 901 q 220 869 195 897 q 243 842 231 859 q 254 827 248 836 l 264 812 q 292 767 286 781 q 297 727 302 744 q 283 707 293 715 q 254 699 271 699 q 222 709 238 700 q 200 730 207 718 q 198 754 195 739 q 199 768 199 762 q 195 786 199 777 q 192 794 194 789 q 186 803 189 799 q 174 814 180 813 q 167 803 169 814 q 165 791 166 800 l 164 787 l 164 784 q 163 776 163 779 q 154 743 159 755 q 131 714 146 724 q 90 701 113 703 q 49 712 64 700 q 32 753 33 726 q 33 774 31 763 q 38 792 35 784 z "},"ï":{"ha":320,"x_min":5,"x_max":325,"o":"m 254 9 q 292 140 289 60 q 291 199 294 168 q 289 222 290 210 l 288 231 l 287 235 l 286 238 q 275 415 273 329 q 279 482 277 447 q 282 511 281 495 l 283 524 l 285 536 q 286 615 290 593 q 254 664 281 646 q 146 682 210 692 q 53 638 84 674 q 39 572 34 616 q 42 547 40 564 l 44 532 l 46 517 q 53 435 52 475 q 44 182 55 395 q 39 51 38 73 q 62 -6 42 13 q 132 -37 89 -31 q 211 -28 176 -44 q 238 -9 226 -20 q 247 1 243 -5 q 254 9 250 5 m 103 843 q 125 818 118 834 q 130 793 131 807 q 68 719 130 730 q 36 722 51 715 q 7 750 12 732 q 9 794 5 774 q 16 817 12 808 q 77 849 32 849 q 103 843 92 850 m 297 843 q 319 818 312 834 q 324 793 325 807 q 262 719 324 730 q 230 722 245 715 q 201 750 205 732 q 203 794 199 774 q 210 817 205 808 q 271 849 226 849 q 297 843 286 850 z "},"ð":{"ha":830,"x_min":60,"x_max":787,"o":"m 473 229 q 436 236 458 223 q 419 249 429 241 l 411 256 l 404 262 l 400 265 l 396 269 q 386 279 391 274 q 363 308 372 294 q 345 391 336 351 q 399 467 354 437 q 473 481 442 496 q 503 438 494 472 q 509 407 507 425 l 511 391 l 512 376 q 513 337 513 357 q 509 291 513 311 q 473 229 500 237 m 442 806 q 439 809 442 806 q 442 806 443 807 m 623 670 q 609 680 617 674 l 594 691 q 564 713 573 705 q 535 755 531 739 q 557 770 538 766 q 576 774 565 772 l 587 776 l 598 777 q 640 785 627 781 q 667 806 661 793 q 650 871 677 833 q 587 912 623 909 q 546 900 567 914 q 528 885 538 895 l 510 868 q 474 836 487 845 q 432 825 453 823 q 393 843 412 827 q 365 876 378 856 l 364 877 l 363 878 l 360 881 q 351 888 356 884 q 324 907 339 899 q 236 928 281 932 q 168 905 199 924 q 136 866 134 886 q 161 837 136 850 q 215 814 177 828 l 230 810 l 244 805 q 269 794 259 799 q 293 770 293 783 q 273 750 292 760 q 252 742 264 747 l 240 738 l 228 734 q 182 714 197 723 q 159 685 161 701 q 175 644 156 665 q 218 621 194 623 q 254 631 236 619 q 270 644 262 636 l 286 659 q 316 685 305 678 q 349 693 333 696 q 385 670 368 689 q 395 656 391 663 q 399 650 397 653 l 400 648 l 401 646 q 414 605 418 617 q 361 584 408 588 l 350 583 l 339 583 q 315 581 325 581 q 267 572 287 578 q 155 498 205 554 q 94 391 112 448 q 132 157 60 279 q 332 -4 204 34 q 536 4 431 -33 q 693 115 632 39 q 757 415 787 233 q 708 562 744 494 q 623 670 673 631 z "},"ñ":{"ha":766,"x_min":34,"x_max":758,"o":"m 87 15 q 52 153 64 81 q 44 205 47 179 q 41 243 42 224 q 39 296 40 261 q 36 380 37 338 q 39 566 34 499 q 89 675 43 625 q 186 741 130 720 q 276 747 241 762 q 307 677 315 730 q 321 630 298 621 q 342 645 329 633 l 354 655 l 359 661 l 365 665 q 468 716 406 703 q 568 718 524 729 q 693 572 648 696 q 723 465 710 526 q 732 415 728 442 q 736 392 734 404 l 738 381 l 739 371 l 741 363 l 742 354 q 745 333 743 343 q 751 283 749 307 q 755 163 758 216 q 673 -31 749 8 q 576 -43 631 -53 q 496 4 522 -32 q 484 49 484 23 q 493 104 484 66 l 497 120 l 502 138 q 509 178 507 159 q 515 279 517 228 l 515 291 l 515 303 q 513 330 514 318 q 505 387 510 362 q 450 470 489 452 q 389 473 423 482 q 334 442 356 465 q 308 378 312 419 q 311 265 304 345 q 326 127 317 197 q 328 100 327 115 l 330 89 l 332 78 q 336 40 335 53 q 323 -45 342 -21 q 227 -87 291 -83 q 125 -57 163 -90 q 111 -39 117 -51 q 87 15 100 -21 m 274 768 q 312 832 288 805 q 363 861 340 866 q 398 836 378 857 q 411 822 404 829 q 414 817 413 819 q 416 814 415 815 l 416 814 l 416 814 q 419 810 418 812 l 421 807 q 425 802 423 804 q 431 798 428 798 q 443 805 437 798 q 448 812 445 808 l 450 817 l 453 822 q 465 840 460 835 q 481 850 472 849 q 503 844 491 852 q 519 825 513 836 q 521 766 532 801 q 482 720 509 732 q 426 724 457 709 q 382 763 397 738 q 377 772 380 766 l 375 776 l 373 779 q 366 786 369 787 q 359 777 361 786 q 357 768 358 774 l 356 763 l 355 758 q 348 734 352 743 q 332 714 342 721 q 297 706 318 703 q 269 722 277 708 q 266 744 264 730 q 274 768 268 752 z "},"ò":{"ha":659,"x_min":-3,"x_max":667,"o":"m 414 344 q 376 258 411 292 q 303 239 340 224 q 262 278 278 248 q 245 341 245 307 q 285 436 245 397 q 323 460 303 454 q 363 458 345 467 q 403 412 388 446 q 414 344 417 380 m 495 642 q 349 664 429 675 q 199 609 273 654 q 77 500 127 566 q 10 360 24 433 q 18 220 -3 292 q 36 172 25 195 q 45 154 40 163 q 52 142 48 149 q 186 14 100 60 q 382 -20 281 -37 q 581 118 505 1 q 624 200 606 156 q 634 229 629 215 q 637 239 635 235 l 637 242 l 638 245 q 630 472 667 358 q 495 642 590 594 m 409 728 q 387 707 405 713 q 349 705 368 700 q 311 726 338 707 q 215 803 246 774 q 168 855 172 842 q 167 896 161 876 q 191 926 173 917 q 231 928 208 934 q 248 924 239 927 q 254 921 250 922 l 256 920 l 258 919 q 290 894 275 911 q 343 829 301 883 q 399 755 392 767 q 409 728 412 738 z "},"ó":{"ha":659,"x_min":-3,"x_max":667,"o":"m 414 344 q 376 258 411 292 q 303 239 340 224 q 262 278 278 248 q 245 341 245 307 q 285 436 245 397 q 323 460 303 454 q 363 458 345 467 q 403 412 388 446 q 414 344 417 380 m 495 642 q 349 664 429 675 q 199 609 273 654 q 77 500 127 566 q 10 360 24 433 q 18 220 -3 292 q 36 172 25 195 q 45 154 40 163 q 52 142 48 149 q 186 14 100 60 q 382 -20 281 -37 q 581 118 505 1 q 624 200 606 156 q 634 229 629 215 q 637 239 635 235 l 637 242 l 638 245 q 630 472 667 358 q 495 642 590 594 m 247 728 q 256 755 244 738 q 313 829 264 767 q 366 894 355 883 q 398 919 381 911 l 399 920 l 402 921 q 408 924 406 922 q 425 928 417 927 q 465 926 448 934 q 489 896 483 917 q 488 855 495 876 q 441 803 484 842 q 345 726 410 774 q 307 705 318 707 q 269 707 288 700 q 247 728 251 713 z "},"ô":{"ha":659,"x_min":-3,"x_max":667,"o":"m 414 344 q 376 258 411 292 q 303 239 340 224 q 262 278 278 248 q 245 341 245 307 q 285 436 245 397 q 323 460 303 454 q 363 458 345 467 q 403 412 388 446 q 414 344 417 380 m 495 642 q 349 664 429 675 q 199 609 273 654 q 77 500 127 566 q 10 360 24 433 q 18 220 -3 292 q 36 172 25 195 q 45 154 40 163 q 52 142 48 149 q 186 14 100 60 q 382 -20 281 -37 q 581 118 505 1 q 624 200 606 156 q 634 229 629 215 q 637 239 635 235 l 637 242 l 638 245 q 630 472 667 358 q 495 642 590 594 m 201 792 q 259 852 207 810 q 315 895 298 885 q 334 901 326 901 q 383 869 357 897 q 406 842 393 859 q 416 827 410 836 l 427 812 q 455 767 448 781 q 460 727 465 744 q 446 707 456 715 q 416 699 433 699 q 385 709 401 700 q 363 730 370 718 q 361 754 358 739 q 362 768 362 762 q 358 786 361 777 q 355 794 357 789 q 349 803 352 799 q 337 814 342 813 q 330 803 332 814 q 328 791 329 800 l 327 787 l 327 784 q 326 776 326 779 q 317 743 322 755 q 294 714 309 724 q 252 701 276 703 q 212 712 227 700 q 195 753 195 726 q 196 774 194 763 q 201 792 198 784 z "},"õ":{"ha":659,"x_min":-3,"x_max":667,"o":"m 414 344 q 376 258 411 292 q 303 239 340 224 q 262 278 278 248 q 245 341 245 307 q 285 436 245 397 q 323 460 303 454 q 363 458 345 467 q 403 412 388 446 q 414 344 417 380 m 495 642 q 349 664 429 675 q 199 609 273 654 q 77 500 127 566 q 10 360 24 433 q 18 220 -3 292 q 36 172 25 195 q 45 154 40 163 q 52 142 48 149 q 186 14 100 60 q 382 -20 281 -37 q 581 118 505 1 q 624 200 606 156 q 634 229 629 215 q 637 239 635 235 l 637 242 l 638 245 q 630 472 667 358 q 495 642 590 594 m 206 768 q 244 832 220 805 q 296 861 273 866 q 330 836 311 857 q 343 822 336 829 q 347 817 345 819 q 348 814 347 815 l 349 814 l 349 814 q 351 810 350 812 l 353 807 q 357 802 355 804 q 363 798 360 798 q 375 805 369 798 q 380 812 377 808 l 382 817 l 385 822 q 397 840 392 835 q 413 850 404 849 q 435 844 423 852 q 451 825 446 836 q 453 766 465 801 q 414 720 441 732 q 358 724 389 709 q 314 763 330 738 q 309 772 312 766 l 307 776 l 305 779 q 298 786 301 787 q 292 777 294 786 q 289 768 290 774 l 288 763 l 287 758 q 280 734 284 743 q 264 714 274 721 q 229 706 250 703 q 201 722 209 708 q 198 744 196 730 q 206 768 200 752 z "},"ö":{"ha":659,"x_min":-3,"x_max":667,"o":"m 414 344 q 376 258 411 292 q 303 239 340 224 q 262 278 278 248 q 245 341 245 307 q 285 436 245 397 q 323 460 303 454 q 363 458 345 467 q 403 412 388 446 q 414 344 417 380 m 495 642 q 349 664 429 675 q 199 609 273 654 q 77 500 127 566 q 10 360 24 433 q 18 220 -3 292 q 36 172 25 195 q 45 154 40 163 q 52 142 48 149 q 186 14 100 60 q 382 -20 281 -37 q 581 118 505 1 q 624 200 606 156 q 634 229 629 215 q 637 239 635 235 l 637 242 l 638 245 q 630 472 667 358 q 495 642 590 594 m 266 843 q 288 818 281 834 q 293 793 294 807 q 231 719 293 730 q 199 722 214 715 q 170 750 174 732 q 172 794 168 774 q 178 817 174 808 q 239 849 195 849 q 266 843 255 850 m 460 843 q 481 818 475 834 q 487 793 488 807 q 425 719 487 730 q 393 722 408 715 q 363 750 368 732 q 366 794 362 774 q 372 817 368 808 q 433 849 389 849 q 460 843 449 850 z "},"÷":{"ha":688,"x_min":33,"x_max":644,"o":"m 581 518 q 614 512 602 516 q 629 502 623 509 q 644 456 644 486 q 629 411 644 428 q 597 396 618 398 q 549 397 586 395 q 275 395 425 403 q 195 389 239 393 l 186 388 l 178 387 q 163 385 169 386 q 138 383 148 384 q 98 385 113 382 q 68 399 81 388 q 33 475 34 426 q 41 516 33 498 q 65 546 50 536 q 115 555 80 556 q 206 547 138 555 q 395 532 254 541 l 421 530 l 448 528 q 498 525 477 526 q 581 518 552 522 m 403 363 q 444 318 431 348 q 453 272 454 298 q 339 136 453 156 q 278 142 306 131 q 225 194 234 161 q 229 275 222 237 q 241 315 233 299 q 354 375 271 374 q 403 363 383 376 m 403 792 q 444 747 431 777 q 453 701 454 726 q 339 565 453 585 q 278 571 306 559 q 225 623 234 589 q 229 703 222 665 q 241 744 233 728 q 354 804 271 803 q 403 792 383 804 z "},"ø":{"ha":659,"x_min":-3,"x_max":671,"o":"m 461 656 q 349 664 409 672 q 199 609 273 654 q 77 500 127 566 q 10 360 24 433 q 18 220 -3 292 q 36 172 25 195 q 45 154 40 163 q 52 142 48 149 q 100 79 73 107 q 75 52 86 64 q 44 12 53 26 q 24 -45 23 -18 q 44 -95 24 -73 q 58 -109 50 -102 q 64 -113 61 -111 l 65 -114 l 67 -115 l 67 -115 l 68 -116 l 70 -117 q 76 -120 73 -118 q 98 -128 87 -125 q 163 -125 134 -138 q 208 -77 189 -114 q 226 -37 214 -65 l 231 -26 l 236 -14 q 239 -9 237 -12 q 382 -20 309 -33 q 581 118 505 1 q 624 200 606 156 q 634 229 629 215 q 637 239 635 235 l 637 242 l 638 245 q 630 472 667 358 q 587 561 613 523 l 591 566 l 599 575 q 625 607 616 596 q 660 660 650 639 q 668 709 671 684 l 667 711 l 667 713 q 666 719 667 715 q 661 734 664 727 q 633 769 651 757 q 564 774 605 788 q 511 738 528 762 l 461 656 m 473 327 q 407 203 467 252 q 283 174 345 153 q 212 231 239 188 q 184 323 184 274 q 251 461 182 404 q 317 496 283 487 q 386 493 353 506 q 453 427 427 476 q 473 327 477 379 z "},"ù":{"ha":753,"x_min":25,"x_max":727,"o":"m 722 618 q 708 378 727 467 q 694 234 692 304 q 699 178 695 208 q 702 154 700 167 q 706 132 703 146 q 713 58 715 78 q 688 -1 711 24 q 526 -52 634 -58 q 449 -37 482 -50 q 408 -5 415 -24 q 405 10 405 1 l 406 18 l 406 25 q 401 45 408 43 q 380 37 395 48 l 373 32 l 366 26 q 352 16 357 19 q 243 -20 306 -15 q 144 -6 185 -24 q 41 157 68 26 q 28 267 31 204 q 26 317 26 290 q 25 340 25 328 l 25 351 l 25 361 l 25 379 q 25 400 25 390 q 26 451 26 427 q 40 570 30 517 q 150 750 68 722 q 247 747 195 766 q 319 689 300 728 q 326 643 330 668 q 308 590 323 626 l 301 574 l 295 557 q 281 519 287 537 q 260 419 266 471 l 258 408 l 257 395 q 255 369 256 381 q 255 312 253 337 q 297 221 260 244 q 357 209 321 205 q 415 232 390 213 q 451 291 441 252 q 465 403 459 323 q 471 543 469 471 q 471 568 471 554 l 471 581 l 472 592 q 473 630 472 617 q 499 712 475 691 q 600 739 536 745 q 696 694 663 732 l 699 690 q 718 652 712 673 q 722 618 722 636 m 456 728 q 433 707 452 713 q 396 705 415 700 q 358 726 385 707 q 262 803 293 774 q 214 855 219 842 q 214 896 208 876 q 237 926 220 917 q 277 928 254 934 q 294 924 286 927 q 300 921 297 922 l 303 920 l 304 919 q 337 894 321 911 q 390 829 348 883 q 446 755 439 767 q 456 728 458 738 z "},"ú":{"ha":753,"x_min":25,"x_max":727,"o":"m 722 618 q 708 378 727 467 q 694 234 692 304 q 699 178 695 208 q 702 154 700 167 q 706 132 703 146 q 713 58 715 78 q 688 -1 711 24 q 526 -52 634 -58 q 449 -37 482 -50 q 408 -5 415 -24 q 405 10 405 1 l 406 18 l 406 25 q 401 45 408 43 q 380 37 395 48 l 373 32 l 366 26 q 352 16 357 19 q 243 -20 306 -15 q 144 -6 185 -24 q 41 157 68 26 q 28 267 31 204 q 26 317 26 290 q 25 340 25 328 l 25 351 l 25 361 l 25 379 q 25 400 25 390 q 26 451 26 427 q 40 570 30 517 q 150 750 68 722 q 247 747 195 766 q 319 689 300 728 q 326 643 330 668 q 308 590 323 626 l 301 574 l 295 557 q 281 519 287 537 q 260 419 266 471 l 258 408 l 257 395 q 255 369 256 381 q 255 312 253 337 q 297 221 260 244 q 357 209 321 205 q 415 232 390 213 q 451 291 441 252 q 465 403 459 323 q 471 543 469 471 q 471 568 471 554 l 471 581 l 472 592 q 473 630 472 617 q 499 712 475 691 q 600 739 536 745 q 696 694 663 732 l 699 690 q 718 652 712 673 q 722 618 722 636 m 293 728 q 302 755 290 738 q 359 829 310 767 q 412 894 401 883 q 444 919 427 911 l 446 920 l 448 921 q 454 924 452 922 q 471 928 463 927 q 511 926 494 934 q 535 896 529 917 q 534 855 541 876 q 487 803 530 842 q 391 726 456 774 q 353 705 364 707 q 315 707 334 700 q 293 728 297 713 z "},"û":{"ha":753,"x_min":25,"x_max":727,"o":"m 722 618 q 708 378 727 467 q 694 234 692 304 q 699 178 695 208 q 702 154 700 167 q 706 132 703 146 q 713 58 715 78 q 688 -1 711 24 q 526 -52 634 -58 q 449 -37 482 -50 q 408 -5 415 -24 q 405 10 405 1 l 406 18 l 406 25 q 401 45 408 43 q 380 37 395 48 l 373 32 l 366 26 q 352 16 357 19 q 243 -20 306 -15 q 144 -6 185 -24 q 41 157 68 26 q 28 267 31 204 q 26 317 26 290 q 25 340 25 328 l 25 351 l 25 361 l 25 379 q 25 400 25 390 q 26 451 26 427 q 40 570 30 517 q 150 750 68 722 q 247 747 195 766 q 319 689 300 728 q 326 643 330 668 q 308 590 323 626 l 301 574 l 295 557 q 281 519 287 537 q 260 419 266 471 l 258 408 l 257 395 q 255 369 256 381 q 255 312 253 337 q 297 221 260 244 q 357 209 321 205 q 415 232 390 213 q 451 291 441 252 q 465 403 459 323 q 471 543 469 471 q 471 568 471 554 l 471 581 l 472 592 q 473 630 472 617 q 499 712 475 691 q 600 739 536 745 q 696 694 663 732 l 699 690 q 718 652 712 673 q 722 618 722 636 m 247 792 q 305 852 253 810 q 361 895 344 885 q 380 901 372 901 q 429 869 404 897 q 452 842 439 859 q 463 827 456 836 l 473 812 q 501 767 494 781 q 506 727 511 744 q 492 707 502 715 q 463 699 479 699 q 431 709 447 700 q 409 730 416 718 q 407 754 404 739 q 408 768 408 762 q 404 786 408 777 q 401 794 403 789 q 395 803 398 799 q 383 814 389 813 q 376 803 378 814 q 374 791 375 800 l 373 787 l 373 784 q 372 776 372 779 q 363 743 368 755 q 340 714 355 724 q 298 701 322 703 q 258 712 273 700 q 241 753 241 726 q 242 774 240 763 q 247 792 244 784 z "},"ü":{"ha":753,"x_min":25,"x_max":727,"o":"m 722 618 q 708 378 727 467 q 694 234 692 304 q 699 178 695 208 q 702 154 700 167 q 706 132 703 146 q 713 58 715 78 q 688 -1 711 24 q 526 -52 634 -58 q 449 -37 482 -50 q 408 -5 415 -24 q 405 10 405 1 l 406 18 l 406 25 q 401 45 408 43 q 380 37 395 48 l 373 32 l 366 26 q 352 16 357 19 q 243 -20 306 -15 q 144 -6 185 -24 q 41 157 68 26 q 28 267 31 204 q 26 317 26 290 q 25 340 25 328 l 25 351 l 25 361 l 25 379 q 25 400 25 390 q 26 451 26 427 q 40 570 30 517 q 150 750 68 722 q 247 747 195 766 q 319 689 300 728 q 326 643 330 668 q 308 590 323 626 l 301 574 l 295 557 q 281 519 287 537 q 260 419 266 471 l 258 408 l 257 395 q 255 369 256 381 q 255 312 253 337 q 297 221 260 244 q 357 209 321 205 q 415 232 390 213 q 451 291 441 252 q 465 403 459 323 q 471 543 469 471 q 471 568 471 554 l 471 581 l 472 592 q 473 630 472 617 q 499 712 475 691 q 600 739 536 745 q 696 694 663 732 l 699 690 q 718 652 712 673 q 722 618 722 636 m 312 843 q 334 818 327 834 q 339 793 340 807 q 277 719 339 730 q 245 722 260 715 q 216 750 220 732 q 218 794 214 774 q 224 817 220 808 q 286 849 241 849 q 312 843 301 850 m 506 843 q 528 818 521 834 q 533 793 534 807 q 471 719 533 730 q 439 722 454 715 q 410 750 414 732 q 412 794 408 774 q 418 817 414 808 q 479 849 435 849 q 506 843 495 850 z "},"ý":{"ha":692,"x_min":-7,"x_max":682,"o":"m 58 -133 q 86 -106 65 -117 q 98 -100 90 -104 l 104 -97 l 112 -93 q 149 -72 131 -83 l 157 -66 l 166 -61 q 185 -48 176 -54 q 223 -19 208 -33 q 273 54 266 18 q 263 115 279 83 q 248 142 257 127 l 239 155 l 230 167 q 60 415 102 340 q 18 612 -7 539 q 54 667 28 642 q 72 682 62 675 q 79 686 76 684 l 82 688 l 85 689 q 182 709 127 713 q 267 675 236 705 q 291 606 290 653 l 292 582 q 292 554 292 566 q 299 483 293 518 q 349 332 313 402 q 398 271 380 268 q 408 317 406 273 l 408 328 l 408 341 q 409 372 408 359 q 412 450 410 412 q 431 620 421 578 q 479 703 444 682 q 553 721 510 722 q 627 701 595 720 l 629 699 l 631 698 q 636 694 634 696 q 650 684 644 690 q 673 648 667 668 q 673 593 682 623 q 664 572 669 583 q 660 564 662 568 l 658 560 l 656 557 q 643 504 650 547 q 622 416 637 471 q 566 224 602 340 q 450 -83 484 -38 l 449 -85 l 448 -86 q 444 -91 446 -89 q 433 -104 439 -98 q 395 -142 416 -124 q 262 -235 335 -199 q 187 -264 212 -258 q 119 -262 149 -275 q 63 -205 82 -246 q 58 -133 45 -164 m 263 728 q 273 755 260 738 q 329 829 280 767 q 382 894 371 883 q 414 919 397 911 l 416 920 l 418 921 q 425 924 422 922 q 441 928 433 927 q 481 926 465 934 q 505 896 499 917 q 505 855 511 876 q 457 803 500 842 q 361 726 426 774 q 323 705 334 707 q 286 707 304 700 q 263 728 267 713 z "},"þ":{"ha":816,"x_min":10,"x_max":761,"o":"m 397 222 q 330 214 365 213 q 281 228 293 214 q 279 250 275 235 l 281 254 l 282 258 q 285 268 283 264 q 290 294 288 281 q 292 324 292 309 l 291 330 l 291 337 q 290 355 290 346 q 296 421 292 403 q 323 460 304 451 q 417 456 357 477 q 505 395 479 435 q 497 292 534 347 q 397 222 461 241 m 673 606 q 509 677 610 664 q 347 650 408 692 q 328 634 338 644 l 319 627 l 313 620 q 290 608 298 605 q 281 630 282 611 q 283 682 280 644 l 283 691 l 284 700 l 285 719 q 288 762 287 742 q 286 866 289 816 q 277 935 283 913 q 257 966 271 955 q 172 986 226 991 q 83 950 117 981 q 52 854 50 920 q 60 781 54 830 l 62 760 l 66 736 q 72 685 69 707 q 78 212 108 369 q 53 110 69 166 l 46 89 l 40 68 q 30 31 33 45 q 40 -96 10 -45 l 41 -98 l 41 -99 q 44 -102 43 -100 q 52 -113 47 -108 q 77 -142 63 -129 q 170 -191 119 -182 l 174 -191 l 177 -192 q 186 -193 182 -193 q 209 -194 198 -195 q 257 -178 239 -193 q 278 -134 274 -163 q 277 -37 281 -108 q 275 6 276 -16 q 272 42 274 22 q 269 96 269 85 q 275 139 267 136 q 292 124 281 141 q 302 106 295 119 l 309 96 l 315 84 q 351 38 333 56 q 401 6 374 14 q 550 43 465 -12 q 676 166 625 91 q 753 389 745 267 q 673 606 761 528 z "},"ÿ":{"ha":692,"x_min":-7,"x_max":682,"o":"m 58 -133 q 86 -106 65 -117 q 98 -100 90 -104 l 104 -97 l 112 -93 q 149 -72 131 -83 l 157 -66 l 166 -61 q 185 -48 176 -54 q 223 -19 208 -33 q 273 54 266 18 q 263 115 279 83 q 248 142 257 127 l 239 155 l 230 167 q 60 415 102 340 q 18 612 -7 539 q 54 667 28 642 q 72 682 62 675 q 79 686 76 684 l 82 688 l 85 689 q 182 709 127 713 q 267 675 236 705 q 291 606 290 653 l 292 582 q 292 554 292 566 q 299 483 293 518 q 349 332 313 402 q 398 271 380 268 q 408 317 406 273 l 408 328 l 408 341 q 409 372 408 359 q 412 450 410 412 q 431 620 421 578 q 479 703 444 682 q 553 721 510 722 q 627 701 595 720 l 629 699 l 631 698 q 636 694 634 696 q 650 684 644 690 q 673 648 667 668 q 673 593 682 623 q 664 572 669 583 q 660 564 662 568 l 658 560 l 656 557 q 643 504 650 547 q 622 416 637 471 q 566 224 602 340 q 450 -83 484 -38 l 449 -85 l 448 -86 q 444 -91 446 -89 q 433 -104 439 -98 q 395 -142 416 -124 q 262 -235 335 -199 q 187 -264 212 -258 q 119 -262 149 -275 q 63 -205 82 -246 q 58 -133 45 -164 m 282 843 q 304 818 297 834 q 309 793 310 807 q 248 719 309 730 q 215 722 230 715 q 186 750 191 732 q 189 794 184 774 q 195 817 191 808 q 256 849 211 849 q 282 843 271 850 m 476 843 q 498 818 491 834 q 503 793 504 807 q 441 719 503 730 q 409 722 424 715 q 380 750 385 732 q 382 794 378 774 q 389 817 385 808 q 450 849 405 849 q 476 843 465 850 z "},"ı":{"ha":320,"x_min":34,"x_max":294,"o":"m 254 9 q 292 140 289 60 q 291 199 294 168 q 289 222 290 210 l 288 231 l 287 235 l 286 238 q 275 415 273 329 q 279 482 277 447 q 282 511 281 495 l 283 524 l 285 536 q 286 615 290 593 q 254 664 281 646 q 146 682 210 692 q 53 638 84 674 q 39 572 34 616 q 42 547 40 564 l 44 532 l 46 517 q 53 435 52 475 q 44 182 55 395 q 39 51 38 73 q 62 -6 42 13 q 132 -37 89 -31 q 211 -28 176 -44 q 238 -9 226 -20 q 247 1 243 -5 q 254 9 250 5 z "},"ˆ":{"ha":694,"x_min":220,"x_max":491,"o":"m 227 792 q 285 852 233 810 q 341 895 323 885 q 359 901 352 901 q 409 869 383 897 q 431 842 419 859 q 442 827 436 836 l 453 812 q 481 767 474 781 q 486 727 491 744 q 471 707 481 715 q 442 699 459 699 q 411 709 427 700 q 389 730 395 718 q 387 754 384 739 q 388 768 388 762 q 384 786 387 777 q 380 794 382 789 q 375 803 378 799 q 363 814 368 813 q 355 803 357 814 q 353 791 355 800 l 353 787 l 353 784 q 351 776 352 779 q 342 743 348 755 q 319 714 334 724 q 278 701 302 703 q 237 712 253 700 q 220 753 221 726 q 222 774 220 763 q 227 792 224 784 z "},"ˇ":{"ha":694,"x_min":220,"x_max":491,"o":"m 227 808 q 222 825 224 815 q 220 847 220 836 q 237 888 221 874 q 278 899 253 900 q 319 885 302 897 q 342 857 334 876 q 351 824 348 844 q 353 816 352 821 l 353 812 l 353 808 q 355 796 355 800 q 363 786 357 785 q 375 797 368 787 q 380 806 378 801 q 384 814 382 810 q 388 831 387 823 q 387 846 388 837 q 389 870 384 861 q 411 891 395 882 q 442 901 427 900 q 471 892 459 901 q 486 872 481 884 q 481 833 491 856 q 453 788 474 819 l 442 772 q 431 758 436 764 q 409 730 419 741 q 359 699 383 703 q 341 705 352 699 q 285 747 323 715 q 227 808 233 789 z "},"ˉ":{"ha":694,"x_min":163,"x_max":543,"o":"m 503 790 q 524 786 517 789 q 534 779 530 784 q 543 750 543 768 q 534 720 543 731 q 514 710 527 711 q 484 710 507 709 q 314 709 407 715 q 264 705 291 708 l 258 705 l 254 705 q 244 703 248 703 q 229 702 235 702 q 204 703 213 701 q 185 712 193 705 q 163 762 164 730 q 168 789 163 777 q 183 808 174 802 q 214 814 193 815 q 271 809 229 814 q 388 799 301 805 l 405 798 l 421 797 q 452 795 439 795 q 503 790 486 792 z "}}}
